<svg width="37" height="37" viewBox="0 0 37 37" fill="none" xmlns="http://www.w3.org/2000/svg">
<path d="M18.5 0C8.28308 0 0 8.2827 0 18.5C0 28.7173 8.28308 37 18.5 37C28.7169 37 37 28.7173 37 18.5C37 8.2827 28.7169 0 18.5 0ZM27.8842 20.5008C28.7464 21.343 29.6587 22.1357 30.4327 23.0649C30.7757 23.476 31.0989 23.9011 31.345 24.3791C31.6962 25.0608 31.379 25.8084 30.7689 25.8489L26.9788 25.8481C25.9999 25.9291 25.2209 25.5344 24.5642 24.8651C24.04 24.3318 23.5536 23.7621 23.0486 23.2106C22.8423 22.9843 22.6251 22.7712 22.3662 22.6035C21.8495 22.2674 21.4006 22.3703 21.1046 22.9101C20.8029 23.4593 20.734 24.068 20.7052 24.6793C20.664 25.573 20.3945 25.8065 19.4978 25.8485C17.5817 25.9382 15.7637 25.6475 14.074 24.6816C12.5834 23.8295 11.4297 22.627 10.4243 21.2654C8.46666 18.6113 6.96736 15.6982 5.62021 12.7015C5.31702 12.0266 5.53883 11.6655 6.28338 11.6515C7.52037 11.6277 8.75736 11.6307 9.99435 11.6504C10.4978 11.6583 10.8309 11.9464 11.0243 12.4214C11.6928 14.0661 12.5122 15.6308 13.5392 17.0821C13.8128 17.4685 14.0922 17.8539 14.49 18.1268C14.9291 18.4281 15.2637 18.3285 15.4707 17.8384C15.6032 17.5268 15.6604 17.1937 15.6891 16.8599C15.7875 15.7164 15.7993 14.5733 15.629 13.4343C15.523 12.7216 15.1221 12.2613 14.4116 12.1265C14.0498 12.058 14.1028 11.924 14.2788 11.7174C14.5842 11.36 14.8704 11.139 15.4423 11.139L19.7245 11.1382C20.3994 11.2707 20.5508 11.5735 20.6424 12.2533L20.6462 17.0121C20.6382 17.2751 20.7783 18.0549 21.2507 18.2271C21.6292 18.352 21.879 18.0484 22.1054 17.8088C23.1323 16.7191 23.864 15.4329 24.5192 14.1016C24.8084 13.5146 25.0578 12.907 25.3 12.2984C25.4802 11.8483 25.7603 11.6269 26.2683 11.6345L30.3919 11.6394C30.5134 11.6394 30.6368 11.6405 30.7571 11.6613C31.4521 11.7802 31.6425 12.0792 31.4275 12.7571C31.0891 13.8223 30.4316 14.7095 29.7889 15.599C29.1 16.5514 28.3653 17.4704 27.6832 18.4269C27.0564 19.3013 27.106 19.7415 27.8842 20.5008Z" fill="black"/>
</svg>
