<svg width="278" height="279" viewBox="0 0 278 279" fill="none" xmlns="http://www.w3.org/2000/svg">
<path d="M135.882 277.379C136.291 276.152 137.716 275.949 137.716 277.118C137.716 277.694 137.245 278.165 136.668 278.165C136.092 278.165 135.738 277.812 135.882 277.379ZM139.702 277.175C139.702 276.671 139.95 276.105 140.253 275.917C140.557 275.73 140.672 274.67 140.509 273.562C140.299 272.133 139.85 271.547 138.965 271.547C138.278 271.547 137.716 271.988 137.716 272.527C137.716 273.066 137.046 273.646 136.227 273.815C132.795 274.524 130.009 274.641 128.292 274.149C127.219 273.841 126.465 273.882 126.465 274.248C126.465 274.915 123.257 274.613 117.033 273.363C114.94 272.942 113.228 272.264 113.228 271.856C113.228 271.412 112.449 271.229 111.289 271.399C109.891 271.604 109.457 271.962 109.734 272.682C110.05 273.505 109.72 273.596 107.867 273.198C104.806 272.541 104.507 272.296 104.973 270.826C105.249 269.958 104.995 269.412 104.173 269.103C103.511 268.854 102.621 268.186 102.196 267.618C101.771 267.05 101.274 266.734 101.092 266.916C100.589 267.419 102.12 273.533 102.75 273.533C103.052 273.533 103.3 273.83 103.3 274.194C103.3 275.938 90.294 273.747 89.2027 271.82C88.4836 270.55 86.6864 270.602 87.1761 271.878C87.7021 273.248 87.0027 273.12 85.4418 271.559C84.3906 270.508 83.7965 270.374 82.4516 270.885C80.4536 271.645 79.0801 270.543 77.2692 266.727C76.6272 265.374 75.6691 264.267 75.1402 264.267C74.6112 264.267 74.1784 264.016 74.1784 263.709C74.1784 263.402 73.1893 262.619 71.9804 261.968C70.2375 261.029 69.4938 260.938 68.3882 261.53C66.7624 262.4 64.9125 261.882 64.9125 260.556C64.9125 259.267 66.0372 259.405 66.845 260.792C67.2697 261.521 67.5271 261.626 67.5398 261.076C67.5638 260.031 65.9579 258.31 64.9598 258.31C64.5697 258.31 64.2507 258.738 64.2507 259.262C64.2507 259.787 63.6901 260.171 62.9997 260.119C62.2688 260.064 61.8855 259.668 62.0777 259.167C62.2587 258.696 62.0595 258.31 61.635 258.31C61.2105 258.31 61.0473 258.012 61.2723 257.648C61.5169 257.252 60.668 256.978 59.1604 256.965C56.4632 256.943 54.8372 256.039 54.1372 254.173C53.8981 253.536 53.2465 253.015 52.689 253.015C52.1316 253.015 51.6755 252.763 51.6755 252.454C51.6755 251.379 49.1948 249.044 48.0523 249.044C47.3367 249.044 47.0356 248.693 47.2568 248.116C47.4715 247.557 47.0821 247.05 46.2755 246.839C45.2629 246.574 45.0458 246.15 45.3813 245.093C45.778 243.844 45.6282 243.74 43.9515 244.108C42.5173 244.422 42.3111 244.353 43.0714 243.813C43.9013 243.223 43.8332 243.106 42.656 243.097C40.9974 243.085 39.4733 241.485 39.9463 240.253C40.145 239.735 39.7545 239.347 38.9747 239.289C37.3052 239.163 35.6479 237.796 36.0126 236.846C36.1676 236.442 35.4056 235.373 34.3194 234.47C33.2331 233.567 31.4171 231.935 30.2838 230.843C29.1505 229.751 28.0008 228.928 27.7289 229.015C27.457 229.102 27.3958 228.752 27.5928 228.239C27.7899 227.725 27.3138 226.668 26.5349 225.889C25.7559 225.11 25.2355 224.122 25.3784 223.693C25.5212 223.265 24.9442 222.368 24.0961 221.701C23.2479 221.034 22.554 220.014 22.554 219.434C22.554 218.854 22.0999 217.907 21.5449 217.331C19.8507 215.57 17.2592 211.317 17.2592 210.296C17.2592 209.766 17.0087 209.333 16.7025 209.333C16.3964 209.333 15.3066 207.248 14.2808 204.7C13.255 202.152 12.1914 200.067 11.9173 200.067C11.6431 200.067 11.2074 198.816 10.949 197.286C10.6906 195.757 9.90805 193.173 9.20995 191.544C8.51187 189.916 8.0921 188.189 8.27713 187.707C8.46216 187.224 8.26538 186.83 7.84009 186.83C7.25134 186.83 7.2508 186.646 7.83774 186.059C8.42476 185.472 8.33783 185.067 7.47371 184.362C6.61541 183.663 6.54696 183.351 7.19304 183.084C7.82627 182.822 7.7213 182.447 6.78771 181.636C6.09477 181.035 5.33795 179.425 5.10585 178.06C4.87377 176.695 4.50236 174.536 4.28054 173.262C4.0587 171.988 3.6302 170.945 3.32832 170.945C3.02642 170.945 2.57469 169.531 2.32444 167.802C2.07421 166.073 1.62355 164.347 1.32298 163.967C0.620258 163.078 1.06065 158.208 2.00296 156.447C2.46743 155.579 2.50814 154.669 2.11609 153.918C1.14239 152.052 -0.302322 146.82 0.055831 146.457C0.235123 146.275 0.679663 146.222 1.04369 146.339C1.4077 146.456 1.33324 146.173 0.878221 145.71C0.423207 145.247 0.050897 143.998 0.050897 142.934C0.050897 141.461 0.248202 141.164 0.878221 141.688C1.52604 142.226 1.65458 141.652 1.47067 139.039C1.30909 136.744 1.46166 135.843 1.95948 136.151C2.40566 136.426 2.53816 136.22 2.30504 135.612C2.09706 135.071 1.50481 134.789 0.988906 134.987C0.346513 135.234 0.050897 134.866 0.050897 133.82C0.050897 132.633 0.227409 132.47 0.845132 133.087C1.92607 134.168 2.69832 134.086 2.69832 132.889C2.69832 132.343 2.25157 131.896 1.70553 131.896C0.943402 131.896 0.712753 131.05 0.712753 128.256C0.712753 126.254 0.938273 124.616 1.21392 124.616C1.48956 124.616 1.60982 123.292 1.48118 121.675C1.2342 118.569 2.38081 114.026 3.41149 114.026C3.74729 114.026 4.02201 112.835 4.02201 111.379C4.02201 108.896 4.91471 107.769 5.49739 109.517C5.64149 109.95 5.75938 108.344 5.75938 105.95C5.75938 102.939 6.11219 101.059 6.90376 99.8508C7.53318 98.8902 7.87645 97.8265 7.66661 97.487C7.45676 97.1474 8.04249 94.5506 8.96822 91.7162C9.96749 88.6567 10.3803 86.4725 9.9841 86.3405C9.61709 86.2181 9.315 85.6217 9.31276 85.015C9.31041 84.4083 8.88142 83.0928 8.35923 82.0918C7.33936 80.1367 7.70076 79.6188 8.9207 81.2872C9.52683 82.1161 9.66185 81.9184 9.65553 80.2109C9.65083 78.9578 10.0994 77.8302 10.7743 77.3987C12.2195 76.4745 12.9121 77.1633 12.1086 78.7258C11.765 79.394 11.3214 81.281 11.1227 82.9191C10.9241 84.5572 10.9051 85.3762 11.0805 84.7392C11.2559 84.1021 11.6278 83.5809 11.9068 83.5809C12.1859 83.5809 12.8145 82.3681 13.3037 80.8858C13.7929 79.4035 14.7322 77.8132 15.391 77.3517C16.0498 76.8903 16.3921 76.3161 16.1518 76.0757C15.9114 75.8354 16.036 75.6387 16.4287 75.6387C16.8214 75.6387 17.3541 74.3729 17.6125 72.8258C18.138 69.6794 20.1738 66.3728 21.5854 66.3728C22.0952 66.3728 22.3634 65.9847 22.1814 65.5105C21.5741 63.9278 23.7418 60.1248 27.4689 56.2344C29.4979 54.1165 31.158 52.0776 31.158 51.7036C31.158 50.6401 33.3599 47.1791 34.0365 47.1791C35.2997 47.1791 37.7649 43.5522 37.3628 42.2854C37.0533 41.3103 37.2092 41.1171 38.046 41.4382C39.034 41.8173 41.7476 39.8965 41.7476 38.8179C41.7476 38.2309 49.8718 30.6328 50.4995 30.6328C50.7822 30.6328 51.0135 30.186 51.0135 29.64C51.0135 29.094 51.3858 28.6425 51.8408 28.6366C52.2958 28.6308 53.6765 27.7373 54.9089 26.6511C56.1412 25.5648 57.3326 24.6747 57.5563 24.673C57.7799 24.6715 58.8565 23.8523 59.9485 22.853C61.0406 21.8536 63.4164 20.2373 65.2282 19.2612C68.1211 17.7027 70.0268 15.8499 68.4492 16.1297C66.9681 16.3924 65.5379 16.0045 65.8895 15.4355C66.133 15.0415 66.884 15.0274 67.8598 15.3984C69.6972 16.097 72.1928 16.0226 72.1928 15.2693C72.1928 14.9828 72.6531 14.7483 73.2156 14.7483C73.7782 14.7483 74.9831 14.0037 75.8931 13.0937C77.7338 11.253 78.5562 11.0337 78.9965 12.2664C79.4491 13.5338 80.3005 12.3635 80.3005 10.4739C80.3005 9.54865 80.5787 8.79166 80.9186 8.79166C81.2586 8.79166 81.3215 9.1401 81.0583 9.56598C80.732 10.0939 80.9474 10.1992 81.7352 9.89691C82.3707 9.65304 83.3037 9.45351 83.8085 9.45351C84.3134 9.45351 84.6357 9.08122 84.5247 8.62619C84.4138 8.17117 84.448 8.02225 84.6007 8.29527C85.0693 9.13315 87.4154 8.84483 87.4154 7.94936C87.4154 7.48609 88.7556 6.7961 90.3937 6.41605C92.0318 6.036 93.372 5.9404 93.372 6.20361C93.372 6.46682 93.9677 6.5264 94.6957 6.33602C95.4238 6.14563 96.0195 5.70919 96.0195 5.36614C96.0195 5.0231 95.7216 4.92649 95.3576 5.15147C94.9936 5.37645 94.6957 5.21324 94.6957 4.78879C94.6957 4.36435 95.068 4.15698 95.5231 4.32798C98.8762 5.58812 99.3287 5.57329 99.3287 4.20329C99.3287 2.70719 100.361 2.339 100.845 3.6623C101.053 4.23054 101.596 4.02327 102.58 3.00045C104.616 0.884714 108.207 0.965931 109.645 3.16023C110.897 5.07162 112.145 4.71505 111.557 2.61382C111.288 1.65417 111.353 1.46417 111.753 2.039C112.234 2.72846 112.519 2.69585 113.202 1.87354C113.669 1.31028 114.685 0.853992 115.46 0.859566C116.611 0.867855 116.687 0.986521 115.875 1.51128C115.019 2.06419 115.037 2.15427 116.001 2.163C116.617 2.16857 117.305 1.8753 117.53 1.51128C118.357 0.171972 119.324 0.865707 118.912 2.50406C118.673 3.45822 118.783 4.15869 119.172 4.15869C119.543 4.15869 119.846 3.89616 119.846 3.57529C119.846 2.6222 126.037 0.81927 126.536 1.62698C126.834 2.10813 127.042 2.10114 127.212 1.60434C127.347 1.20912 129.611 0.686468 132.242 0.442882L137.027 0L136.755 2.7412C136.523 5.0725 136.666 5.4824 137.716 5.4824C138.395 5.4824 139.14 4.88673 139.371 4.15869C139.713 3.07945 140.424 2.81562 143.221 2.73012C147.882 2.58763 149.259 2.75958 149.519 3.51634C149.862 4.51494 150.953 4.27205 150.953 3.1971C150.953 2.4274 151.647 2.31551 154.428 2.63639C156.339 2.85689 158.052 3.26227 158.235 3.53724C158.418 3.81222 159.684 4.2466 161.048 4.50253C162.412 4.75846 163.528 5.18096 163.528 5.44143C163.528 5.70189 164.473 5.77639 165.627 5.60699C167.466 5.33701 167.589 5.19914 166.62 4.49041C164.876 3.21563 165.33 2.81739 167.334 3.86294C168.335 4.38514 169.656 4.81422 170.268 4.81647C170.983 4.81908 171.458 5.45811 171.592 6.59639C171.746 7.90103 172.395 8.61318 174.037 9.2803C176.06 10.1018 176.233 10.0844 175.855 9.0976C174.651 5.96164 174.654 4.82734 175.868 4.3786C176.544 4.12874 177.309 3.60476 177.569 3.21419C178.098 2.42036 185.369 2.22111 185.369 3.00045C185.369 3.27346 184.848 3.52807 184.211 3.56624C183.574 3.6044 184.095 3.9767 185.37 4.39355C186.644 4.81041 188.033 5.3767 188.457 5.65198C188.881 5.92726 189.379 5.77835 189.565 5.32106C189.826 4.67701 190.047 4.69739 190.546 5.41148C190.938 5.97184 192.381 6.33335 194.227 6.33335C196.981 6.33335 197.388 6.5434 198.597 8.59311C199.33 9.83598 199.93 11.261 199.93 11.7598C199.93 12.9306 206.793 16.1907 208.157 15.6675C208.887 15.3872 209.196 15.6604 209.196 16.5859C209.196 18.1037 211.854 19.1125 212.613 17.8831C212.964 17.3155 213.654 17.5066 215.092 18.5699C216.188 19.3802 217.841 20.0431 218.766 20.0431C220.035 20.0431 220.448 20.3855 220.448 21.4377C220.448 22.3691 220.759 22.7127 221.386 22.4722C221.902 22.2743 222.488 22.5402 222.689 23.0633C222.889 23.5863 223.435 24.0161 223.902 24.0184C224.368 24.0207 225.257 24.9142 225.877 26.004C226.504 27.1057 227.559 27.9854 228.253 27.9854C228.942 27.9854 229.839 28.7264 230.255 29.64C230.67 30.55 231.537 31.3041 232.181 31.3157C233.24 31.3347 233.226 31.435 232.03 32.3521C230.768 33.3206 230.795 33.3457 232.625 32.8964C233.992 32.5608 234.409 32.6435 234.075 33.1837C233.818 33.6008 233.919 33.942 234.3 33.942C235.338 33.942 237.656 36.1004 237.656 37.0675C237.656 37.5326 238.112 37.9131 238.669 37.9131C239.227 37.9131 239.854 38.3599 240.064 38.9059C240.273 39.452 241.029 39.8987 241.742 39.8987C242.706 39.8987 242.939 40.2154 242.649 41.1292C242.038 43.0541 242.888 44.4128 244.992 44.8749C246.263 45.1541 247.054 45.8214 247.307 46.8284C247.518 47.6695 248.56 49.1907 249.623 50.2087C250.685 51.2268 251.555 52.6172 251.555 53.2986C251.555 53.9801 251.853 54.3535 252.217 54.1285C252.581 53.9035 252.878 54.093 252.878 54.5496C252.878 55.0062 253.698 56.2612 254.699 57.3385C255.7 58.4157 256.115 59.0655 255.623 58.7824C255.015 58.4329 255.086 58.8159 255.845 59.9746C256.46 60.9135 256.772 61.9925 256.537 62.3726C256.302 62.7526 256.574 63.0635 257.141 63.0635C257.709 63.0635 258.173 63.3932 258.173 63.7962C258.173 64.1992 258.57 64.3765 259.056 64.1902C259.541 64.004 259.938 64.264 259.938 64.768C259.938 66.6014 261.712 71.3616 262.756 72.3295C263.345 72.8755 264.229 74.6625 264.721 76.3006C267.163 84.4296 267.714 85.936 268.552 86.7742C269.139 87.3605 269.349 88.594 269.148 90.264C268.977 91.6846 269.118 92.8469 269.462 92.8469C269.805 92.8469 270.087 93.5915 270.087 94.5015C270.087 95.4115 270.384 96.1561 270.748 96.1561C271.112 96.1561 271.41 97.1737 271.41 98.4175C271.41 99.6612 271.704 100.778 272.062 100.899C272.713 101.12 273.756 105.249 274.497 110.538C274.712 112.078 275.149 113.177 275.466 112.981C275.784 112.785 276.043 113.238 276.043 113.987C276.043 114.737 275.797 115.35 275.496 115.35C275.195 115.35 275.067 116.169 275.211 117.17C275.355 118.171 275.206 119.706 274.878 120.581C274.248 122.27 275.186 126.009 276.594 127.417C277.618 128.441 277.583 131.037 276.54 131.458C275.878 131.725 275.878 131.802 276.54 131.844C277.799 131.923 277.581 135.205 276.317 135.205C275.489 135.205 275.314 135.798 275.49 138.018C275.649 140.03 275.473 140.783 274.871 140.661C274.295 140.544 274.155 140.99 274.429 142.078C274.648 142.951 274.5 143.867 274.101 144.114C273.701 144.361 273.549 144.845 273.762 145.19C273.975 145.535 274.429 145.644 274.77 145.433C275.112 145.222 275.876 145.533 276.469 146.126C277.335 146.993 277.398 147.485 276.788 148.65C276.372 149.446 275.773 152.702 275.458 155.887C275.142 159.071 274.576 162.049 274.199 162.505C273.822 162.961 273.567 164.451 273.632 165.816C273.76 168.513 273.156 168.885 271.33 167.233C270.214 166.222 270.188 166.293 270.83 168.617C271.201 169.964 271.334 171.513 271.124 172.06C270.881 172.694 271.223 173.179 272.069 173.4C272.799 173.591 273.396 174.134 273.396 174.608C273.396 175.081 273.768 175.601 274.223 175.764C274.704 175.935 274.805 176.305 274.464 176.646C274.122 176.987 273.753 176.887 273.581 176.406C273.419 175.951 272.888 175.578 272.403 175.578C271.918 175.578 271.37 175.206 271.187 174.751C271.003 174.296 270.829 174.576 270.801 175.374C270.772 176.171 270.493 176.982 270.181 177.175C269.869 177.367 269.436 179.097 269.218 181.019C269 182.941 268.073 186.003 267.159 187.823C265.255 191.609 265.128 192.225 266.281 192.075C267.975 191.855 268.484 192.159 268.581 193.448C268.638 194.205 268.273 194.772 267.729 194.772C266.576 194.772 266.502 195.556 267.556 196.61C268.153 197.207 268.052 197.701 267.122 198.728C266.456 199.464 265.51 200.067 265.02 200.067C263.986 200.067 263.817 198.353 264.792 197.75C265.156 197.525 265.43 196.391 265.401 195.229L265.349 193.117L264.639 195.073C264.249 196.148 263.671 197.34 263.356 197.72C263.04 198.101 262.229 199.084 261.554 199.906C260.879 200.728 260.139 202.575 259.909 204.012C259.679 205.448 258.748 207.425 257.84 208.406C256.196 210.179 255.587 211.768 256.85 210.987C257.214 210.762 257.511 210.914 257.511 211.324C257.511 211.734 256.99 211.904 256.353 211.702C255.482 211.426 255.172 211.731 255.103 212.931C255.052 213.809 254.233 215.366 253.283 216.391C252.332 217.416 251.555 218.555 251.555 218.923C251.555 219.291 250.492 220.44 249.192 221.477C247.742 222.634 246.973 223.733 247.199 224.324C247.406 224.862 247.28 225.108 246.914 224.882C246.554 224.659 246.26 224.805 246.26 225.206C246.26 225.971 245.971 226.388 243.381 229.364C242.268 230.642 241.431 231.057 240.606 230.741C239.754 230.414 239.569 230.521 239.942 231.124C240.249 231.622 239.875 232.751 239.02 233.908C238.116 235.131 237.735 236.337 237.994 237.154C238.221 237.869 238.114 238.454 237.756 238.454C237.397 238.454 236.993 238.12 236.857 237.711C236.624 237.015 228.991 244.402 228.491 245.808C228.364 246.163 228.96 246.336 229.814 246.191C230.669 246.046 230.984 246.057 230.513 246.216C230.005 246.388 229.822 247.018 230.062 247.774C230.31 248.558 230.152 249.044 229.648 249.044C229.199 249.044 229.016 248.86 229.241 248.634C229.466 248.409 229.241 247.814 228.739 247.312C227.811 246.385 225.743 246.715 225.743 247.791C225.743 248.116 225.405 248.382 224.993 248.382C224.581 248.382 223.761 248.934 223.173 249.608C222.584 250.282 221.137 251.331 219.958 251.938C218.778 252.546 217.329 253.781 216.738 254.683C216.146 255.586 215.24 256.324 214.723 256.324C213.96 256.324 211.469 257.601 209.877 258.807C209.706 258.937 210.004 259.326 210.539 259.672C211.322 260.176 211.253 260.276 210.189 260.182C208.391 260.023 204.563 261.004 204.563 261.625C204.563 261.901 203.906 262.298 203.103 262.508C202.3 262.719 201.849 263.096 202.1 263.348C202.732 263.98 199.228 265.717 198.154 265.304C197.044 264.878 197.003 266.014 198.11 266.522C198.565 266.731 198.286 266.741 197.49 266.545C196.088 266.2 193.552 267.215 192.434 268.569C192.081 268.996 191.765 268.927 191.543 268.376C191.287 267.743 190.915 267.845 190.104 268.769C189.502 269.456 188.265 270.174 187.355 270.366C186.445 270.558 185.13 270.953 184.434 271.243C183.467 271.647 183.297 271.562 183.715 270.885C184.121 270.229 183.963 270.113 183.108 270.442C182.472 270.686 181.679 270.885 181.344 270.885C181.01 270.885 180.737 271.332 180.737 271.878C180.737 272.424 180.29 272.871 179.744 272.871C179.198 272.871 178.751 272.573 178.751 272.209C178.751 271.845 178.418 271.547 178.012 271.547C177.589 271.547 177.427 272.136 177.633 272.923C177.892 273.916 177.735 274.2 177.069 273.944C176.56 273.749 175.316 274.022 174.304 274.55C171.917 275.795 169.826 275.772 167.852 274.478C166.62 273.671 165.959 273.602 164.897 274.171C164.144 274.573 163.528 275.19 163.528 275.541C163.528 275.893 162.915 276.18 162.166 276.18C161.416 276.18 160.968 275.913 161.169 275.587C161.37 275.262 161.093 274.825 160.553 274.618C159.896 274.366 159.435 274.782 159.161 275.872C158.593 278.138 157.359 277.927 157.698 275.622L157.974 273.74L155.011 274.632C153.382 275.122 151.579 275.448 151.004 275.355C150.359 275.251 149.88 275.755 149.749 276.676C149.496 278.46 149.061 278.546 147.954 277.032C147.314 276.157 146.917 276.072 146.21 276.658C144.74 277.878 139.702 278.278 139.702 277.175H139.702ZM56.9703 255.662C56.9703 255.298 56.6549 255.001 56.2694 255.001C55.8839 255.001 55.7525 255.298 55.9775 255.662C56.2025 256.027 56.5179 256.324 56.6784 256.324C56.8389 256.324 56.9703 256.027 56.9703 255.662ZM152.608 225.135C176.855 224.662 178.846 224.402 185.364 220.854C191.139 217.711 193.145 213.613 191.054 209.232C188.73 204.364 181.294 201.586 164.852 199.446C158.846 198.664 153 197.882 151.861 197.707L149.79 197.39L149.508 191.497C149.255 186.202 149.001 185.247 147.006 182.081C142.918 175.595 142.895 175.507 143.294 168.144C143.497 164.406 143.833 158.221 144.041 154.399C144.25 150.577 144.699 147.167 145.039 146.821C145.947 145.899 145.794 143.737 144.737 142.538C144.23 141.963 143.613 139.978 143.366 138.125C142.967 135.134 143.103 134.536 144.585 132.775C146.44 130.57 146.311 127.925 144.349 127.925C142.979 127.925 141.687 122.557 141.687 116.86C141.687 114.395 141.238 112.515 140.231 110.765C138.914 108.477 138.855 107.987 139.615 105.67C140.078 104.259 140.51 99.8294 140.576 95.8252L140.695 88.5448L144.3 88.3811C146.283 88.291 148.204 87.9187 148.569 87.5537C148.934 87.1888 149.854 86.8902 150.614 86.8902C151.374 86.8902 152.977 86.0712 154.176 85.0701L156.356 83.25L149.849 83.1553C140.037 83.0124 140.511 83.1084 140.85 81.3341C141.014 80.4792 140.681 78.8779 140.111 77.7758C139.2 76.0137 139.193 75.6742 140.05 74.9624C141.343 73.8891 141.283 72.3872 139.884 70.8417C138.809 69.653 138.808 69.4681 139.868 67.6203C140.676 66.2119 140.883 64.8551 140.601 62.8014C140.315 60.7106 140.512 59.4809 141.336 58.223C141.956 57.2771 142.267 56.1862 142.028 55.7987C141.788 55.4112 142.358 54.1839 143.294 53.0714C146.349 49.4418 145.906 49.1646 137.054 49.1646C128.209 49.1646 127.761 49.4432 130.802 53.0571C131.732 54.1618 132.414 55.4504 132.318 55.9208C132.222 56.3911 132.538 57.4907 133.021 58.3643C133.58 59.3766 133.756 60.9875 133.507 62.8063C133.226 64.8548 133.433 66.213 134.241 67.6203C135.301 69.4681 135.3 69.653 134.225 70.8417C132.877 72.3311 132.802 73.2203 133.879 74.945C134.511 75.9573 134.479 76.5848 133.721 78.0008C133.196 78.9809 132.859 80.4885 132.973 81.351L133.178 82.9191H125.769C119.042 82.9191 118.442 83.0169 119.242 83.9817C120.544 85.5502 126.965 88.2139 129.444 88.2139C130.629 88.2139 131.912 88.5928 132.296 89.056C132.681 89.5191 133.142 93.1676 133.322 97.1637C133.502 101.16 133.852 105.881 134.101 107.654C134.4 109.786 134.301 111.035 133.808 111.34C133.387 111.6 132.885 114.656 132.652 118.373C132.426 121.989 131.94 125.328 131.572 125.793C131.095 126.397 131.311 127.074 132.324 128.153C133.653 129.567 134.219 131.234 133.37 131.234C133.163 131.234 132.009 130.266 130.805 129.083C126.88 125.227 124.671 123.881 122.97 124.308C122.068 124.534 119.568 124.079 117.143 123.246C112.433 121.63 106.878 121.447 102.408 122.763C98.3173 123.966 92.6557 129.865 90.7795 134.879C86.2546 146.971 87.4122 155.323 96.5123 176.24C101.298 187.241 101.554 188.077 101.598 192.893C101.624 195.682 101.435 198.176 101.179 198.434C100.922 198.693 97.4971 199.438 93.5675 200.09C85.2511 201.47 81.7095 202.639 78.1505 205.18C73.7367 208.331 73.0333 211.561 76.1835 214.212C78.6055 216.25 81.7246 216.919 85.9307 216.302C92.4763 215.343 97.9047 211.881 101.652 206.276C104.296 202.321 104.46 202.269 116.026 201.673L124.148 201.255L121.997 203.342C118.055 207.167 119.466 212.531 124.69 213.579C132.629 215.171 148.139 214.433 151.382 212.308C152.683 211.456 152.939 210.728 152.939 207.881C152.939 205.639 152.564 204.059 151.843 203.263C150.463 201.737 150.164 201.743 163.588 203.031C176.829 204.301 181.436 205.653 185.866 209.57C189.327 212.631 186.314 216.318 178.751 218.28C174.486 219.386 163.54 220.419 158.961 220.147C128.325 218.329 119.329 218.308 114.256 220.041C112.052 220.793 109.654 221.483 108.926 221.574C106.918 221.824 106.864 221.879 107.933 222.57C108.479 222.923 109.759 223.216 110.779 223.222C111.798 223.227 113.559 223.711 114.692 224.297C116.724 225.348 128.141 226.605 129.443 225.921C129.807 225.73 140.231 225.377 152.608 225.135ZM81.4623 212.071C76.5242 210.636 81.9318 206.676 92.203 204.205C95.8277 203.334 98.9698 202.797 99.1853 203.012C99.4008 203.228 98.2849 204.721 96.7055 206.33C92.488 210.627 85.5223 213.251 81.4623 212.071ZM105.783 192.63C105.469 187.766 104.88 185.807 100.453 174.917C93.158 156.968 92.5092 154.5 92.8366 145.935C93.0677 139.89 93.3761 138.289 94.9312 135.064C97.008 130.757 101.635 126.306 104.664 125.7C105.832 125.466 107.63 125.687 108.906 126.22C110.124 126.728 113.158 127.358 115.649 127.618C118.139 127.878 121.031 128.526 122.075 129.058C123.118 129.59 124.581 129.865 125.325 129.671C127.317 129.15 128.937 130.283 130.455 133.258C131.646 135.591 131.71 136.226 131.007 138.696C130.569 140.234 129.707 142.089 129.091 142.817C128.123 143.961 128.053 144.857 128.571 149.435C128.901 152.347 129.514 156.07 129.933 157.708C130.353 159.346 130.712 163.972 130.731 167.986L130.767 175.286L127.798 180.198C125.041 184.758 124.805 185.514 124.489 190.768L124.148 196.427L119.184 196.859C116.454 197.097 112.401 197.473 110.178 197.695L106.135 198.099L105.783 192.63ZM242.11 40.8225C241.89 40.6026 241.319 40.5791 240.841 40.7703C240.313 40.9816 240.47 41.1384 241.241 41.1702C241.939 41.1989 242.33 41.0425 242.11 40.8225V40.8225ZM0.71285 276.842C0.71285 276.478 1.02826 276.18 1.41377 276.18C1.79927 276.18 1.93062 276.478 1.70562 276.842C1.48065 277.206 1.16524 277.504 1.00473 277.504C0.844192 277.504 0.71285 277.206 0.71285 276.842ZM86.543 274.6C86.2959 273.956 86.5712 273.782 87.465 274.016C88.9304 274.399 89.1928 275.518 87.8172 275.518C87.3101 275.518 86.7367 275.105 86.543 274.6ZM138.43 273.146C138.462 272.375 138.619 272.219 138.83 272.747C139.021 273.224 138.998 273.795 138.778 274.015C138.558 274.235 138.402 273.844 138.43 273.146H138.43ZM102.638 271.839C102.638 271.271 102.936 270.991 103.3 271.216C103.664 271.441 103.962 271.905 103.962 272.248C103.962 272.59 103.664 272.871 103.3 272.871C102.936 272.871 102.638 272.406 102.638 271.839ZM57.6321 260.295C57.6321 259.931 57.93 259.634 58.294 259.634C58.658 259.634 58.9558 259.931 58.9558 260.295C58.9558 260.659 58.658 260.957 58.294 260.957C57.93 260.957 57.6321 260.659 57.6321 260.295ZM223.095 251.671C223.095 251.318 223.542 251.03 224.088 251.03C224.634 251.03 225.081 251.147 225.081 251.29C225.081 251.433 224.634 251.721 224.088 251.931C223.542 252.14 223.095 252.023 223.095 251.671ZM37.7766 242.425C37.7766 242.061 38.0744 241.764 38.4384 241.764C38.8024 241.764 39.1003 242.061 39.1003 242.425C39.1003 242.789 38.8024 243.087 38.4384 243.087C38.0744 243.087 37.7766 242.789 37.7766 242.425ZM236.351 239.804C235.816 239.465 235.55 239.016 235.761 238.805C235.971 238.595 236.52 238.876 236.981 239.431C237.936 240.582 237.752 240.69 236.351 239.804ZM242.289 232.498C242.289 232.134 242.587 231.836 242.951 231.836C243.315 231.836 243.613 232.134 243.613 232.498C243.613 232.862 243.315 233.16 242.951 233.16C242.587 233.16 242.289 232.862 242.289 232.498ZM245.65 230.788C245.682 230.017 245.839 229.86 246.05 230.388C246.241 230.866 246.218 231.437 245.998 231.657C245.778 231.876 245.622 231.486 245.65 230.788H245.65ZM244.936 228.527C244.936 228.163 245.234 227.865 245.598 227.865C245.962 227.865 246.26 228.163 246.26 228.527C246.26 228.891 245.962 229.188 245.598 229.188C245.234 229.188 244.936 228.891 244.936 228.527ZM250.893 224.225C250.893 223.678 251.181 223.232 251.534 223.232C251.887 223.232 252.004 223.678 251.794 224.225C251.585 224.771 251.296 225.217 251.153 225.217C251.01 225.217 250.893 224.771 250.893 224.225ZM22.554 224.02C22.554 223.664 23.0256 223.192 23.6021 222.971C24.2466 222.724 24.5492 222.872 24.388 223.355C24.0582 224.345 22.554 224.889 22.554 224.02ZM13.9499 210.657C13.9499 210.293 14.2477 209.995 14.6117 209.995C14.9758 209.995 15.2736 210.293 15.2736 210.657C15.2736 211.021 14.9758 211.318 14.6117 211.318C14.2477 211.318 13.9499 211.021 13.9499 210.657ZM264.13 205.323C264.13 204.937 264.428 204.806 264.792 205.031C265.156 205.256 265.454 205.571 265.454 205.732C265.454 205.892 265.156 206.024 264.792 206.024C264.428 206.024 264.13 205.708 264.13 205.323ZM264.13 202.052C264.13 201.688 264.428 201.391 264.792 201.391C265.156 201.391 265.454 201.688 265.454 202.052C265.454 202.416 265.156 202.714 264.792 202.714C264.428 202.714 264.13 202.416 264.13 202.052ZM269.425 186.869C269.425 186.162 269.697 185.416 270.03 185.21C270.755 184.762 271.339 186.163 270.911 187.326C270.438 188.612 269.425 188.3 269.425 186.869ZM272.734 180.487C272.734 179.911 273.088 179.557 273.52 179.701C274.747 180.11 274.951 181.535 273.782 181.535C273.206 181.535 272.734 181.063 272.734 180.487ZM272.9 171.941C271.753 170.639 271.86 170.284 273.396 170.284C274.278 170.284 274.72 170.725 274.72 171.607C274.72 173.148 274.068 173.268 272.9 171.941ZM275.823 144.03C275.061 143.269 275.341 142.486 276.374 142.486C276.92 142.486 277.367 142.933 277.367 143.479C277.367 144.512 276.584 144.792 275.823 144.03ZM276.043 125.939C276.043 125.575 276.359 125.278 276.744 125.278C277.13 125.278 277.261 125.575 277.036 125.939C276.811 126.303 276.496 126.601 276.335 126.601C276.175 126.601 276.043 126.303 276.043 125.939ZM276.043 117.997C276.043 117.633 276.341 117.335 276.705 117.335C277.069 117.335 277.367 117.633 277.367 117.997C277.367 118.361 277.069 118.659 276.705 118.659C276.341 118.659 276.043 118.361 276.043 117.997ZM2.75066 110.993C2.78241 110.222 2.93925 110.065 3.15053 110.593C3.34173 111.071 3.31822 111.641 3.09828 111.861C2.87836 112.081 2.72193 111.69 2.75066 110.993ZM2.03656 104.76C2.03656 104.396 2.33439 104.098 2.69842 104.098C3.06243 104.098 3.36027 104.396 3.36027 104.76C3.36027 105.124 3.06243 105.422 2.69842 105.422C2.33439 105.422 2.03656 105.124 2.03656 104.76ZM4.02211 103.106C4.02211 102.56 4.31996 102.113 4.68396 102.113C5.04799 102.113 5.34582 102.56 5.34582 103.106C5.34582 103.652 5.04799 104.098 4.68396 104.098C4.31996 104.098 4.02211 103.652 4.02211 103.106ZM5.49748 90.7372C5.90657 89.51 7.33137 89.3064 7.33137 90.4752C7.33137 91.0516 6.85981 91.5232 6.28344 91.5232C5.70709 91.5232 5.3534 91.1695 5.49748 90.7372ZM267.439 78.2861C267.439 77.9221 267.737 77.6243 268.101 77.6243C268.465 77.6243 268.763 77.9221 268.763 78.2861C268.763 78.6501 268.465 78.948 268.101 78.948C267.737 78.948 267.439 78.6501 267.439 78.2861ZM265.785 76.9624C265.56 76.5984 265.691 76.3006 266.076 76.3006C266.462 76.3006 266.777 76.5984 266.777 76.9624C266.777 77.3264 266.646 77.6243 266.486 77.6243C266.325 77.6243 266.01 77.3264 265.785 76.9624ZM27.1869 52.4302C27.1869 51.5542 28.3116 51.1154 29.4437 51.5498C31.0433 52.1636 30.7013 52.9703 28.8416 52.9703C27.9315 52.9703 27.1869 52.7273 27.1869 52.4302ZM33.1436 45.8554C32.6187 45.5309 32.4089 45.0458 32.6774 44.7772C32.946 44.5087 33.5131 44.6365 33.9378 45.0611C34.9378 46.0611 34.3797 46.6193 33.1436 45.8554ZM38.1358 39.9444C37.9263 39.6056 38.0265 39.1605 38.3583 38.9555C38.6901 38.7504 39.1324 39.0276 39.3411 39.5716C39.7525 40.6439 38.7581 40.9515 38.1358 39.9444ZM240.984 38.6008C240.449 38.2622 240.183 37.813 240.393 37.6026C240.915 37.0813 242.951 37.9118 242.951 38.6458C242.951 39.4002 242.222 39.3835 240.984 38.6008ZM42.4095 33.2802C42.4095 32.9162 42.7074 32.6183 43.0714 32.6183C43.4354 32.6183 43.7332 32.9162 43.7332 33.2802C43.7332 33.6442 43.4354 33.942 43.0714 33.942C42.7074 33.942 42.4095 33.6442 42.4095 33.2802ZM49.0281 27.3235C49.0281 26.9595 49.3435 26.6617 49.729 26.6617C50.1145 26.6617 50.2458 26.9595 50.0208 27.3235C49.7959 27.6875 49.4804 27.9854 49.3199 27.9854C49.1594 27.9854 49.0281 27.6875 49.0281 27.3235ZM59.6177 20.705C59.6177 20.341 59.9155 20.0431 60.2795 20.0431C60.6436 20.0431 60.9414 20.341 60.9414 20.705C60.9414 21.069 60.6436 21.3668 60.2795 21.3668C59.9155 21.3668 59.6177 21.069 59.6177 20.705ZM210.086 16.3744C209.55 14.9777 210.445 14.2236 211.208 15.4293C212.018 16.7105 212.002 17.3957 211.161 17.3957C210.786 17.3957 210.302 16.9361 210.087 16.3744H210.086ZM215.163 16.8993C215.181 15.9935 216.398 14.4494 216.787 14.8382C217.309 15.3596 216.478 17.3957 215.744 17.3957C215.419 17.3957 215.157 17.1724 215.163 16.8993ZM212.843 15.3994C213.072 15.0294 213.536 14.8981 213.875 15.1075C214.793 15.6749 214.622 16.072 213.459 16.072C212.892 16.072 212.614 15.7693 212.843 15.3994ZM206.218 14.7483C205.993 14.3843 206.124 14.0865 206.51 14.0865C206.895 14.0865 207.211 14.3843 207.211 14.7483C207.211 15.1123 207.079 15.4102 206.919 15.4102C206.758 15.4102 206.443 15.1123 206.218 14.7483ZM76.8258 10.1154C76.8258 9.75134 77.1237 9.45351 77.4877 9.45351C77.8517 9.45351 78.1496 9.75134 78.1496 10.1154C78.1496 10.4794 77.8517 10.7772 77.4877 10.7772C77.1237 10.7772 76.8258 10.4794 76.8258 10.1154ZM163.198 3.49684C163.423 3.13282 163.738 2.83499 163.898 2.83499C164.059 2.83499 164.19 3.13282 164.19 3.49684C164.19 3.86086 163.875 4.15869 163.489 4.15869C163.104 4.15869 162.973 3.86086 163.198 3.49684ZM174.514 3.67185C173.717 2.87514 174.152 2.17314 175.442 2.17314C176.17 2.17314 176.766 2.4391 176.766 2.76418C176.766 3.50812 175.044 4.20207 174.514 3.67185ZM88.7392 2.79593C88.7392 2.41042 89.037 2.27909 89.401 2.50406C89.765 2.72904 90.0629 3.04445 90.0629 3.20497C90.0629 3.3655 89.765 3.49684 89.401 3.49684C89.037 3.49684 88.7392 3.18143 88.7392 2.79593ZM168.823 2.79593C168.823 2.41042 169.121 2.27909 169.485 2.50406C169.849 2.72904 170.147 3.04445 170.147 3.20497C170.147 3.3655 169.849 3.49684 169.485 3.49684C169.121 3.49684 168.823 3.18143 168.823 2.79593ZM188.017 1.89074C188.017 1.27678 188.583 0.849431 189.396 0.849431C191.009 0.849431 190.781 2.39603 189.12 2.71805C188.467 2.84471 188.017 2.50708 188.017 1.89074ZM139.04 0.849431C139.04 0.485412 139.338 0.187579 139.702 0.187579C140.066 0.187579 140.364 0.485412 140.364 0.849431C140.364 1.21345 140.066 1.51128 139.702 1.51128C139.338 1.51128 139.04 1.21345 139.04 0.849431Z" fill="black"/>
</svg>
