<svg width="278" height="278" viewBox="0 0 278 278" fill="none" xmlns="http://www.w3.org/2000/svg">
<path d="M140.098 277.317C141.253 276.161 140.403 272.683 138.965 272.683C138.278 272.683 137.716 273.124 137.716 273.663C137.716 274.202 137.046 274.782 136.227 274.951C132.795 275.66 130.009 275.777 128.292 275.285C127.219 274.977 126.465 275.018 126.465 275.384C126.465 276.051 123.257 275.75 117.033 274.499C114.94 274.078 113.228 273.4 113.228 272.992C113.228 272.549 112.448 272.365 111.289 272.535C109.891 272.74 109.457 273.098 109.734 273.818C110.049 274.641 109.72 274.732 107.867 274.334C104.806 273.677 104.507 273.432 104.973 271.962C105.249 271.094 104.995 270.548 104.173 270.239C103.511 269.99 102.621 269.322 102.196 268.754C101.77 268.186 101.274 267.87 101.092 268.052C100.588 268.555 102.12 274.669 102.749 274.669C103.052 274.669 103.3 274.966 103.3 275.33C103.3 277.074 90.2939 274.883 89.2026 272.956C88.4836 271.686 86.6863 271.738 87.176 273.014C87.702 274.385 87.0026 274.256 85.4417 272.695C84.3905 271.644 83.7964 271.51 82.4515 272.021C80.4535 272.781 79.0799 271.679 77.2691 267.863C76.6271 266.51 75.669 265.403 75.1401 265.403C74.6111 265.403 74.1783 265.152 74.1783 264.845C74.1783 264.538 73.1892 263.755 71.9803 263.104C70.2374 262.165 69.4937 262.074 68.3881 262.666C66.7623 263.536 64.9124 263.018 64.9124 261.692C64.9124 260.404 66.0371 260.541 66.8449 261.928C67.2696 262.657 67.527 262.762 67.5397 262.212C67.5637 261.167 65.9578 259.446 64.9597 259.446C64.5697 259.446 64.2505 259.874 64.2505 260.398C64.2505 260.923 63.69 261.307 62.9996 261.255C62.2687 261.2 61.8854 260.804 62.0776 260.303C62.2586 259.832 62.0594 259.446 61.6349 259.446C61.2105 259.446 61.0473 259.148 61.2722 258.784C61.5169 258.388 60.6679 258.114 59.1603 258.101C56.4631 258.079 54.8371 257.175 54.1371 255.309C53.898 254.672 53.2464 254.151 52.6889 254.151C52.1315 254.151 51.6754 253.899 51.6754 253.591C51.6754 252.515 49.1947 250.18 48.0522 250.18C47.3366 250.18 47.0355 249.829 47.2567 249.253C47.4714 248.693 47.082 248.186 46.2754 247.975C45.2629 247.71 45.0458 247.287 45.3813 246.23C45.7779 244.98 45.6281 244.877 43.9514 245.244C42.5172 245.558 42.3111 245.489 43.0713 244.949C43.9012 244.359 43.8331 244.242 42.6559 244.234C40.9974 244.222 39.4732 242.622 39.9462 241.389C40.1449 240.871 39.7544 240.484 38.9746 240.425C37.3051 240.299 35.6479 238.932 36.0125 237.982C36.1675 237.578 35.4055 236.509 34.3193 235.606C33.233 234.703 31.417 233.071 30.2837 231.979C29.1504 230.887 28.0007 230.064 27.7288 230.151C27.4569 230.238 27.3957 229.888 27.5928 229.375C27.7898 228.861 27.3137 227.804 26.5348 227.025C25.7559 226.246 25.2354 225.258 25.3783 224.83C25.5212 224.401 24.9441 223.505 24.096 222.837C23.2478 222.17 22.5539 221.15 22.5539 220.57C22.5539 219.99 22.0998 219.043 21.5448 218.467C19.8506 216.707 17.2591 212.453 17.2591 211.432C17.2591 210.902 17.0086 210.469 16.7024 210.469C16.3963 210.469 15.3065 208.384 14.2807 205.836C13.2549 203.288 12.1913 201.203 11.9172 201.203C11.643 201.203 11.2073 199.952 10.9489 198.422C10.6905 196.893 9.90795 194.309 9.20987 192.68C8.51179 191.052 8.09201 189.325 8.27704 188.843C8.46206 188.36 8.26539 187.966 7.83999 187.966C7.25125 187.966 7.25072 187.782 7.83774 187.195C8.42476 186.608 8.33783 186.203 7.47372 185.499C6.61543 184.799 6.54696 184.487 7.19305 184.22C7.82628 183.958 7.72131 183.583 6.78771 182.772C6.09478 182.171 5.33795 180.562 5.10586 179.196C4.87377 177.831 4.50237 175.672 4.28054 174.398C4.0587 173.124 3.6302 172.082 3.32831 172.082C3.02642 172.082 2.57469 170.667 2.32446 168.938C2.07422 167.209 1.62356 165.483 1.32297 165.103C0.62027 164.214 1.06065 159.344 2.00296 157.583C2.46743 156.716 2.50815 155.805 2.1161 155.054C1.14241 153.189 -0.302321 147.957 0.0558301 147.593C0.235134 147.411 0.67967 147.358 1.04369 147.475C1.40771 147.592 1.33325 147.309 0.878224 146.846C0.423202 146.383 0.0509097 145.134 0.0509097 144.07C0.0509097 142.597 0.248215 142.3 0.878224 142.824C1.52604 143.362 1.65458 142.788 1.47067 140.176C1.3091 137.881 1.46163 136.979 1.95948 137.287C2.40567 137.562 2.53817 137.356 2.30504 136.749C2.09707 136.207 1.50482 135.925 0.988915 136.123C0.346521 136.37 0.0509097 136.002 0.0509097 134.956C0.0509097 133.769 0.227404 133.606 0.845133 134.224C1.92607 135.305 2.69832 135.222 2.69832 134.025C2.69832 133.479 2.25157 133.032 1.70554 133.032C0.943407 133.032 0.712761 132.187 0.712761 129.392C0.712761 127.39 0.938283 125.752 1.21392 125.752C1.48956 125.752 1.60982 124.428 1.48118 122.811C1.2342 119.706 2.38081 115.162 3.4115 115.162C3.74729 115.162 4.02202 113.971 4.02202 112.515C4.02202 110.032 4.91472 108.905 5.4974 110.653C5.64149 111.086 5.75938 109.481 5.75938 107.086C5.75938 104.076 6.1122 102.195 6.90377 100.987C7.53318 100.026 7.87646 98.9626 7.66661 98.6231C7.45677 98.2835 8.04249 95.6867 8.96822 92.8524C9.9675 89.7928 10.3803 87.6086 9.9841 87.4766C9.61711 87.3543 9.31501 86.7578 9.31276 86.1511C9.31051 85.5444 8.88143 84.229 8.35923 83.2279C7.33936 81.2728 7.70076 80.755 8.92071 82.4233C9.52683 83.2523 9.66185 83.0545 9.65552 81.347C9.65088 80.0939 10.0995 78.9663 10.7743 78.5348C12.2195 77.6106 12.9121 78.2994 12.1086 79.8619C11.765 80.5302 11.3214 82.4171 11.1227 84.0552C10.9241 85.6933 10.9051 86.5123 11.0805 85.8753C11.2559 85.2383 11.6278 84.7171 11.9068 84.7171C12.1859 84.7171 12.8145 83.5043 13.3037 82.022C13.7929 80.5397 14.7322 78.9493 15.391 78.4879C16.0498 78.0264 16.3921 77.4522 16.1518 77.2119C15.9114 76.9715 16.036 76.7748 16.4287 76.7748C16.8214 76.7748 17.3541 75.509 17.6125 73.962C18.138 70.8155 20.1738 67.5089 21.5854 67.5089C22.0952 67.5089 22.3634 67.1209 22.1814 66.6466C21.5741 65.0639 23.7418 61.261 27.4689 57.3706C29.4979 55.2526 31.158 53.2138 31.158 52.8397C31.158 51.7762 33.3599 48.3152 34.0365 48.3152C35.2997 48.3152 37.7649 44.6884 37.3628 43.4215C37.0533 42.4465 37.2092 42.2532 38.046 42.5743C39.034 42.9535 41.7476 41.0326 41.7476 39.9541C41.7476 39.367 49.8718 31.7689 50.4995 31.7689C50.7822 31.7689 51.0135 31.3222 51.0135 30.7761C51.0135 30.2301 51.3858 29.7786 51.8408 29.7728C52.2959 29.767 53.6765 28.8735 54.9089 27.7872C56.1412 26.701 57.3326 25.8109 57.5563 25.8092C57.78 25.8076 58.8565 24.9884 59.9485 23.9891C61.0406 22.9897 63.4164 21.3734 65.2282 20.3973C68.1211 18.8388 70.0268 16.986 68.4492 17.2658C66.9681 17.5286 65.5379 17.1406 65.8895 16.5716C66.133 16.1777 66.884 16.1635 67.8598 16.5345C69.6972 17.2331 72.1928 17.1587 72.1928 16.4055C72.1928 16.1189 72.6531 15.8844 73.2156 15.8844C73.7782 15.8844 74.9831 15.1399 75.8931 14.2298C77.7338 12.3891 78.5562 12.1699 78.9965 13.4025C79.4491 14.6699 80.3005 13.4996 80.3005 11.61C80.3005 10.6848 80.5786 9.92778 80.9186 9.92778C81.2587 9.92778 81.3215 10.2762 81.0583 10.7021C80.732 11.23 80.9474 11.3353 81.7352 11.033C82.3707 10.7892 83.3037 10.5896 83.8085 10.5896C84.3134 10.5896 84.6357 10.2173 84.5247 9.76232C84.4138 9.30729 84.448 9.15838 84.6007 9.43139C85.0693 10.2693 87.4154 9.98096 87.4154 9.08548C87.4154 8.62222 88.7556 7.93223 90.3937 7.55218C92.0318 7.17212 93.372 7.07652 93.372 7.33973C93.372 7.60295 93.9677 7.66253 94.6957 7.47214C95.4238 7.28176 96.0195 6.84531 96.0195 6.50227C96.0195 6.15922 95.7216 6.06262 95.3576 6.28759C94.9936 6.51257 94.6957 6.34937 94.6957 5.92492C94.6957 5.50047 95.068 5.29311 95.5231 5.46411C98.8762 6.72424 99.3287 6.70941 99.3287 5.33942C99.3287 3.84331 100.361 3.47513 100.845 4.79843C101.053 5.36666 101.596 5.1594 102.58 4.13658C104.616 2.02084 108.207 2.10206 109.645 4.29636C110.897 6.20774 112.145 5.85118 111.557 3.74995C111.288 2.79029 111.353 2.60029 111.754 3.17513C112.234 3.86458 112.519 3.83198 113.202 3.00966C113.669 2.4464 114.685 1.99012 115.46 1.99569C116.611 2.00398 116.687 2.12265 115.875 2.64741C115.019 3.20032 115.037 3.29039 116.001 3.29913C116.617 3.3047 117.305 3.01143 117.53 2.64741C118.357 1.3081 119.324 2.00183 118.912 3.64019C118.673 4.59434 118.783 5.29482 119.172 5.29482C119.543 5.29482 119.846 5.03229 119.846 4.71142C119.846 4.39055 121.255 3.66433 122.976 3.0976C125.352 2.31534 126.227 2.2566 126.606 2.85368C126.95 3.39454 127.109 3.40843 127.116 2.89814C127.122 2.49001 128.69 1.91878 130.601 1.62874C137.632 0.56166 137.095 0.383194 136.772 3.67961C136.525 6.20823 136.657 6.61852 137.718 6.61852C138.396 6.61852 139.14 6.02285 139.371 5.29482C139.713 4.21557 140.424 3.95175 143.221 3.86625C147.882 3.72375 149.259 3.8957 149.519 4.65247C149.862 5.65107 150.953 5.40818 150.953 4.33322C150.953 3.56353 151.647 3.45163 154.428 3.77252C156.339 3.99301 158.052 4.39839 158.235 4.67337C158.418 4.94834 159.684 5.38272 161.048 5.63865C162.412 5.89459 163.528 6.31709 163.528 6.57755C163.528 6.83801 164.473 6.91251 165.627 6.74311C167.466 6.47314 167.589 6.33527 166.62 5.62653C164.876 4.35176 165.33 3.95351 167.334 4.99906C168.335 5.52126 169.656 5.95035 170.268 5.95259C170.983 5.9552 171.458 6.59423 171.592 7.73251C171.746 9.03716 172.395 9.7493 174.037 10.4164C176.06 11.238 176.233 11.2205 175.855 10.2337C174.651 7.09776 174.654 5.96346 175.868 5.51472C176.544 5.26487 177.309 4.74089 177.569 4.35032C178.098 3.55649 185.369 3.35723 185.369 4.13658C185.37 4.40959 184.848 4.66419 184.211 4.70236C183.574 4.74053 184.095 5.11282 185.37 5.52968C186.644 5.94653 188.033 6.51283 188.457 6.78811C188.881 7.06339 189.379 6.91447 189.565 6.45718C189.826 5.81314 190.047 5.83352 190.546 6.54761C190.938 7.10797 192.381 7.46947 194.227 7.46947C196.981 7.46947 197.388 7.67952 198.597 9.72924C199.33 10.9721 199.93 12.3971 199.93 12.8959C199.93 14.0668 206.793 17.3268 208.157 16.8036C208.887 16.5234 209.196 16.7966 209.196 17.722C209.196 19.2398 211.854 20.2486 212.613 19.0192C212.964 18.4516 213.654 18.6428 215.092 19.706C216.188 20.5163 217.841 21.1793 218.766 21.1793C220.035 21.1793 220.448 21.5216 220.448 22.5738C220.448 23.5052 220.759 23.8488 221.386 23.6083C221.902 23.4104 222.488 23.6763 222.689 24.1994C222.889 24.7224 223.435 25.1523 223.902 25.1546C224.368 25.1569 225.257 26.0504 225.877 27.1401C226.504 28.2418 227.559 29.1215 228.253 29.1215C228.942 29.1215 229.839 29.8626 230.255 30.7761C230.67 31.6862 231.537 32.4402 232.181 32.4518C233.24 32.4708 233.226 32.5712 232.03 33.4882C230.768 34.4567 230.795 34.4818 232.625 34.0325C233.992 33.6969 234.409 33.7796 234.075 34.3198C233.818 34.7369 233.919 35.0782 234.3 35.0782C235.338 35.0782 237.656 37.2365 237.656 38.2036C237.656 38.6687 238.112 39.0493 238.669 39.0493C239.227 39.0493 239.854 39.496 240.064 40.0421C240.273 40.5881 241.029 41.0348 241.742 41.0348C242.706 41.0348 242.939 41.3515 242.649 42.2653C242.038 44.1902 242.888 45.5489 244.992 46.011C246.263 46.2902 247.054 46.9576 247.307 47.9645C247.518 48.8056 248.56 50.3268 249.623 51.3448C250.685 52.3629 251.555 53.7533 251.555 54.4348C251.555 55.1162 251.853 55.4896 252.217 55.2646C252.581 55.0397 252.878 55.2292 252.878 55.6858C252.878 56.1423 253.697 57.3973 254.699 58.4746C255.7 59.5519 256.115 60.2016 255.623 59.9185C255.015 59.5691 255.086 59.9521 255.845 61.1107C256.46 62.0496 256.771 63.1287 256.537 63.5087C256.302 63.8887 256.574 64.1997 257.141 64.1997C257.709 64.1997 258.173 64.5294 258.173 64.9323C258.173 65.3353 258.57 65.5126 259.056 65.3263C259.541 65.1401 259.938 65.4001 259.938 65.9041C259.938 67.7376 261.712 72.4977 262.756 73.4656C263.345 74.0116 264.229 75.7986 264.721 77.4367C267.163 85.5657 267.714 87.0721 268.552 87.9103C269.139 88.4966 269.349 89.7301 269.148 91.4001C268.977 92.8207 269.118 93.983 269.462 93.983C269.805 93.983 270.087 94.7276 270.087 95.6376C270.087 96.5477 270.384 97.2923 270.748 97.2923C271.112 97.2923 271.41 98.3099 271.41 99.5536C271.41 100.797 271.704 101.914 272.062 102.036C272.713 102.256 273.756 106.385 274.497 111.674C274.712 113.214 275.148 114.313 275.466 114.117C275.783 113.921 276.043 114.374 276.043 115.123C276.043 115.873 275.797 116.486 275.496 116.486C275.195 116.486 275.067 117.305 275.211 118.306C275.355 119.307 275.205 120.842 274.878 121.717C274.248 123.406 275.186 127.145 276.594 128.553C277.618 129.577 277.583 132.173 276.54 132.594C275.878 132.861 275.878 132.938 276.54 132.98C277.799 133.06 277.581 136.342 276.317 136.342C275.489 136.342 275.314 136.934 275.49 139.154C275.649 141.166 275.473 141.919 274.871 141.797C274.295 141.681 274.155 142.126 274.428 143.214C274.648 144.087 274.5 145.003 274.101 145.25C273.701 145.497 273.549 145.981 273.762 146.326C273.975 146.671 274.429 146.78 274.77 146.569C275.112 146.358 275.876 146.67 276.469 147.262C277.335 148.129 277.398 148.621 276.788 149.786C276.372 150.582 275.773 153.839 275.458 157.023C275.142 160.207 274.576 163.185 274.199 163.641C273.822 164.097 273.567 165.587 273.632 166.952C273.76 169.65 273.156 170.021 271.33 168.369C270.214 167.358 270.188 167.429 270.83 169.753C271.201 171.1 271.334 172.649 271.124 173.196C270.881 173.83 271.223 174.315 272.069 174.536C272.799 174.727 273.396 175.271 273.396 175.744C273.396 176.217 273.768 176.737 274.223 176.9C274.704 177.072 274.805 177.441 274.464 177.782C274.122 178.124 273.753 178.023 273.581 177.542C273.419 177.087 272.888 176.715 272.403 176.715C271.918 176.715 271.37 176.342 271.187 175.887C271.003 175.432 270.829 175.712 270.801 176.51C270.772 177.308 270.493 178.118 270.181 178.311C269.869 178.503 269.436 180.234 269.218 182.155C269 184.077 268.073 187.139 267.159 188.959C265.255 192.745 265.128 193.361 266.281 193.211C267.975 192.991 268.484 193.295 268.581 194.585C268.638 195.341 268.273 195.908 267.729 195.908C266.576 195.908 266.502 196.692 267.556 197.746C268.153 198.343 268.052 198.837 267.122 199.864C266.456 200.6 265.51 201.203 265.02 201.203C263.986 201.203 263.817 199.489 264.792 198.887C265.156 198.662 265.43 197.527 265.401 196.366L265.349 194.254L264.639 196.209C264.249 197.284 263.671 198.476 263.356 198.856C263.04 199.237 262.229 200.221 261.554 201.042C260.879 201.864 260.139 203.711 259.909 205.148C259.679 206.584 258.748 208.562 257.84 209.542C256.196 211.315 255.587 212.904 256.85 212.124C257.214 211.899 257.511 212.05 257.511 212.46C257.511 212.87 256.99 213.04 256.353 212.838C255.482 212.562 255.172 212.867 255.103 214.068C255.052 214.945 254.233 216.502 253.283 217.527C252.332 218.552 251.555 219.691 251.555 220.059C251.555 220.427 250.492 221.576 249.192 222.613C247.742 223.77 246.972 224.869 247.199 225.46C247.406 225.998 247.28 226.244 246.914 226.018C246.554 225.795 246.26 225.941 246.26 226.342C246.26 227.107 245.971 227.525 243.381 230.5C242.268 231.778 241.431 232.193 240.606 231.877C239.754 231.55 239.569 231.657 239.942 232.261C240.249 232.758 239.875 233.887 239.02 235.044C238.116 236.267 237.735 237.473 237.994 238.29C238.221 239.005 238.114 239.59 237.756 239.59C237.397 239.59 236.993 239.256 236.857 238.847C236.624 238.151 228.991 245.538 228.491 246.944C228.364 247.299 228.96 247.472 229.814 247.327C230.669 247.182 230.984 247.194 230.513 247.352C230.005 247.524 229.822 248.154 230.062 248.91C230.31 249.694 230.152 250.18 229.648 250.18C229.199 250.18 229.016 249.996 229.241 249.77C229.466 249.545 229.241 248.95 228.739 248.449C227.811 247.521 225.743 247.851 225.743 248.927C225.743 249.252 225.405 249.518 224.993 249.518C224.581 249.518 223.761 250.07 223.173 250.744C222.584 251.418 221.137 252.467 219.958 253.074C218.778 253.682 217.329 254.917 216.738 255.82C216.146 256.722 215.24 257.46 214.723 257.46C213.96 257.46 211.469 258.737 209.877 259.944C209.706 260.074 210.004 260.462 210.539 260.808C211.322 261.312 211.253 261.413 210.189 261.318C208.391 261.159 204.563 262.141 204.563 262.761C204.563 263.037 203.906 263.435 203.103 263.645C202.3 263.855 201.849 264.232 202.1 264.484C202.732 265.116 199.228 266.853 198.154 266.44C197.044 266.014 197.003 267.15 198.11 267.658C198.565 267.867 198.286 267.878 197.49 267.682C196.087 267.337 193.552 268.351 192.434 269.705C192.081 270.132 191.765 270.064 191.543 269.512C191.287 268.879 190.915 268.981 190.104 269.906C189.502 270.592 188.265 271.311 187.355 271.502C186.445 271.694 185.13 272.089 184.434 272.38C183.467 272.783 183.297 272.698 183.715 272.021C184.121 271.365 183.963 271.25 183.108 271.578C182.472 271.822 181.679 272.021 181.344 272.021C181.01 272.021 180.737 272.468 180.737 273.014C180.737 273.56 180.29 274.007 179.744 274.007C179.198 274.007 178.751 273.709 178.751 273.345C178.751 272.981 178.418 272.683 178.012 272.683C177.589 272.683 177.427 273.272 177.633 274.059C177.892 275.052 177.735 275.336 177.069 275.08C176.56 274.885 175.316 275.158 174.304 275.686C171.917 276.931 169.826 276.908 167.852 275.614C166.62 274.807 165.959 274.738 164.897 275.307C164.144 275.709 163.528 276.326 163.528 276.677C163.528 277.029 162.915 277.316 162.166 277.316C161.416 277.316 160.968 277.049 161.169 276.724C161.37 276.398 161.105 275.966 160.58 275.765C160.004 275.544 159.462 275.91 159.216 276.688C158.634 278.52 157.357 278.293 157.715 276.421C158.012 274.868 158.005 274.867 154.995 275.773C153.336 276.272 151.587 276.531 151.109 276.348C150.632 276.165 150.092 276.405 149.909 276.881C149.681 277.474 147.971 277.789 144.491 277.879C140.946 277.97 139.615 277.8 140.098 277.317H140.098ZM56.9702 256.799C56.9702 256.435 56.6548 256.137 56.2693 256.137C55.8838 256.137 55.7524 256.435 55.9774 256.799C56.2024 257.163 56.5178 257.46 56.6783 257.46C56.8389 257.46 56.9702 257.163 56.9702 256.799ZM169.485 193.77C172.787 190.226 171.393 185.956 166.534 184.733C164.881 184.316 163.528 183.692 163.528 183.346C163.528 182.999 164.72 180.873 166.176 178.62C167.632 176.367 168.823 174.024 168.823 173.413C168.823 172.802 169.042 172.083 169.309 171.816C170.027 171.098 171.379 164.227 171.428 161.046C171.478 157.78 170.349 152.077 169.071 149.148C168.571 148.001 168.161 146.777 168.161 146.428C168.161 146.079 166.97 144.44 165.514 142.786C164.058 141.132 162.867 139.493 162.867 139.145C162.867 138.262 157.459 132.619 156.248 132.237C155.403 131.971 155.378 131.581 156.083 129.619C156.538 128.35 156.91 126.802 156.91 126.178C156.91 124.03 154.869 121.828 152.543 121.468C151.305 121.276 149.24 120.955 147.956 120.754L145.62 120.39L145.805 111.654L145.989 102.918L150.165 102.586C153.619 102.311 154.559 101.968 155.61 100.6C158.889 96.3323 156.085 91.9045 149.746 91.3395L145.989 91.0047L145.658 79.0913L145.327 67.178H136.49H127.653L127.711 76.7748C127.743 82.0531 127.538 87.4141 127.256 88.6882C126.758 90.9392 126.636 91.0163 122.945 91.4156C118.046 91.9456 116.537 93.2698 116.537 97.0381C116.537 101.057 118.309 102.587 122.966 102.587C126.205 102.587 126.556 102.738 127.207 104.407C127.954 106.325 127.693 119.449 126.891 120.251C126.643 120.5 124.638 120.915 122.437 121.175C119.722 121.495 118.137 122.041 117.507 122.872C116.348 124.402 116.256 129.173 117.364 130.299C118.028 130.975 117.865 131.404 116.537 132.475C112.193 135.98 111.283 136.898 109.105 139.982C106.023 144.344 103.869 148.566 102.858 152.226C101.743 156.257 101.769 165.263 102.906 169.631C103.984 173.769 106.834 179.719 108.73 181.787C110.04 183.217 110.04 183.222 108.7 183.938C107.962 184.333 106.932 184.657 106.411 184.657C105.89 184.657 104.679 185.274 103.72 186.028C101.462 187.805 101.316 191.48 103.415 193.715L104.854 195.246H136.482H168.11L169.485 193.77ZM242.109 41.9587C241.89 41.7387 241.319 41.7152 240.841 41.9064C240.313 42.1177 240.47 42.2745 241.241 42.3063C241.938 42.335 242.329 42.1786 242.109 41.9587V41.9587ZM86.5429 275.736C86.2958 275.092 86.5711 274.918 87.4649 275.152C88.9303 275.535 89.1927 276.654 87.8171 276.654C87.31 276.654 86.7366 276.241 86.5429 275.736ZM138.43 274.283C138.462 273.512 138.619 273.355 138.83 273.883C139.021 274.36 138.998 274.931 138.778 275.151C138.558 275.371 138.402 274.98 138.43 274.283H138.43ZM102.638 272.975C102.638 272.407 102.936 272.127 103.3 272.352C103.664 272.577 103.962 273.041 103.962 273.384C103.962 273.727 103.664 274.007 103.3 274.007C102.936 274.007 102.638 273.542 102.638 272.975ZM57.632 261.432C57.632 261.068 57.9299 260.77 58.2939 260.77C58.6579 260.77 58.9557 261.068 58.9557 261.432C58.9557 261.796 58.6579 262.093 58.2939 262.093C57.9299 262.093 57.632 261.796 57.632 261.432ZM223.095 252.807C223.095 252.454 223.542 252.166 224.088 252.166C224.634 252.166 225.081 252.283 225.081 252.426C225.081 252.569 224.634 252.857 224.088 253.067C223.542 253.276 223.095 253.159 223.095 252.807ZM37.7765 243.562C37.7765 243.198 38.0743 242.9 38.4383 242.9C38.8023 242.9 39.1002 243.198 39.1002 243.562C39.1002 243.926 38.8023 244.223 38.4383 244.223C38.0743 244.223 37.7765 243.926 37.7765 243.562ZM236.351 240.94C235.816 240.601 235.55 240.152 235.761 239.941C235.971 239.731 236.52 240.012 236.981 240.567C237.935 241.718 237.752 241.826 236.351 240.94ZM242.289 233.634C242.289 233.27 242.587 232.972 242.951 232.972C243.315 232.972 243.612 233.27 243.612 233.634C243.612 233.998 243.315 234.296 242.951 234.296C242.587 234.296 242.289 233.998 242.289 233.634ZM245.65 231.924C245.682 231.153 245.839 230.996 246.05 231.524C246.241 232.002 246.218 232.573 245.998 232.793C245.778 233.013 245.622 232.622 245.65 231.924H245.65ZM244.936 229.663C244.936 229.299 245.234 229.001 245.598 229.001C245.962 229.001 246.26 229.299 246.26 229.663C246.26 230.027 245.962 230.325 245.598 230.325C245.234 230.325 244.936 230.027 244.936 229.663ZM250.893 225.361C250.893 224.815 251.181 224.368 251.534 224.368C251.886 224.368 252.004 224.815 251.794 225.361C251.584 225.907 251.296 226.353 251.153 226.353C251.01 226.353 250.893 225.907 250.893 225.361ZM22.5539 225.156C22.5539 224.8 23.0255 224.329 23.602 224.107C24.2465 223.86 24.5491 224.008 24.3879 224.492C24.0581 225.481 22.5539 226.026 22.5539 225.156ZM13.9498 211.793C13.9498 211.429 14.2476 211.131 14.6117 211.131C14.9757 211.131 15.2735 211.429 15.2735 211.793C15.2735 212.157 14.9757 212.455 14.6117 212.455C14.2476 212.455 13.9498 212.157 13.9498 211.793ZM264.13 206.459C264.13 206.073 264.428 205.942 264.792 206.167C265.156 206.392 265.454 206.707 265.454 206.868C265.454 207.028 265.156 207.16 264.792 207.16C264.428 207.16 264.13 206.844 264.13 206.459ZM264.13 203.189C264.13 202.825 264.428 202.527 264.792 202.527C265.156 202.527 265.454 202.825 265.454 203.189C265.454 203.553 265.156 203.85 264.792 203.85C264.428 203.85 264.13 203.553 264.13 203.189ZM269.425 188.005C269.425 187.299 269.697 186.552 270.03 186.346C270.755 185.898 271.339 187.299 270.911 188.462C270.438 189.748 269.425 189.436 269.425 188.005ZM272.734 181.623C272.734 181.047 273.088 180.693 273.52 180.837C274.747 181.246 274.951 182.671 273.782 182.671C273.206 182.671 272.734 182.2 272.734 181.623ZM272.899 173.077C271.753 171.775 271.86 171.42 273.396 171.42C274.278 171.42 274.72 171.861 274.72 172.743C274.72 174.284 274.068 174.404 272.899 173.077ZM275.823 145.166C275.061 144.405 275.341 143.622 276.374 143.622C276.92 143.622 277.367 144.069 277.367 144.615C277.367 145.648 276.584 145.928 275.823 145.166ZM276.043 127.076C276.043 126.712 276.359 126.414 276.744 126.414C277.13 126.414 277.261 126.712 277.036 127.076C276.811 127.44 276.496 127.737 276.335 127.737C276.174 127.737 276.043 127.44 276.043 127.076ZM276.043 119.133C276.043 118.769 276.341 118.472 276.705 118.472C277.069 118.472 277.367 118.769 277.367 119.133C277.367 119.497 277.069 119.795 276.705 119.795C276.341 119.795 276.043 119.497 276.043 119.133ZM2.75057 112.129C2.78233 111.358 2.93916 111.201 3.15044 111.729C3.34163 112.207 3.31812 112.778 3.09819 112.997C2.87826 113.217 2.72183 112.826 2.75057 112.129ZM2.03647 105.896C2.03647 105.532 2.3343 105.234 2.69832 105.234C3.06234 105.234 3.36017 105.532 3.36017 105.896C3.36017 106.26 3.06234 106.558 2.69832 106.558C2.3343 106.558 2.03647 106.26 2.03647 105.896ZM4.02202 104.242C4.02202 103.696 4.31986 103.249 4.68388 103.249C5.04789 103.249 5.34573 103.696 5.34573 104.242C5.34573 104.788 5.04789 105.234 4.68388 105.234C4.31986 105.234 4.02202 104.788 4.02202 104.242ZM5.4974 91.8733C5.90648 90.6461 7.33128 90.4426 7.33128 91.6114C7.33128 92.1877 6.85971 92.6593 6.28335 92.6593C5.70699 92.6593 5.35331 92.3056 5.4974 91.8733ZM267.439 79.4222C267.439 79.0582 267.737 78.7604 268.101 78.7604C268.465 78.7604 268.763 79.0582 268.763 79.4222C268.763 79.7863 268.465 80.0841 268.101 80.0841C267.737 80.0841 267.439 79.7863 267.439 79.4222ZM265.784 78.0985C265.56 77.7345 265.691 77.4367 266.076 77.4367C266.462 77.4367 266.777 77.7345 266.777 78.0985C266.777 78.4626 266.646 78.7604 266.485 78.7604C266.325 78.7604 266.009 78.4626 265.784 78.0985ZM27.1868 53.5663C27.1868 52.6903 28.3115 52.2515 29.4436 52.6859C31.0432 53.2997 30.7012 54.1064 28.8415 54.1064C27.9314 54.1064 27.1868 53.8634 27.1868 53.5663ZM33.1435 46.9915C32.6186 46.6671 32.4088 46.1819 32.6773 45.9134C32.9459 45.6448 33.513 45.7726 33.9377 46.1973C34.9377 47.1973 34.3796 47.7554 33.1435 46.9915ZM38.1357 41.0806C37.9262 40.7417 38.0264 40.2967 38.3582 40.0916C38.69 39.8865 39.1323 40.1638 39.341 40.7077C39.7525 41.78 38.7581 42.0876 38.1357 41.0806ZM240.984 39.737C240.449 39.3983 240.183 38.9491 240.393 38.7388C240.914 38.2174 242.951 39.0479 242.951 39.7819C242.951 40.5363 242.222 40.5196 240.984 39.737ZM42.4094 34.4163C42.4094 34.0523 42.7073 33.7545 43.0713 33.7545C43.4353 33.7545 43.7331 34.0523 43.7331 34.4163C43.7331 34.7803 43.4353 35.0782 43.0713 35.0782C42.7073 35.0782 42.4094 34.7803 42.4094 34.4163ZM49.028 28.4596C49.028 28.0956 49.3434 27.7978 49.7289 27.7978C50.1144 27.7978 50.2457 28.0956 50.0207 28.4596C49.7958 28.8237 49.4804 29.1215 49.3198 29.1215C49.1593 29.1215 49.028 28.8237 49.028 28.4596ZM59.6176 21.8411C59.6176 21.4771 59.9154 21.1793 60.2795 21.1793C60.6435 21.1793 60.9413 21.4771 60.9413 21.8411C60.9413 22.2051 60.6435 22.503 60.2795 22.503C59.9154 22.503 59.6176 22.2051 59.6176 21.8411ZM210.086 17.5105C209.55 16.1138 210.445 15.3597 211.208 16.5655C212.018 17.8467 212.002 18.5319 211.161 18.5319C210.786 18.5319 210.302 18.0723 210.086 17.5105H210.086ZM215.163 18.0355C215.181 17.1296 216.398 15.5855 216.787 15.9743C217.308 16.4957 216.478 18.5319 215.744 18.5319C215.419 18.5319 215.157 18.3085 215.163 18.0355ZM212.843 16.5355C213.072 16.1656 213.536 16.0342 213.875 16.2436C214.793 16.811 214.622 17.2082 213.459 17.2082C212.892 17.2082 212.614 16.9055 212.843 16.5355ZM206.218 15.8844C205.993 15.5204 206.124 15.2226 206.51 15.2226C206.895 15.2226 207.211 15.5204 207.211 15.8844C207.211 16.2485 207.079 16.5463 206.919 16.5463C206.758 16.5463 206.443 16.2485 206.218 15.8844ZM76.8257 11.2515C76.8257 10.8875 77.1236 10.5896 77.4876 10.5896C77.8516 10.5896 78.1495 10.8875 78.1495 11.2515C78.1495 11.6155 77.8516 11.9133 77.4876 11.9133C77.1236 11.9133 76.8257 11.6155 76.8257 11.2515ZM163.197 4.63296C163.422 4.26895 163.738 3.97111 163.898 3.97111C164.059 3.97111 164.19 4.26895 164.19 4.63296C164.19 4.99698 163.875 5.29482 163.489 5.29482C163.104 5.29482 162.972 4.99698 163.197 4.63296ZM174.514 4.80798C173.717 4.01127 174.152 3.30926 175.442 3.30926C176.17 3.30926 176.765 3.57523 176.765 3.9003C176.765 4.64425 175.044 5.3382 174.514 4.80798ZM88.7391 3.93205C88.7391 3.54655 89.0369 3.41521 89.4009 3.64019C89.7649 3.86516 90.0628 4.18057 90.0628 4.3411C90.0628 4.50162 89.7649 4.63296 89.4009 4.63296C89.0369 4.63296 88.7391 4.31755 88.7391 3.93205ZM168.823 3.93205C168.823 3.54655 169.121 3.41521 169.485 3.64019C169.849 3.86516 170.147 4.18057 170.147 4.3411C170.147 4.50162 169.849 4.63296 169.485 4.63296C169.121 4.63296 168.823 4.31755 168.823 3.93205ZM188.017 3.02686C188.017 2.41291 188.583 1.98556 189.396 1.98556C191.009 1.98556 190.781 3.53215 189.12 3.85418C188.467 3.98084 188.017 3.64321 188.017 3.02686ZM139.04 1.3237C139.04 0.595667 139.338 0 139.702 0C140.066 0 140.364 0.595667 140.364 1.3237C140.364 2.05174 140.066 2.64741 139.702 2.64741C139.338 2.64741 139.04 2.05174 139.04 1.3237Z" fill="black"/>
</svg>
