<svg width="277" height="278" viewBox="0 0 277 278" fill="none" xmlns="http://www.w3.org/2000/svg">
<path d="M0.661854 277.316C0.661854 276.952 0.977263 276.654 1.36277 276.654C1.74827 276.654 1.87961 276.952 1.65463 277.316C1.42966 277.68 1.11424 277.978 0.953718 277.978C0.793193 277.978 0.661854 277.68 0.661854 277.316ZM136.011 277.316C136.236 276.952 136.7 276.654 137.042 276.654C137.385 276.654 137.665 276.952 137.665 277.316C137.665 277.68 137.201 277.978 136.633 277.978C136.066 277.978 135.786 277.68 136.011 277.316ZM139.651 277.355C139.651 277.013 139.899 276.579 140.202 276.391C140.506 276.204 140.621 275.144 140.458 274.036C140.248 272.607 139.799 272.021 138.914 272.021C138.227 272.021 137.665 272.462 137.665 273.001C137.665 273.54 136.995 274.12 136.176 274.289C132.744 274.998 129.958 275.116 128.241 274.623C127.168 274.316 126.414 274.357 126.414 274.723C126.414 275.389 123.206 275.088 116.982 273.837C114.889 273.416 113.177 272.738 113.177 272.33C113.177 271.887 112.398 271.703 111.238 271.873C109.84 272.078 109.406 272.436 109.683 273.157C109.999 273.979 109.669 274.07 107.816 273.672C104.755 273.015 104.456 272.77 104.922 271.3C105.198 270.432 104.944 269.886 104.122 269.577C103.46 269.328 102.57 268.66 102.145 268.092C101.72 267.524 101.223 267.208 101.041 267.39C100.538 267.893 102.069 274.007 102.699 274.007C103.001 274.007 103.249 274.305 103.249 274.669C103.249 276.412 90.243 274.221 89.1517 272.294C88.4326 271.024 86.6354 271.076 87.1251 272.352C87.6511 273.723 86.9517 273.594 85.3908 272.033C84.3396 270.982 83.7455 270.848 82.4006 271.359C80.4026 272.119 79.0291 271.017 77.2182 267.201C76.5762 265.848 75.6181 264.741 75.0892 264.741C74.5602 264.741 74.1274 264.49 74.1274 264.183C74.1274 263.877 73.1383 263.093 71.9294 262.442C70.1865 261.503 69.4428 261.413 68.3372 262.004C66.7114 262.874 64.8615 262.356 64.8615 261.03C64.8615 259.742 65.9862 259.879 66.7941 261.266C67.2187 261.995 67.4761 262.1 67.4888 261.55C67.5128 260.506 65.9069 258.784 64.9088 258.784C64.5188 258.784 64.1997 259.212 64.1997 259.736C64.1997 260.261 63.6391 260.645 62.9487 260.593C62.2178 260.538 61.8345 260.143 62.0267 259.642C62.2077 259.17 62.0085 258.784 61.584 258.784C61.1595 258.784 60.9963 258.486 61.2213 258.122C61.4659 257.727 60.617 257.452 59.1094 257.439C56.4122 257.417 54.7862 256.513 54.0862 254.648C53.8471 254.011 53.1955 253.489 52.638 253.489C52.0806 253.489 51.6245 253.237 51.6245 252.929C51.6245 251.853 49.1438 249.518 48.0013 249.518C47.2857 249.518 46.9846 249.167 47.2058 248.591C47.4205 248.031 47.0311 247.524 46.2245 247.313C45.2119 247.049 44.9948 246.625 45.3303 245.568C45.727 244.318 45.5772 244.215 43.9005 244.582C42.4663 244.896 42.2602 244.827 43.0204 244.287C43.8503 243.698 43.7822 243.58 42.605 243.572C40.9464 243.56 39.4223 241.96 39.8953 240.727C40.094 240.209 39.7035 239.822 38.9237 239.763C37.2542 239.637 35.5969 238.271 35.9616 237.32C36.1166 236.916 35.3546 235.847 34.2684 234.944C33.1821 234.042 31.3661 232.409 30.2328 231.317C29.0995 230.225 27.9498 229.403 27.6779 229.489C27.406 229.576 27.3448 229.227 27.5419 228.713C27.7389 228.2 27.2628 227.142 26.4839 226.363C25.705 225.584 25.1845 224.596 25.3274 224.168C25.4702 223.739 24.8932 222.843 24.0451 222.176C23.1969 221.508 22.503 220.488 22.503 219.908C22.503 219.328 22.0489 218.381 21.4939 217.805C19.7997 216.045 17.2082 211.791 17.2082 210.771C17.2082 210.241 16.9577 209.807 16.6515 209.807C16.3454 209.807 15.2556 207.722 14.2298 205.174C13.204 202.626 12.1404 200.541 11.8663 200.541C11.5921 200.541 11.1564 199.29 10.898 197.76C10.6396 196.231 9.85704 193.647 9.15896 192.018C8.46088 190.39 8.0411 188.663 8.22613 188.181C8.41115 187.699 8.21448 187.304 7.78908 187.304C7.20034 187.304 7.1998 187.12 7.78683 186.533C8.37385 185.946 8.28692 185.541 7.42281 184.837C6.56451 184.137 6.49605 183.825 7.14213 183.558C7.77537 183.296 7.6704 182.921 6.7368 182.111C6.04387 181.509 5.28704 179.9 5.05495 178.535C4.82286 177.17 4.45146 175.01 4.22963 173.736C4.00779 172.462 3.57929 171.42 3.2774 171.42C2.97552 171.42 2.52378 170.005 2.27355 168.276C2.02331 166.547 1.57265 164.821 1.27206 164.441C0.569359 163.552 1.00974 158.682 1.95205 156.922C2.40641 156.073 2.45496 155.127 2.08193 154.392C0.206706 150.698 -0.577336 145.865 0.827315 146.658C1.48917 147.032 1.48917 146.947 0.827315 146.234C0.372292 145.744 0 144.472 0 143.408C0 141.936 0.197304 141.638 0.827315 142.162C1.47512 142.701 1.60367 142.126 1.41976 139.514C1.25819 137.219 1.41072 136.317 1.90857 136.625C2.35476 136.901 2.48726 136.694 2.25413 136.087C2.04616 135.545 1.45391 135.263 0.938003 135.461C0.295612 135.708 0 135.34 0 134.294C0 133.107 0.176494 132.944 0.794223 133.562C1.87516 134.643 2.64741 134.56 2.64741 133.363C2.64741 132.817 2.20066 132.37 1.65463 132.37C0.892498 132.37 0.661852 131.525 0.661852 128.73C0.661852 126.728 0.887372 125.09 1.16301 125.09C1.43865 125.09 1.55891 123.767 1.43027 122.149C1.18329 119.044 2.3299 114.5 3.36059 114.5C3.69638 114.5 3.97111 113.309 3.97111 111.853C3.97111 109.37 4.86381 108.243 5.44649 109.992C5.59058 110.424 5.70847 108.819 5.70847 106.425C5.70847 103.414 6.06129 101.533 6.85286 100.325C7.48227 99.3645 7.82555 98.3008 7.6157 97.9612C7.40586 97.6217 7.99158 95.0249 8.91731 92.1905C9.91659 89.131 10.3293 86.9468 9.93319 86.8147C9.5662 86.6924 9.26409 86.0959 9.26185 85.4892C9.2596 84.8825 8.83052 83.5671 8.30832 82.566C7.28845 80.611 7.64985 80.0931 8.8698 81.7615C9.47592 82.5904 9.61095 82.3926 9.60461 80.6851C9.59997 79.432 10.0485 78.3045 10.7234 77.8729C12.1686 76.9487 12.8612 77.6376 12.0577 79.2001C11.7141 79.8683 11.2705 81.7553 11.0718 83.3934C10.8732 85.0315 10.8542 85.8505 11.0296 85.2135C11.205 84.5764 11.5769 84.0552 11.8559 84.0552C12.135 84.0552 12.7636 82.8424 13.2528 81.3601C13.742 79.8778 14.6813 78.2875 15.3401 77.826C15.9989 77.3646 16.3412 76.7904 16.1009 76.55C15.8605 76.3097 15.9851 76.113 16.3778 76.113C16.7705 76.113 17.3032 74.8472 17.5616 73.3001C18.0871 70.1537 20.1229 66.8471 21.5345 66.8471C22.0443 66.8471 22.3125 66.459 22.1305 65.9848C21.5232 64.4021 23.6909 60.5991 27.418 56.7087C29.447 54.5908 31.107 52.5519 31.107 52.1779C31.107 51.1143 33.309 47.6534 33.9856 47.6534C35.2488 47.6534 37.714 44.0265 37.3119 42.7597C37.0024 41.7846 37.1583 41.5913 37.9951 41.9125C38.9831 42.2916 41.6967 40.3707 41.6967 39.2922C41.6967 38.7052 49.8209 31.107 50.4486 31.107C50.7313 31.107 50.9626 30.6603 50.9626 30.1143C50.9626 29.5682 51.3349 29.1167 51.7899 29.1109C52.2449 29.1051 53.6256 28.2116 54.8579 27.1254C56.0903 26.0391 57.2817 25.149 57.5054 25.1473C57.729 25.1458 58.8056 24.3266 59.8976 23.3272C60.9897 22.3279 63.3655 20.7116 65.1773 19.7355C68.0702 18.177 69.9759 16.3241 68.3983 16.604C66.9172 16.8667 65.487 16.4788 65.8387 15.9097C66.0821 15.5158 66.8331 15.5017 67.8089 15.8727C69.6463 16.5713 72.1419 16.4969 72.1419 15.7436C72.1419 15.4571 72.6022 15.2226 73.1647 15.2226C73.7273 15.2226 74.9322 14.478 75.8422 13.568C77.6829 11.7273 78.5053 11.508 78.9456 12.7407C79.3982 14.008 80.2496 12.8377 80.2496 10.9481C80.2496 10.0229 80.5277 9.26593 80.8678 9.26593C81.2077 9.26593 81.2706 9.61438 81.0074 10.0403C80.6811 10.5682 80.8965 10.6735 81.6843 10.3712C82.3198 10.1273 83.2528 9.92778 83.7577 9.92778C84.2625 9.92778 84.5848 9.55549 84.4738 9.10047C84.3629 8.64544 84.3971 8.49653 84.5498 8.76954C85.0184 9.60743 87.3645 9.31911 87.3645 8.42363C87.3645 7.96037 88.7047 7.27038 90.3428 6.89032C91.9809 6.51027 93.3212 6.41467 93.3212 6.67788C93.3212 6.94109 93.9168 7.00068 94.6449 6.81029C95.3729 6.61991 95.9686 6.18346 95.9686 5.84042C95.9686 5.49737 95.6707 5.40077 95.3067 5.62574C94.9427 5.85072 94.6449 5.68751 94.6449 5.26307C94.6449 4.83862 95.0171 4.63125 95.4722 4.80226C98.8253 6.06239 99.2778 6.04756 99.2778 4.67757C99.2778 3.18146 100.31 2.81328 100.794 4.13658C101.002 4.70481 101.545 4.49755 102.53 3.47472C104.565 1.35899 108.156 1.4402 109.594 3.6345C110.846 5.54589 112.094 5.18933 111.506 3.0881C111.237 2.12844 111.302 1.93844 111.703 2.51327C112.183 3.20273 112.468 3.17013 113.151 2.34781C113.618 1.78455 114.634 1.32826 115.409 1.33384C116.561 1.34213 116.636 1.46079 115.824 1.98556C114.969 2.53847 114.986 2.62854 115.951 2.63727C116.566 2.64285 117.254 2.34958 117.479 1.98556C118.306 0.646246 119.273 1.33998 118.862 2.97833C118.622 3.93249 118.732 4.63297 119.121 4.63297C119.492 4.63297 119.795 4.37044 119.795 4.04957C119.795 3.7287 121.204 3.00248 122.925 2.43575C125.301 1.65349 126.176 1.59474 126.555 2.19183C126.899 2.73269 127.059 2.74657 127.065 2.23629C127.071 1.82816 128.639 1.25693 130.55 0.966885C137.581 -0.100192 137.044 -0.278658 136.721 3.01776C136.474 5.54638 136.606 5.95667 137.667 5.95667C138.345 5.95667 139.089 5.361 139.32 4.63297C139.662 3.55372 140.373 3.28989 143.17 3.20439C147.831 3.0619 149.208 3.23385 149.468 3.99062C149.811 4.98922 150.902 4.74633 150.902 3.67137C150.902 2.90168 151.596 2.78978 154.377 3.11067C156.288 3.33116 158.001 3.73654 158.184 4.01152C158.367 4.28649 159.633 4.72087 160.997 4.9768C162.361 5.23273 163.477 5.65524 163.477 5.9157C163.477 6.17616 164.422 6.25066 165.576 6.08126C167.415 5.81129 167.538 5.67342 166.569 4.96468C164.825 3.68991 165.279 3.29166 167.283 4.33721C168.284 4.85941 169.605 5.2885 170.217 5.29074C170.932 5.29335 171.407 5.93238 171.541 7.07066C171.695 8.37531 172.344 9.08745 173.986 9.75458C176.009 10.5761 176.182 10.5587 175.804 9.57188C174.6 6.43591 174.604 5.30161 175.817 4.85287C176.493 4.60302 177.258 4.07903 177.518 3.68846C178.047 2.89463 185.318 2.69538 185.319 3.47472C185.319 3.74774 184.797 4.00234 184.16 4.04051C183.523 4.07868 184.045 4.45097 185.319 4.86783C186.593 5.28468 187.982 5.85097 188.406 6.12626C188.83 6.40154 189.328 6.25262 189.514 5.79533C189.775 5.15128 189.996 5.17166 190.495 5.88576C190.887 6.44612 192.33 6.80762 194.176 6.80762C196.931 6.80762 197.337 7.01767 198.546 9.06739C199.279 10.3103 199.879 11.7352 199.879 12.234C199.879 13.4049 206.742 16.665 208.106 16.1418C208.836 15.8615 209.145 16.1347 209.145 17.0602C209.145 18.5779 211.803 19.5867 212.562 18.3574C212.913 17.7898 213.603 17.9809 215.041 19.0441C216.137 19.8544 217.791 20.5174 218.715 20.5174C219.984 20.5174 220.397 20.8598 220.397 21.9119C220.397 22.8434 220.708 23.1869 221.335 22.9465C221.851 22.7485 222.437 23.0145 222.638 23.5375C222.838 24.0606 223.384 24.4904 223.851 24.4927C224.317 24.495 225.206 25.3885 225.826 26.4783C226.453 27.5799 227.508 28.4596 228.202 28.4596C228.891 28.4596 229.788 29.2007 230.204 30.1143C230.619 31.0243 231.486 31.7784 232.131 31.79C233.189 31.809 233.175 31.9093 231.979 32.8264C230.717 33.7949 230.744 33.82 232.574 33.3706C233.941 33.0351 234.358 33.1177 234.024 33.6579C233.767 34.075 233.868 34.4163 234.249 34.4163C235.288 34.4163 237.605 36.5746 237.605 37.5417C237.605 38.0069 238.061 38.3874 238.619 38.3874C239.176 38.3874 239.804 38.8342 240.013 39.3802C240.223 39.9262 240.978 40.373 241.692 40.373C242.655 40.373 242.889 40.6897 242.598 41.6034C241.988 43.5284 242.837 44.887 244.941 45.3492C246.213 45.6284 247.003 46.2957 247.256 47.3026C247.467 48.1438 248.509 49.6649 249.572 50.683C250.634 51.701 251.504 53.0915 251.504 53.7729C251.504 54.4543 251.802 54.8278 252.166 54.6028C252.53 54.3778 252.828 54.5673 252.828 55.0239C252.828 55.4805 253.647 56.7355 254.648 57.8127C255.649 58.89 256.065 59.5398 255.572 59.2566C254.964 58.9072 255.035 59.2902 255.794 60.4489C256.409 61.3877 256.721 62.4668 256.486 62.8468C256.251 63.2269 256.523 63.5378 257.091 63.5378C257.658 63.5378 258.122 63.8675 258.122 64.2705C258.122 64.6734 258.52 64.8507 259.005 64.6645C259.49 64.4782 259.887 64.7383 259.887 65.2423C259.887 67.0757 261.661 71.8358 262.705 72.8037C263.294 73.3498 264.179 75.1368 264.671 76.7748C267.112 84.9038 267.663 86.4103 268.501 87.2485C269.088 87.8348 269.298 89.0683 269.097 90.7382C268.926 92.1588 269.067 93.3212 269.411 93.3212C269.754 93.3212 270.036 94.0657 270.036 94.9758C270.036 95.8858 270.334 96.6304 270.698 96.6304C271.062 96.6304 271.359 97.648 271.359 98.8917C271.359 100.135 271.653 101.252 272.011 101.374C272.662 101.594 273.705 105.723 274.446 111.012C274.661 112.552 275.098 113.652 275.415 113.455C275.733 113.259 275.992 113.712 275.992 114.461C275.992 115.211 275.746 115.824 275.445 115.824C275.144 115.824 275.016 116.643 275.16 117.644C275.304 118.645 275.155 120.18 274.827 121.056C274.276 122.531 274.88 125.517 276.116 127.432C276.827 128.535 276.63 135.68 275.888 135.68C275.505 135.68 275.312 136.885 275.439 138.493C275.598 140.504 275.422 141.257 274.82 141.135C274.244 141.019 274.105 141.464 274.378 142.552C274.597 143.425 274.449 144.341 274.05 144.588C273.052 145.205 273.832 146.295 274.961 145.862C276.337 145.334 276.748 147.58 275.998 151.533C275.631 153.469 275.329 156.279 275.326 157.777C275.325 159.274 274.907 161.295 274.399 162.268C273.892 163.242 273.526 165.103 273.588 166.405C273.709 168.993 273.088 169.344 271.279 167.707C270.163 166.697 270.137 166.768 270.779 169.091C271.151 170.438 271.283 171.987 271.074 172.534C270.83 173.168 271.172 173.653 272.019 173.875C272.748 174.065 273.345 174.609 273.345 175.082C273.345 175.555 273.717 176.075 274.172 176.238C274.654 176.41 274.754 176.779 274.413 177.12C274.071 177.462 273.702 177.361 273.53 176.88C273.368 176.425 272.838 176.053 272.352 176.053C271.867 176.053 271.32 175.68 271.136 175.225C270.952 174.77 270.779 175.051 270.75 175.848C270.721 176.646 270.442 177.456 270.13 177.649C269.818 177.842 269.385 179.572 269.167 181.494C268.949 183.415 268.023 186.477 267.108 188.297C265.204 192.084 265.077 192.699 266.23 192.55C267.924 192.33 268.433 192.633 268.53 193.923C268.587 194.679 268.222 195.246 267.678 195.246C266.525 195.246 266.451 196.03 267.505 197.084C268.102 197.681 268.001 198.175 267.072 199.202C266.405 199.938 265.459 200.541 264.969 200.541C263.935 200.541 263.766 198.827 264.741 198.225C265.105 198 265.379 196.865 265.351 195.704L265.298 193.592L264.588 195.547C264.198 196.623 263.62 197.814 263.305 198.194C262.989 198.575 262.178 199.559 261.503 200.38C260.828 201.202 260.088 203.049 259.858 204.486C259.628 205.922 258.697 207.9 257.789 208.88C256.145 210.653 255.536 212.242 256.799 211.462C257.163 211.237 257.461 211.388 257.461 211.798C257.461 212.208 256.939 212.379 256.302 212.177C255.431 211.9 255.121 212.205 255.052 213.406C255.001 214.284 254.182 215.84 253.232 216.865C252.281 217.89 251.504 219.029 251.504 219.397C251.504 219.765 250.441 220.914 249.141 221.951C247.691 223.108 246.922 224.207 247.148 224.798C247.355 225.336 247.229 225.582 246.863 225.356C246.504 225.134 246.209 225.28 246.209 225.68C246.209 226.445 245.92 226.863 243.33 229.838C242.217 231.116 241.38 231.532 240.555 231.215C239.704 230.888 239.518 230.995 239.891 231.599C240.198 232.096 239.824 233.226 238.97 234.382C238.066 235.605 237.684 236.811 237.943 237.628C238.17 238.343 238.063 238.929 237.705 238.929C237.347 238.929 236.942 238.594 236.806 238.185C236.574 237.489 228.94 244.876 228.44 246.282C228.313 246.638 228.909 246.81 229.763 246.665C230.618 246.52 230.933 246.532 230.463 246.69C229.954 246.862 229.771 247.492 230.011 248.248C230.26 249.032 230.101 249.518 229.597 249.518C229.148 249.518 228.965 249.334 229.19 249.109C229.415 248.883 229.19 248.288 228.688 247.787C227.76 246.859 225.692 247.189 225.692 248.265C225.692 248.59 225.354 248.856 224.942 248.856C224.53 248.856 223.711 249.408 223.122 250.082C222.533 250.756 221.086 251.805 219.907 252.412C218.727 253.02 217.278 254.255 216.687 255.158C216.095 256.06 215.189 256.799 214.672 256.799C213.909 256.799 211.418 258.075 209.826 259.282C209.655 259.412 209.953 259.801 210.488 260.146C211.271 260.65 211.202 260.751 210.138 260.657C208.34 260.497 204.512 261.479 204.512 262.099C204.512 262.375 203.855 262.773 203.052 262.983C202.249 263.193 201.798 263.57 202.049 263.822C202.681 264.454 199.178 266.191 198.103 265.778C196.993 265.353 196.953 266.488 198.059 266.996C198.514 267.205 198.235 267.216 197.439 267.02C196.037 266.675 193.502 267.689 192.383 269.043C192.03 269.47 191.714 269.402 191.492 268.85C191.236 268.217 190.864 268.319 190.053 269.244C189.451 269.93 188.214 270.649 187.304 270.84C186.394 271.032 185.08 271.427 184.383 271.718C183.416 272.121 183.246 272.036 183.664 271.359C184.07 270.703 183.912 270.588 183.057 270.916C182.421 271.16 181.628 271.359 181.293 271.359C180.959 271.359 180.686 271.806 180.686 272.352C180.686 272.898 180.239 273.345 179.693 273.345C179.147 273.345 178.7 273.047 178.7 272.683C178.7 272.319 178.368 272.021 177.961 272.021C177.539 272.021 177.376 272.61 177.582 273.397C177.842 274.39 177.685 274.674 177.018 274.419C176.509 274.224 175.265 274.496 174.253 275.024C171.866 276.269 169.775 276.246 167.801 274.953C166.569 274.145 165.908 274.076 164.846 274.645C164.093 275.048 163.478 275.664 163.478 276.016C163.478 276.367 162.864 276.654 162.115 276.654C161.365 276.654 160.917 276.388 161.118 276.062C161.32 275.736 161.042 275.3 160.502 275.092C159.845 274.84 159.384 275.256 159.111 276.347C158.542 278.612 157.309 278.401 157.647 276.096L157.923 274.214L154.925 275.117C153.276 275.613 151.52 275.863 151.022 275.672C150.491 275.468 149.975 275.872 149.771 276.651C149.373 278.174 148.851 278.31 147.725 277.184C147.108 276.566 146.755 276.566 146.137 277.184C145.203 278.118 139.651 278.264 139.651 277.355H139.651ZM56.9193 256.137C56.9193 255.773 56.6039 255.475 56.2184 255.475C55.8329 255.475 55.7015 255.773 55.9265 256.137C56.1515 256.501 56.4669 256.799 56.6274 256.799C56.7879 256.799 56.9193 256.501 56.9193 256.137ZM145.938 188.8C147.305 186.658 148.689 185.399 150.377 184.762C153.038 183.759 156.558 184.2 155.791 185.44C155.495 185.92 155.631 185.999 156.174 185.664C157.476 184.859 165.014 184.816 166.086 185.607C166.794 186.129 166.917 186.105 166.563 185.515C166.24 184.977 167.004 184.479 168.918 183.982C174.202 182.607 176.376 181.724 179.934 179.508C183.981 176.987 191.331 169.652 192.916 166.553C193.502 165.407 194.542 163.577 195.228 162.485C195.913 161.393 196.495 160.113 196.522 159.64C196.548 159.168 197.556 157.232 198.761 155.338C199.967 153.444 201.156 151.448 201.405 150.902C201.949 149.707 203.273 147.616 204.181 146.518C204.545 146.078 205.737 144.201 206.829 142.346C207.921 140.491 211.353 135.329 214.455 130.874C220.885 121.641 224.069 115.739 223.467 114.17C223.239 113.577 222.723 113.297 222.319 113.547C221.139 114.276 214.551 114.537 208.609 114.09C204.324 113.767 203.187 113.474 203.459 112.764C203.652 112.263 203.52 111.853 203.168 111.853C202.815 111.853 202.527 112.151 202.527 112.515C202.527 112.879 201.931 113.177 201.203 113.177C200.475 113.177 199.879 112.819 199.879 112.382C199.879 111.765 199.703 111.765 199.085 112.382C198.128 113.339 191.937 113.454 191.937 112.515C191.937 112.151 191.044 111.853 189.952 111.853C188.746 111.853 188.031 112.168 188.131 112.656C188.232 113.145 186.875 113.734 184.657 114.166C182.655 114.555 179.825 115.441 178.369 116.134C176.913 116.828 175.433 117.414 175.081 117.437C174.728 117.46 173.789 118.074 172.994 118.802C172.199 119.53 170.402 120.719 169.002 121.444C167.602 122.168 166.307 122.938 166.125 123.155C165.943 123.371 165.305 123.821 164.707 124.154C161.772 125.788 151.824 135.149 150.33 137.683C143.972 148.462 141.97 157.609 142.716 172.465C142.961 177.35 143.341 181.347 143.561 181.347C143.78 181.347 144.652 179.562 145.498 177.38C146.84 173.919 146.936 173.108 146.248 171.023C145.445 168.591 145.576 156.008 146.413 155.171C147.595 153.989 148.256 156.079 148.265 161.035C148.274 165.679 148.99 169.15 149.722 168.091C152.133 164.602 152.752 162.013 153.189 153.59C153.499 147.617 153.96 144.253 154.593 143.349C155.111 142.609 155.535 141.343 155.535 140.535C155.535 139.728 155.824 138.888 156.178 138.67C157.232 138.018 157.773 141.675 156.956 143.934C156.539 145.088 156.197 148.51 156.197 151.538V157.044L157.939 154.469C158.896 153.053 160.386 151.053 161.248 150.024C162.61 148.399 162.819 147.442 162.844 142.744C162.86 139.769 163.142 136.143 163.471 134.687C164.838 128.636 165.163 127.681 165.794 127.87C166.535 128.092 166.533 130.071 165.782 138.493C165.453 142.191 165.501 144.284 165.916 144.284C167.4 144.284 171.42 139.398 171.42 137.594C171.42 136.584 171.718 135.574 172.082 135.349C172.446 135.124 172.743 134.12 172.743 133.118C172.743 132.115 173.3 130.123 173.98 128.689C174.66 127.256 175.714 125.013 176.322 123.706C177.54 121.087 181.749 116.667 182.403 117.32C182.63 117.548 182.236 118.57 181.527 119.592C180.819 120.614 180.044 121.897 179.805 122.443C179.566 122.989 179.117 123.882 178.807 124.428C177.226 127.216 176.714 128.498 176.714 129.675C176.714 130.386 176.417 131.153 176.053 131.378C175.213 131.896 175.179 135.68 176.014 135.68C176.356 135.68 176.823 135.378 177.05 135.01C177.278 134.642 179.034 133.336 180.954 132.108C183.187 130.68 184.947 128.911 185.841 127.195C188.501 122.092 196.57 114.003 196.57 116.44C196.57 117.126 192.647 121.943 191.772 122.332C191.499 122.454 191.275 122.938 191.275 123.41C191.275 123.881 190.828 124.637 190.282 125.09C188.807 126.315 189.081 127.225 190.779 126.736C194.219 125.745 197.843 123.709 199.171 122.02C200.897 119.827 204.724 117.148 206.132 117.148C207.712 117.148 207.357 118.006 205.174 119.464C201.958 121.613 202.753 122.606 206.279 120.845C209.946 119.013 214.131 117.256 215.587 116.938C216.829 116.667 216.965 116.802 216.442 117.779C215.83 118.923 211.53 121.296 206.001 123.541C204.454 124.169 203.189 124.889 203.189 125.141C203.189 125.393 205.199 125.438 207.656 125.241C211.639 124.922 212.031 124.995 211.273 125.91C210.279 127.109 207.73 127.627 199.548 128.293C195.026 128.661 192.675 129.229 189.786 130.652C187.693 131.683 185.98 132.815 185.98 133.168C185.98 133.968 201.918 133.143 202.825 132.296C203.592 131.579 205.836 131.515 205.836 132.211C205.836 133.051 202.996 134.656 200.541 135.203C196.433 136.118 186.375 136.959 184.165 136.572C181.038 136.024 179.39 136.635 176.053 139.578C173.462 141.863 173.234 142.267 174.297 142.678C175.51 143.147 194.308 142.106 199.714 141.27C201.628 140.974 202.527 141.076 202.527 141.588C202.527 142.001 202.006 142.506 201.368 142.71C200.731 142.913 199.615 143.359 198.887 143.7C195.959 145.071 189.747 145.81 179.429 146.015C169.1 146.221 168.511 146.304 167.242 147.739C166.508 148.569 165.138 150.092 164.196 151.123L162.485 152.999L173.074 152.652C182.604 152.339 187.322 151.856 193.679 150.542C194.843 150.301 195.932 150.405 196.163 150.779C196.664 151.59 191.815 153.955 188.628 154.455C187.354 154.655 184.673 155.107 182.671 155.459C180.669 155.812 174.837 156.122 169.712 156.149L160.393 156.197L158.405 159.01C155.036 163.776 155.077 163.939 159.722 164.34C165.738 164.858 178.23 164.434 179.722 163.66C180.434 163.292 182.952 162.794 185.319 162.555L189.621 162.121L187.966 163.463C187.056 164.201 185.567 164.977 184.657 165.188C183.747 165.398 182.257 165.831 181.347 166.149C178.339 167.2 165.51 168.099 159.552 167.676L153.691 167.26L151.63 171.712C150.497 174.161 149.712 176.395 149.886 176.677C150.857 178.247 169.688 176.483 172.817 174.529C173.748 173.948 174.231 173.966 174.872 174.608C175.901 175.636 175.219 176.146 170.352 177.992C166.359 179.506 154.57 180.937 151.237 180.312C148.224 179.746 147.425 180.459 145.6 185.339C144.777 187.539 143.718 189.29 143.21 189.29C142.709 189.29 142.298 189.885 142.298 190.613C142.298 192.844 143.852 192.071 145.938 188.8H145.938ZM116.826 185.432C118.641 184.767 121.292 183.667 122.717 182.989C126.155 181.352 131.148 181.354 132.787 182.993C133.911 184.117 134.045 184.129 134.239 183.122C134.356 182.511 134.007 181.566 133.462 181.021C132.918 180.477 131.858 179.25 131.108 178.296C129.518 176.275 129.319 176.292 119.464 179.307C111.974 181.598 103.864 182.097 101.556 180.409C100.314 179.5 100.326 179.459 101.926 179.122C102.836 178.93 105.069 178.612 106.889 178.414C112.775 177.775 116.784 176.988 118.263 176.18C119.058 175.746 120.472 175.391 121.406 175.391C122.34 175.391 123.104 175.093 123.104 174.729C123.104 174.365 123.849 174.067 124.759 174.067C126.814 174.067 126.879 173.206 124.925 171.903C124.106 171.357 122.707 170.27 121.817 169.486C120.188 168.052 118.214 168.023 114.831 169.381C112.546 170.299 108.927 171.383 105.531 172.167C100.852 173.247 90.663 173.659 89.8073 172.804C88.6963 171.693 89.8013 171.146 94.1923 170.636C102.465 169.673 106.712 168.883 107.421 168.175C107.82 167.775 108.747 167.449 109.481 167.449C111.294 167.449 116.486 165.421 116.486 164.713C116.486 164.399 115.323 162.907 113.902 161.398C111.387 158.729 110.956 158.625 108.544 160.109C107.309 160.868 98.6428 163.496 94.6449 164.324C89.621 165.363 82.2854 165.625 80.7783 164.818C78.9183 163.823 79.6641 162.818 82.2742 162.803C84.745 162.789 94.0901 161.178 96.9613 160.271C98.0534 159.926 100.585 159.159 102.587 158.566C108.688 156.76 109.142 155.929 105.12 153.923C102.776 152.753 101.112 152.621 99.4343 153.469C96.1717 155.118 93.107 156.197 91.6831 156.197C90.8069 156.197 89.9331 156.451 89.7413 156.761C88.9072 158.111 74.6063 158.926 73.3745 157.694C71.9595 156.279 73.5586 155.652 79.7642 155.187C83.2273 154.927 86.2228 154.452 86.4208 154.132C86.6188 153.812 87.7487 153.55 88.9317 153.55C90.1147 153.55 91.6607 153.112 92.3673 152.578C93.0739 152.044 94.2653 151.597 95.0147 151.585C96.6537 151.56 99.5156 149.633 97.9636 149.6C97.4228 149.588 95.4435 148.801 93.565 147.851L90.1498 146.123L86.2752 147.607C77.2556 151.063 65.9406 152.465 62.7895 150.518C61.4819 149.71 63.7285 148.939 67.5089 148.898C69.511 148.876 72.3404 148.429 73.7965 147.905C75.2526 147.38 77.0396 146.942 77.7676 146.931C79.2125 146.909 83.7841 145.437 84.4382 144.783C84.6625 144.559 83.5511 144.038 81.9686 143.625C80.3861 143.212 78.1767 142.596 77.0588 142.256C74.3927 141.443 71.002 141.465 70.4873 142.298C70.2623 142.662 69.2767 142.971 68.2972 142.984C67.3176 142.996 65.7716 143.433 64.8615 143.953C62.8765 145.088 58.0287 145.232 56.1245 144.213C54.2004 143.183 55.7297 142.327 59.5667 142.287C61.2048 142.27 63.1232 141.819 63.8298 141.284C65.0238 140.381 64.9071 140.308 62.1751 140.246C56.8903 140.125 50.0624 139.633 49.7814 139.352C48.7395 138.31 51.1038 137.665 55.9656 137.665C59.0382 137.665 61.5522 137.388 61.5522 137.049C61.5522 136.711 60.9055 136.338 60.1149 136.222C59.3244 136.106 58.555 135.638 58.4051 135.183C57.9573 133.824 63.1751 134.187 65.728 135.693C68.2926 137.206 74.6196 138.998 77.3035 138.971L79.0913 138.953L76.7748 137.019C75.5008 135.956 73.7138 134.705 72.8037 134.241C71.8937 133.776 70.2556 132.673 69.1636 131.789L67.178 130.182L69.8254 130.641C72.6946 131.139 76.7748 133.02 76.7748 133.845C76.7748 134.126 77.1723 134.356 77.658 134.356C78.1437 134.356 79.9678 135.863 81.7114 137.704C83.5556 139.652 85.2626 140.907 85.7922 140.704C86.2929 140.511 86.7026 140.623 86.7026 140.951C86.7026 141.279 87.3727 141.735 88.1918 141.964C89.0108 142.194 90.3506 142.711 91.1691 143.113C93.112 144.068 93.8306 143.296 92.4346 141.754C91.8302 141.086 91.3315 140.116 91.3265 139.599C91.3212 139.081 89.5345 136.908 87.3554 134.769C85.1763 132.631 83.3934 130.62 83.3934 130.302C83.3934 129.983 82.887 129.723 82.2682 129.723C81.4296 129.723 81.3342 129.532 81.8935 128.973C82.8413 128.025 87.8255 130.81 90.1076 133.563C94.5725 138.949 96.6272 142.162 97.6082 145.292C97.7819 145.846 98.452 146.494 99.0973 146.732C99.7426 146.971 101.416 147.879 102.815 148.751C104.215 149.623 105.521 150.175 105.717 149.978C106.316 149.38 102.44 142.204 99.3267 138.147C97.3696 135.596 96.6154 134.106 97.0579 133.664C97.5003 133.221 98.1236 133.446 98.9327 134.34C100.664 136.253 101.378 135.999 101.14 133.556C100.956 131.674 100.564 131.301 97.7024 130.281C95.9258 129.647 92.9475 128.992 91.0838 128.824C89.2202 128.656 86.8219 128.181 85.7543 127.768C84.2526 127.186 82.0801 127.256 76.1575 128.076C71.9468 128.659 67.906 129.386 67.178 129.693C66.45 129.999 63.8405 130.761 61.3791 131.386C58.9178 132.01 56.7409 132.785 56.5417 133.108C56.3424 133.43 55.4863 133.694 54.6394 133.694C53.7924 133.694 52.2464 134.139 51.2037 134.683C50.1611 135.227 48.8044 135.673 48.1888 135.676C47.5733 135.678 46.8856 135.978 46.6606 136.342C46.4356 136.706 45.5245 137.003 44.636 137.003C43.7474 137.003 43.0204 137.165 43.0204 137.363C43.0204 137.561 44.584 139.297 46.4951 141.22C48.4062 143.144 52.0011 146.996 54.4838 149.781C57.3707 153.018 61.9036 156.915 67.059 160.59C71.4927 163.751 77.5029 168.324 80.415 170.752C89.684 178.482 96.2925 182.734 103.911 185.871C106.601 186.979 113.222 186.754 116.826 185.432ZM137.916 173.241C137.55 170.57 137.14 169.966 134.439 168.121C132.755 166.971 129.918 165.025 128.134 163.798C126.349 162.571 124.098 160.701 123.131 159.642L121.372 157.716L123.397 157.784C124.51 157.821 126.314 158.479 127.407 159.246C130.572 161.47 135.808 164.232 136.17 163.87C136.352 163.687 136.297 161.904 136.048 159.907L135.594 156.275L132.162 155.167C126.57 153.363 119.623 149.643 117.238 147.177C114.909 144.768 114.8 143.689 117.004 144.869C117.715 145.249 118.484 145.375 118.711 145.147C118.939 144.919 119.648 145.153 120.288 145.667C123.152 147.967 126.561 149.337 131.599 150.211L134.467 150.709L134.036 148.324C133.292 144.203 131.557 141.365 129.392 140.729C127.356 140.131 125.171 139.35 119.585 137.224C117.831 136.557 115.464 135.187 114.326 134.181L112.255 132.352L114.536 132.779C115.791 133.015 117.1 133.466 117.446 133.782C117.791 134.098 118.615 134.356 119.275 134.356C119.935 134.356 120.992 134.614 121.624 134.929C123.761 135.995 127.395 137.168 129.558 137.49C131.493 137.778 131.709 137.645 131.709 136.166C131.709 132.434 130.864 130.273 129.132 129.573C125.425 128.074 116.143 123.409 115.934 122.939C115.813 122.666 115.366 122.437 114.942 122.431C113.967 122.417 111.103 119.442 111.593 118.953C111.793 118.752 113.348 119.273 115.049 120.11C116.749 120.947 119.332 122.142 120.788 122.765C122.244 123.388 124.646 124.464 126.126 125.156C130.232 127.075 130.46 126.931 130.139 122.608C129.77 117.65 129.28 116.566 127.168 116.037C124.989 115.492 117.122 110.495 115.207 108.44C113.446 106.549 114.558 106.01 116.966 107.587C117.934 108.222 120.97 109.889 123.713 111.291C128.66 113.821 128.704 113.83 129.234 112.397C129.528 111.603 129.584 109.741 129.359 108.259C128.986 105.808 128.546 105.307 124.471 102.697C119.285 99.3756 116.464 96.9142 116.538 95.7763C116.577 95.1787 116.675 95.1854 116.924 95.8031C117.108 96.2581 117.769 96.6304 118.394 96.6304C119.019 96.6304 119.813 96.9008 120.159 97.2313C121.147 98.175 126.922 101.263 127.699 101.263C128.103 101.263 128.399 99.7896 128.399 97.7872C128.399 94.5779 128.169 94.0635 125.395 91.0848C121.976 87.4141 121.96 86.3344 125.362 88.9295C126.624 89.8917 127.773 90.4545 127.915 90.18C128.058 89.9055 128.231 87.1858 128.3 84.1362C128.369 81.0866 128.606 78.2998 128.826 77.9434C129.581 76.7226 130.365 79.0625 130.375 82.5661C130.385 86.1279 130.921 86.7944 132.37 85.048C132.824 84.502 133.629 84.0552 134.161 84.0552C134.904 84.0552 134.803 84.4774 133.727 85.8753C130.591 89.9481 130.372 90.4454 130.793 92.551C131.024 93.7026 131.506 94.6449 131.865 94.6449C132.224 94.6449 133.941 93.4535 135.68 91.9975C137.419 90.5414 139.024 89.3501 139.246 89.3501C140.579 89.3501 139.135 91.6027 135.667 94.9344L131.682 98.7614L132.116 102.163C132.355 104.035 132.592 105.623 132.644 105.694C132.696 105.765 134.964 103.765 137.684 101.249C142.812 96.5059 145.024 95.3241 143.54 98.1196C143.105 98.9386 140.404 101.949 137.538 104.809C134.11 108.23 132.434 110.382 132.642 111.097C132.815 111.695 133.157 113.599 133.401 115.328C133.645 117.057 133.979 118.472 134.144 118.472C134.693 118.472 139.28 114.874 142.298 112.077C143.936 110.559 146.111 108.547 147.131 107.606C149.004 105.878 150.24 105.424 150.24 106.463C150.24 107.267 146.066 112.591 144.197 114.171C143.335 114.9 140.991 116.836 138.989 118.473C136.987 120.11 135.126 121.748 134.854 122.112C134.427 122.684 134.877 130.343 135.373 130.928C135.622 131.222 143.87 125.425 148.162 121.939C150.113 120.354 151.849 119.198 152.021 119.37C153.112 120.46 145.559 127.906 139.168 132.04C136.917 133.496 135.062 135.025 135.046 135.439C135.031 135.852 135.463 137.043 136.007 138.086C136.55 139.129 136.997 140.801 136.999 141.802C137.001 142.803 137.305 143.622 137.674 143.622C139.416 143.622 145.607 138.739 145.607 137.365C145.607 136.255 152.656 128.465 156.591 125.225C158.559 123.606 160.168 122.038 160.168 121.741C160.168 118.042 155.536 103.876 151.957 96.6304C146.609 85.8041 143.946 81.8 137.054 74.2231C134.352 71.2525 131.522 67.936 130.767 66.8531C129.425 64.9309 127.737 64.1942 127.737 65.5304C127.737 66.6062 120.438 78.0985 119.755 78.0985C119.413 78.0985 119.133 78.4353 119.133 78.8468C119.133 79.2584 118.122 81.0029 116.886 82.7235C113.89 86.8934 109.088 95.654 107.994 98.9455C106.777 102.608 105.912 109.936 105.475 120.292C105.271 125.115 104.836 129.061 104.508 129.061C104.179 129.061 103.911 129.544 103.911 130.135C103.911 130.988 104.104 131.048 104.851 130.428C105.64 129.774 105.854 130.268 106.178 133.491C106.635 138.044 109.688 147.944 110.96 148.999C111.451 149.407 111.853 150.039 111.853 150.403C111.853 151.286 117.159 158.584 119.915 161.493C123.49 165.266 128.673 169.65 131.612 171.387C133.263 172.363 134.356 173.499 134.356 174.239C134.356 174.916 134.61 175.312 134.92 175.12C135.231 174.928 136.049 175.184 136.739 175.689C137.429 176.193 138.07 176.53 138.163 176.438C138.256 176.345 138.145 174.906 137.916 173.241ZM242.059 41.2968C241.839 41.0769 241.268 41.0534 240.79 41.2446C240.262 41.4558 240.419 41.6127 241.19 41.6444C241.888 41.6732 242.279 41.5167 242.059 41.2968ZM86.492 275.074C86.2449 274.431 86.5202 274.256 87.414 274.49C88.8794 274.873 89.1418 275.992 87.7662 275.992C87.2591 275.992 86.6858 275.579 86.492 275.074ZM138.379 273.621C138.411 272.85 138.568 272.693 138.779 273.221C138.97 273.699 138.947 274.269 138.727 274.489C138.507 274.709 138.351 274.318 138.379 273.621H138.379ZM102.587 272.313C102.587 271.746 102.885 271.465 103.249 271.69C103.613 271.915 103.911 272.38 103.911 272.722C103.911 273.065 103.613 273.345 103.249 273.345C102.885 273.345 102.587 272.881 102.587 272.313ZM57.5811 260.77C57.5811 260.406 57.879 260.108 58.243 260.108C58.607 260.108 58.9048 260.406 58.9048 260.77C58.9048 261.134 58.607 261.432 58.243 261.432C57.879 261.432 57.5811 261.134 57.5811 260.77ZM223.044 252.145C223.044 251.792 223.491 251.504 224.037 251.504C224.583 251.504 225.03 251.621 225.03 251.764C225.03 251.907 224.583 252.195 224.037 252.405C223.491 252.615 223.044 252.497 223.044 252.145ZM37.7256 242.9C37.7256 242.536 38.0234 242.238 38.3874 242.238C38.7514 242.238 39.0493 242.536 39.0493 242.9C39.0493 243.264 38.7514 243.562 38.3874 243.562C38.0234 243.562 37.7256 243.264 37.7256 242.9ZM236.3 240.278C235.765 239.94 235.499 239.49 235.71 239.28C235.92 239.069 236.469 239.351 236.93 239.905C237.885 241.056 237.701 241.164 236.3 240.278ZM242.238 232.972C242.238 232.608 242.536 232.31 242.9 232.31C243.264 232.31 243.562 232.608 243.562 232.972C243.562 233.336 243.264 233.634 242.9 233.634C242.536 233.634 242.238 233.336 242.238 232.972ZM245.599 231.262C245.631 230.491 245.788 230.334 245.999 230.862C246.19 231.34 246.167 231.911 245.947 232.131C245.727 232.351 245.571 231.96 245.599 231.262H245.599ZM244.885 229.001C244.885 228.637 245.183 228.339 245.547 228.339C245.911 228.339 246.209 228.637 246.209 229.001C246.209 229.365 245.911 229.663 245.547 229.663C245.183 229.663 244.885 229.365 244.885 229.001ZM250.842 224.699C250.842 224.153 251.13 223.706 251.483 223.706C251.836 223.706 251.953 224.153 251.743 224.699C251.534 225.245 251.245 225.692 251.102 225.692C250.959 225.692 250.842 225.245 250.842 224.699ZM22.503 224.494C22.503 224.138 22.9746 223.667 23.5511 223.445C24.1956 223.198 24.4982 223.346 24.337 223.83C24.0072 224.819 22.503 225.364 22.503 224.494ZM13.8989 211.131C13.8989 210.767 14.1967 210.469 14.5607 210.469C14.9248 210.469 15.2226 210.767 15.2226 211.131C15.2226 211.495 14.9248 211.793 14.5607 211.793C14.1967 211.793 13.8989 211.495 13.8989 211.131ZM264.079 205.797C264.079 205.411 264.377 205.28 264.741 205.505C265.105 205.73 265.403 206.045 265.403 206.206C265.403 206.367 265.105 206.498 264.741 206.498C264.377 206.498 264.079 206.182 264.079 205.797ZM264.079 202.527C264.079 202.163 264.377 201.865 264.741 201.865C265.105 201.865 265.403 202.163 265.403 202.527C265.403 202.891 265.105 203.189 264.741 203.189C264.377 203.189 264.079 202.891 264.079 202.527ZM269.374 187.343C269.374 186.637 269.646 185.89 269.979 185.684C270.705 185.236 271.288 186.637 270.86 187.801C270.387 189.086 269.374 188.774 269.374 187.343ZM272.683 180.961C272.683 180.385 273.037 180.031 273.469 180.175C274.696 180.585 274.9 182.009 273.731 182.009C273.155 182.009 272.683 181.538 272.683 180.961ZM272.849 172.415C271.702 171.113 271.809 170.758 273.345 170.758C274.227 170.758 274.669 171.199 274.669 172.082C274.669 173.622 274.017 173.742 272.849 172.415ZM275.716 144.373C275.431 143.911 275.377 143.355 275.595 143.137C276.187 142.544 276.833 143.415 276.513 144.375C276.289 145.048 276.133 145.047 275.716 144.373V144.373ZM2.69966 111.467C2.73142 110.696 2.88825 110.539 3.09953 111.067C3.29072 111.545 3.26721 112.116 3.04728 112.336C2.82735 112.556 2.67092 112.165 2.69966 111.467ZM1.98556 105.234C1.98556 104.87 2.28339 104.573 2.64741 104.573C3.01143 104.573 3.30926 104.87 3.30926 105.234C3.30926 105.598 3.01143 105.896 2.64741 105.896C2.28339 105.896 1.98556 105.598 1.98556 105.234ZM3.97111 103.58C3.97111 103.034 4.26895 102.587 4.63297 102.587C4.99698 102.587 5.29482 103.034 5.29482 103.58C5.29482 104.126 4.99698 104.573 4.63297 104.573C4.26895 104.573 3.97111 104.126 3.97111 103.58ZM5.44649 91.2115C5.85557 89.9843 7.28037 89.7807 7.28037 90.9495C7.28037 91.5259 6.8088 91.9974 6.23244 91.9974C5.65608 91.9974 5.3024 91.6438 5.44649 91.2115ZM267.388 78.7604C267.388 78.3964 267.686 78.0985 268.05 78.0985C268.414 78.0985 268.712 78.3964 268.712 78.7604C268.712 79.1244 268.414 79.4222 268.05 79.4222C267.686 79.4222 267.388 79.1244 267.388 78.7604ZM265.734 77.4367C265.509 77.0727 265.64 76.7748 266.025 76.7748C266.411 76.7748 266.726 77.0727 266.726 77.4367C266.726 77.8007 266.595 78.0985 266.435 78.0985C266.274 78.0985 265.959 77.8007 265.734 77.4367ZM27.1359 52.9045C27.1359 52.0284 28.2606 51.5896 29.3927 52.0241C30.9923 52.6379 30.6503 53.4446 28.7906 53.4446C27.8805 53.4446 27.1359 53.2015 27.1359 52.9045ZM33.0926 46.3297C32.5677 46.0052 32.3579 45.5201 32.6264 45.2515C32.895 44.983 33.4621 45.1107 33.8868 45.5354C34.8868 46.5354 34.3287 47.0936 33.0926 46.3297ZM38.0848 40.4187C37.8753 40.0798 37.9755 39.6348 38.3073 39.4297C38.6391 39.2247 39.0813 39.5019 39.2901 40.0459C39.7015 41.1181 38.7071 41.4257 38.0848 40.4187ZM240.933 39.0751C240.398 38.7365 240.132 38.2873 240.342 38.0769C240.864 37.5555 242.9 38.386 242.9 39.1201C242.9 39.8745 242.171 39.8578 240.933 39.0751ZM42.3585 33.7545C42.3585 33.3904 42.6564 33.0926 43.0204 33.0926C43.3844 33.0926 43.6822 33.3904 43.6822 33.7545C43.6822 34.1185 43.3844 34.4163 43.0204 34.4163C42.6564 34.4163 42.3585 34.1185 42.3585 33.7545ZM48.9771 27.7978C48.9771 27.4338 49.2925 27.1359 49.678 27.1359C50.0635 27.1359 50.1948 27.4338 49.9698 27.7978C49.7449 28.1618 49.4294 28.4596 49.2689 28.4596C49.1084 28.4596 48.9771 28.1618 48.9771 27.7978ZM59.5667 21.1793C59.5667 20.8152 59.8645 20.5174 60.2285 20.5174C60.5926 20.5174 60.8904 20.8152 60.8904 21.1793C60.8904 21.5433 60.5926 21.8411 60.2285 21.8411C59.8645 21.8411 59.5667 21.5433 59.5667 21.1793ZM210.036 16.8487C209.5 15.4519 210.394 14.6979 211.157 15.9036C211.967 17.1848 211.951 17.87 211.11 17.87C210.735 17.87 210.251 17.4104 210.036 16.8487H210.036ZM215.112 17.3736C215.13 16.4678 216.347 14.9236 216.736 15.3125C217.258 15.8339 216.427 17.87 215.693 17.87C215.368 17.87 215.106 17.6466 215.112 17.3736ZM212.792 15.8737C213.021 15.5037 213.485 15.3724 213.824 15.5818C214.742 16.1492 214.571 16.5463 213.408 16.5463C212.841 16.5463 212.564 16.2436 212.792 15.8737ZM206.167 15.2226C205.942 14.8586 206.073 14.5607 206.459 14.5607C206.844 14.5607 207.16 14.8586 207.16 15.2226C207.16 15.5866 207.028 15.8844 206.868 15.8844C206.707 15.8844 206.392 15.5866 206.167 15.2226ZM76.7748 10.5896C76.7748 10.2256 77.0727 9.92778 77.4367 9.92778C77.8007 9.92778 78.0985 10.2256 78.0985 10.5896C78.0985 10.9537 77.8007 11.2515 77.4367 11.2515C77.0727 11.2515 76.7748 10.9537 76.7748 10.5896ZM163.147 3.97111C163.372 3.60709 163.687 3.30926 163.847 3.30926C164.008 3.30926 164.139 3.60709 164.139 3.97111C164.139 4.33513 163.824 4.63297 163.438 4.63297C163.053 4.63297 162.922 4.33513 163.147 3.97111ZM174.463 4.14613C173.666 3.34941 174.101 2.64741 175.391 2.64741C176.119 2.64741 176.715 2.91338 176.715 3.23845C176.715 3.9824 174.993 4.67635 174.463 4.14613ZM88.6882 3.2702C88.6882 2.8847 88.986 2.75336 89.35 2.97833C89.7141 3.20331 90.0119 3.51872 90.0119 3.67925C90.0119 3.83977 89.7141 3.97111 89.35 3.97111C88.986 3.97111 88.6882 3.6557 88.6882 3.2702ZM168.772 3.2702C168.772 2.8847 169.07 2.75336 169.434 2.97833C169.798 3.20331 170.096 3.51872 170.096 3.67925C170.096 3.83977 169.798 3.97111 169.434 3.97111C169.07 3.97111 168.772 3.6557 168.772 3.2702ZM187.966 2.36501C187.966 1.75105 188.532 1.3237 189.345 1.3237C190.958 1.3237 190.73 2.8703 189.069 3.19233C188.416 3.31899 187.966 2.98135 187.966 2.36501ZM138.989 0.992778C138.989 0.44675 139.287 0 139.651 0C140.015 0 140.313 0.44675 140.313 0.992778C140.313 1.53881 140.015 1.98556 139.651 1.98556C139.287 1.98556 138.989 1.53881 138.989 0.992778Z" fill="black"/>
</svg>
