<svg width="278" height="278" viewBox="0 0 278 278" fill="none" xmlns="http://www.w3.org/2000/svg">
<path d="M140.047 277.317C141.203 276.161 140.352 272.683 138.914 272.683C138.227 272.683 137.665 273.124 137.665 273.663C137.665 274.202 136.995 274.782 136.176 274.951C132.744 275.66 129.958 275.777 128.242 275.285C127.168 274.977 126.414 275.018 126.414 275.384C126.414 276.051 123.206 275.75 116.982 274.499C114.889 274.078 113.177 273.4 113.177 272.992C113.177 272.549 112.398 272.365 111.238 272.535C109.84 272.74 109.406 273.098 109.683 273.818C109.999 274.641 109.669 274.732 107.816 274.334C104.755 273.677 104.456 273.432 104.922 271.962C105.198 271.094 104.944 270.548 104.122 270.239C103.46 269.99 102.57 269.322 102.145 268.754C101.72 268.186 101.223 267.87 101.041 268.052C100.538 268.555 102.069 274.669 102.699 274.669C103.001 274.669 103.249 274.966 103.249 275.33C103.249 277.074 90.243 274.883 89.1517 272.956C88.4327 271.686 86.6354 271.738 87.1251 273.014C87.6511 274.385 86.9517 274.256 85.3908 272.695C84.3396 271.644 83.7455 271.51 82.4006 272.021C80.4026 272.781 79.0291 271.679 77.2182 267.863C76.5762 266.51 75.6181 265.403 75.0892 265.403C74.5602 265.403 74.1274 265.152 74.1274 264.845C74.1274 264.538 73.1383 263.755 71.9294 263.104C70.1865 262.165 69.4428 262.074 68.3372 262.666C66.7114 263.536 64.8615 263.018 64.8615 261.692C64.8615 260.404 65.9862 260.541 66.7941 261.928C67.2187 262.657 67.4761 262.762 67.4888 262.212C67.5128 261.167 65.9069 259.446 64.9088 259.446C64.5188 259.446 64.1997 259.874 64.1997 260.398C64.1997 260.923 63.6391 261.307 62.9487 261.255C62.2178 261.2 61.8345 260.804 62.0267 260.303C62.2077 259.832 62.0085 259.446 61.584 259.446C61.1596 259.446 60.9963 259.148 61.2213 258.784C61.466 258.388 60.617 258.114 59.1094 258.101C56.4122 258.079 54.7862 257.175 54.0862 255.309C53.8471 254.672 53.1955 254.151 52.638 254.151C52.0806 254.151 51.6245 253.899 51.6245 253.591C51.6245 252.515 49.1438 250.18 48.0013 250.18C47.2857 250.18 46.9846 249.829 47.2058 249.253C47.4205 248.693 47.0311 248.186 46.2245 247.975C45.212 247.71 44.9948 247.287 45.3303 246.23C45.727 244.98 45.5772 244.877 43.9005 245.244C42.4663 245.558 42.2602 245.489 43.0204 244.949C43.8503 244.359 43.7822 244.242 42.605 244.234C40.9464 244.222 39.4223 242.622 39.8953 241.389C40.094 240.871 39.7035 240.484 38.9237 240.425C37.2542 240.299 35.5969 238.932 35.9616 237.982C36.1166 237.578 35.3546 236.509 34.2684 235.606C33.1821 234.703 31.3661 233.071 30.2328 231.979C29.0995 230.887 27.9498 230.064 27.6779 230.151C27.406 230.238 27.3448 229.888 27.5419 229.375C27.7389 228.861 27.2628 227.804 26.4839 227.025C25.705 226.246 25.1845 225.258 25.3274 224.83C25.4703 224.401 24.8932 223.505 24.0451 222.837C23.1969 222.17 22.503 221.15 22.503 220.57C22.503 219.99 22.0489 219.043 21.4939 218.467C19.7997 216.707 17.2082 212.453 17.2082 211.432C17.2082 210.902 16.9577 210.469 16.6515 210.469C16.3454 210.469 15.2556 208.384 14.2298 205.836C13.204 203.288 12.1404 201.203 11.8663 201.203C11.5921 201.203 11.1564 199.952 10.898 198.422C10.6396 196.893 9.85704 194.309 9.15896 192.68C8.46088 191.052 8.0411 189.325 8.22613 188.843C8.41115 188.36 8.21448 187.966 7.78908 187.966C7.20035 187.966 7.1998 187.782 7.78683 187.195C8.37385 186.608 8.28692 186.203 7.42282 185.499C6.56452 184.799 6.49605 184.487 7.14214 184.22C7.77537 183.958 7.6704 183.583 6.7368 182.772C6.04387 182.171 5.28704 180.562 5.05495 179.196C4.82286 177.831 4.45146 175.672 4.22963 174.398C4.00779 173.124 3.57929 172.082 3.27741 172.082C2.97552 172.082 2.52378 170.667 2.27355 168.938C2.02332 167.209 1.57265 165.483 1.27206 165.103C0.569359 164.214 1.00974 159.344 1.95205 157.583C2.40641 156.734 2.45496 155.789 2.08193 155.054C0.206708 151.36 -0.577336 146.527 0.827315 147.32C1.48917 147.694 1.48917 147.609 0.827315 146.896C0.372292 146.406 0 145.134 0 144.07C0 142.597 0.197306 142.3 0.827315 142.824C1.47512 143.362 1.60367 142.788 1.41976 140.176C1.25819 137.881 1.41072 136.979 1.90857 137.287C2.35476 137.562 2.48726 137.356 2.25413 136.749C2.04616 136.207 1.45391 135.925 0.938003 136.123C0.295612 136.37 0 136.002 0 134.956C0 133.769 0.176494 133.606 0.794223 134.224C1.87516 135.305 2.64741 135.222 2.64741 134.025C2.64741 133.479 2.20066 133.032 1.65463 133.032C0.892498 133.032 0.661852 132.187 0.661852 129.392C0.661852 127.39 0.887374 125.752 1.16301 125.752C1.43865 125.752 1.55891 124.428 1.43027 122.811C1.18329 119.706 2.3299 115.162 3.36059 115.162C3.69638 115.162 3.97111 113.971 3.97111 112.515C3.97111 110.032 4.86381 108.905 5.44649 110.653C5.59058 111.086 5.70848 109.481 5.70848 107.086C5.70848 104.076 6.06129 102.195 6.85286 100.987C7.48227 100.026 7.82555 98.9626 7.6157 98.6231C7.40586 98.2835 7.99158 95.6867 8.91731 92.8524C9.91659 89.7928 10.3293 87.6086 9.93319 87.4766C9.5662 87.3543 9.26409 86.7578 9.26185 86.1511C9.2596 85.5444 8.83052 84.229 8.30832 83.2279C7.28846 81.2728 7.64985 80.755 8.8698 82.4233C9.47593 83.2523 9.61095 83.0545 9.60462 81.347C9.59997 80.0939 10.0485 78.9663 10.7234 78.5348C12.1686 77.6106 12.8612 78.2994 12.0577 79.8619C11.7141 80.5302 11.2705 82.4171 11.0718 84.0552C10.8732 85.6933 10.8542 86.5123 11.0296 85.8753C11.205 85.2383 11.5769 84.7171 11.8559 84.7171C12.135 84.7171 12.7636 83.5043 13.2528 82.022C13.742 80.5397 14.6813 78.9493 15.3401 78.4879C15.9989 78.0264 16.3412 77.4522 16.1009 77.2119C15.8605 76.9715 15.9851 76.7748 16.3778 76.7748C16.7705 76.7748 17.3032 75.509 17.5616 73.962C18.0871 70.8155 20.1229 67.5089 21.5345 67.5089C22.0443 67.5089 22.3125 67.1209 22.1305 66.6466C21.5232 65.0639 23.6909 61.261 27.418 57.3706C29.447 55.2526 31.107 53.2138 31.107 52.8397C31.107 51.7762 33.309 48.3152 33.9856 48.3152C35.2488 48.3152 37.714 44.6884 37.3119 43.4215C37.0024 42.4465 37.1583 42.2532 37.9951 42.5743C38.9831 42.9535 41.6967 41.0326 41.6967 39.9541C41.6967 39.367 49.8209 31.7689 50.4486 31.7689C50.7313 31.7689 50.9626 31.3221 50.9626 30.7761C50.9626 30.2301 51.3349 29.7786 51.7899 29.7728C52.245 29.767 53.6256 28.8735 54.858 27.7872C56.0903 26.701 57.2817 25.8109 57.5054 25.8092C57.729 25.8076 58.8056 24.9884 59.8976 23.9891C60.9897 22.9897 63.3655 21.3734 65.1773 20.3973C68.0702 18.8388 69.9759 16.986 68.3983 17.2658C66.9172 17.5286 65.487 17.1406 65.8387 16.5716C66.0821 16.1777 66.8331 16.1635 67.8089 16.5345C69.6463 17.2331 72.1419 17.1587 72.1419 16.4055C72.1419 16.1189 72.6022 15.8844 73.1647 15.8844C73.7273 15.8844 74.9322 15.1399 75.8422 14.2298C77.6829 12.3891 78.5053 12.1699 78.9456 13.4025C79.3982 14.6699 80.2496 13.4996 80.2496 11.61C80.2496 10.6848 80.5278 9.92778 80.8678 9.92778C81.2078 9.92778 81.2706 10.2762 81.0074 10.7021C80.6811 11.23 80.8965 11.3353 81.6843 11.033C82.3198 10.7892 83.2528 10.5896 83.7577 10.5896C84.2625 10.5896 84.5848 10.2173 84.4739 9.76232C84.3629 9.30729 84.3971 9.15838 84.5498 9.43139C85.0184 10.2693 87.3645 9.98096 87.3645 9.08548C87.3645 8.62222 88.7047 7.93223 90.3428 7.55218C91.9809 7.17212 93.3212 7.07652 93.3212 7.33973C93.3212 7.60295 93.9168 7.66253 94.6449 7.47214C95.3729 7.28176 95.9686 6.84531 95.9686 6.50227C95.9686 6.15922 95.6707 6.06262 95.3067 6.28759C94.9427 6.51257 94.6449 6.34937 94.6449 5.92492C94.6449 5.50047 95.0172 5.29311 95.4722 5.46411C98.8253 6.72424 99.2778 6.70941 99.2778 5.33942C99.2778 3.84331 100.31 3.47513 100.794 4.79843C101.002 5.36666 101.545 5.1594 102.53 4.13658C104.565 2.02084 108.156 2.10206 109.594 4.29636C110.846 6.20774 112.094 5.85118 111.506 3.74995C111.237 2.79029 111.302 2.60029 111.703 3.17513C112.183 3.86458 112.468 3.83198 113.151 3.00966C113.618 2.4464 114.634 1.99012 115.409 1.99569C116.561 2.00398 116.636 2.12265 115.824 2.64741C114.969 3.20032 114.986 3.29039 115.951 3.29913C116.566 3.3047 117.254 3.01143 117.479 2.64741C118.306 1.3081 119.273 2.00183 118.862 3.64019C118.622 4.59434 118.732 5.29482 119.121 5.29482C119.492 5.29482 119.795 5.03229 119.795 4.71142C119.795 4.39055 121.204 3.66433 122.925 3.0976C125.301 2.31534 126.176 2.2566 126.555 2.85368C126.899 3.39454 127.059 3.40843 127.065 2.89814C127.071 2.49001 128.639 1.91878 130.55 1.62874C137.581 0.56166 137.044 0.383195 136.721 3.67961C136.474 6.20823 136.606 6.61852 137.667 6.61852C138.345 6.61852 139.089 6.02285 139.32 5.29482C139.662 4.21557 140.373 3.95175 143.17 3.86625C147.831 3.72375 149.208 3.8957 149.468 4.65247C149.811 5.65107 150.902 5.40818 150.902 4.33322C150.902 3.56353 151.596 3.45163 154.377 3.77252C156.288 3.99301 158.001 4.39839 158.184 4.67337C158.367 4.94834 159.633 5.38272 160.997 5.63865C162.361 5.89459 163.477 6.31709 163.477 6.57755C163.477 6.83801 164.422 6.91251 165.576 6.74311C167.416 6.47314 167.538 6.33527 166.569 5.62653C164.825 4.35176 165.279 3.95351 167.283 4.99906C168.284 5.52126 169.605 5.95035 170.218 5.95259C170.932 5.9552 171.407 6.59423 171.541 7.73251C171.695 9.03716 172.344 9.7493 173.986 10.4164C176.009 11.238 176.182 11.2205 175.804 10.2337C174.6 7.09776 174.604 5.96346 175.817 5.51472C176.493 5.26487 177.258 4.74089 177.518 4.35032C178.047 3.55649 185.318 3.35723 185.319 4.13658C185.319 4.40959 184.797 4.66419 184.16 4.70236C183.523 4.74053 184.045 5.11282 185.319 5.52968C186.593 5.94653 187.982 6.51283 188.406 6.78811C188.83 7.06339 189.328 6.91447 189.514 6.45718C189.775 5.81314 189.996 5.83352 190.495 6.54761C190.887 7.10797 192.33 7.46947 194.176 7.46947C196.931 7.46947 197.337 7.67952 198.546 9.72924C199.279 10.9721 199.879 12.3971 199.879 12.8959C199.879 14.0668 206.742 17.3268 208.106 16.8036C208.836 16.5234 209.145 16.7966 209.145 17.722C209.145 19.2398 211.803 20.2486 212.562 19.0192C212.913 18.4516 213.603 18.6428 215.041 19.706C216.137 20.5163 217.791 21.1793 218.715 21.1793C219.984 21.1793 220.397 21.5216 220.397 22.5738C220.397 23.5052 220.708 23.8488 221.335 23.6083C221.851 23.4104 222.437 23.6763 222.638 24.1994C222.838 24.7224 223.384 25.1523 223.851 25.1546C224.317 25.1569 225.206 26.0504 225.826 27.1401C226.453 28.2418 227.508 29.1215 228.202 29.1215C228.891 29.1215 229.788 29.8626 230.204 30.7761C230.619 31.6862 231.486 32.4402 232.131 32.4518C233.189 32.4708 233.175 32.5711 231.979 33.4882C230.717 34.4567 230.744 34.4818 232.574 34.0325C233.941 33.6969 234.358 33.7796 234.024 34.3198C233.767 34.7369 233.868 35.0782 234.249 35.0782C235.288 35.0782 237.605 37.2365 237.605 38.2036C237.605 38.6687 238.061 39.0493 238.619 39.0493C239.176 39.0493 239.804 39.496 240.013 40.042C240.223 40.5881 240.978 41.0348 241.692 41.0348C242.655 41.0348 242.889 41.3515 242.598 42.2653C241.988 44.1902 242.837 45.5489 244.941 46.011C246.213 46.2902 247.003 46.9576 247.256 47.9645C247.467 48.8056 248.509 50.3268 249.572 51.3448C250.634 52.3629 251.504 53.7533 251.504 54.4348C251.504 55.1162 251.802 55.4896 252.166 55.2646C252.53 55.0397 252.828 55.2292 252.828 55.6858C252.828 56.1423 253.647 57.3973 254.648 58.4746C255.649 59.5519 256.065 60.2016 255.572 59.9185C254.964 59.5691 255.035 59.9521 255.794 61.1107C256.409 62.0496 256.721 63.1287 256.486 63.5087C256.251 63.8887 256.523 64.1997 257.091 64.1997C257.658 64.1997 258.122 64.5293 258.122 64.9323C258.122 65.3353 258.52 65.5126 259.005 65.3263C259.49 65.1401 259.887 65.4001 259.887 65.9041C259.887 67.7376 261.661 72.4977 262.705 73.4656C263.294 74.0116 264.179 75.7986 264.671 77.4367C267.112 85.5657 267.663 87.0721 268.501 87.9103C269.088 88.4966 269.298 89.7301 269.097 91.4001C268.926 92.8207 269.067 93.983 269.411 93.983C269.754 93.983 270.036 94.7276 270.036 95.6376C270.036 96.5477 270.334 97.2923 270.698 97.2923C271.062 97.2923 271.359 98.3099 271.359 99.5536C271.359 100.797 271.653 101.914 272.011 102.036C272.663 102.256 273.705 106.385 274.446 111.674C274.661 113.214 275.098 114.313 275.415 114.117C275.733 113.921 275.992 114.374 275.992 115.123C275.992 115.873 275.746 116.486 275.445 116.486C275.144 116.486 275.016 117.305 275.16 118.306C275.304 119.307 275.155 120.842 274.827 121.717C274.165 123.492 274.959 126.414 276.82 129.043C277.457 129.943 277.978 131.06 277.978 131.525C277.978 131.99 277.457 132.394 276.82 132.423C276.128 132.454 275.995 132.609 276.489 132.809C277.725 133.308 277.534 136.342 276.266 136.342C275.438 136.342 275.264 136.934 275.439 139.154C275.598 141.166 275.422 141.919 274.82 141.797C274.244 141.681 274.105 142.126 274.378 143.214C274.597 144.087 274.449 145.003 274.05 145.25C273.65 145.497 273.498 145.981 273.711 146.326C273.924 146.671 274.378 146.78 274.72 146.569C275.061 146.358 275.825 146.67 276.418 147.262C277.285 148.129 277.347 148.621 276.738 149.786C276.321 150.582 275.722 153.839 275.407 157.023C275.092 160.207 274.525 163.185 274.148 163.641C273.771 164.097 273.516 165.587 273.581 166.952C273.709 169.65 273.105 170.021 271.279 168.369C270.163 167.358 270.137 167.429 270.779 169.753C271.151 171.1 271.283 172.649 271.074 173.196C270.83 173.83 271.172 174.315 272.019 174.536C272.748 174.727 273.345 175.271 273.345 175.744C273.345 176.217 273.717 176.737 274.172 176.9C274.654 177.072 274.754 177.441 274.413 177.782C274.071 178.124 273.702 178.023 273.53 177.542C273.368 177.087 272.838 176.715 272.352 176.715C271.867 176.715 271.32 176.342 271.136 175.887C270.952 175.432 270.779 175.712 270.75 176.51C270.721 177.308 270.442 178.118 270.13 178.311C269.818 178.503 269.385 180.234 269.167 182.155C268.949 184.077 268.023 187.139 267.108 188.959C265.204 192.745 265.077 193.361 266.23 193.211C267.924 192.991 268.433 193.295 268.53 194.585C268.587 195.341 268.222 195.908 267.678 195.908C266.525 195.908 266.451 196.692 267.505 197.746C268.102 198.343 268.001 198.837 267.072 199.864C266.405 200.6 265.459 201.203 264.969 201.203C263.935 201.203 263.766 199.489 264.741 198.887C265.105 198.662 265.379 197.527 265.351 196.366L265.298 194.254L264.588 196.209C264.198 197.284 263.62 198.476 263.305 198.856C262.989 199.237 262.178 200.221 261.503 201.042C260.828 201.864 260.088 203.711 259.858 205.148C259.628 206.584 258.697 208.562 257.789 209.542C256.145 211.315 255.536 212.904 256.799 212.124C257.163 211.899 257.461 212.05 257.461 212.46C257.461 212.87 256.939 213.04 256.302 212.838C255.431 212.562 255.121 212.867 255.052 214.068C255.001 214.945 254.182 216.502 253.232 217.527C252.281 218.552 251.504 219.691 251.504 220.059C251.504 220.427 250.441 221.576 249.141 222.613C247.691 223.77 246.922 224.869 247.148 225.46C247.355 225.998 247.229 226.244 246.863 226.018C246.504 225.795 246.209 225.941 246.209 226.342C246.209 227.107 245.92 227.525 243.33 230.5C242.217 231.778 241.38 232.193 240.555 231.877C239.704 231.55 239.518 231.657 239.891 232.261C240.198 232.758 239.825 233.887 238.97 235.044C238.065 236.267 237.684 237.473 237.943 238.29C238.17 239.005 238.063 239.59 237.705 239.59C237.347 239.59 236.942 239.256 236.806 238.847C236.574 238.151 228.94 245.538 228.44 246.944C228.313 247.299 228.909 247.472 229.763 247.327C230.618 247.182 230.933 247.194 230.463 247.352C229.954 247.524 229.771 248.154 230.011 248.91C230.26 249.694 230.101 250.18 229.597 250.18C229.148 250.18 228.965 249.996 229.19 249.77C229.415 249.545 229.19 248.95 228.688 248.449C227.76 247.521 225.692 247.851 225.692 248.927C225.692 249.252 225.354 249.518 224.942 249.518C224.53 249.518 223.711 250.07 223.122 250.744C222.533 251.418 221.086 252.467 219.907 253.074C218.727 253.682 217.278 254.917 216.687 255.82C216.095 256.722 215.189 257.46 214.672 257.46C213.909 257.46 211.418 258.737 209.826 259.944C209.655 260.074 209.953 260.462 210.488 260.808C211.271 261.312 211.202 261.413 210.138 261.318C208.34 261.159 204.512 262.141 204.512 262.761C204.512 263.037 203.855 263.435 203.052 263.645C202.249 263.855 201.798 264.232 202.049 264.484C202.681 265.116 199.178 266.853 198.103 266.44C196.993 266.014 196.953 267.15 198.059 267.658C198.514 267.867 198.235 267.878 197.439 267.682C196.037 267.337 193.502 268.351 192.383 269.705C192.03 270.132 191.714 270.064 191.492 269.512C191.236 268.879 190.864 268.981 190.053 269.906C189.451 270.592 188.214 271.311 187.304 271.502C186.394 271.694 185.08 272.089 184.383 272.38C183.416 272.783 183.246 272.698 183.664 272.021C184.07 271.365 183.912 271.25 183.057 271.578C182.421 271.822 181.628 272.021 181.293 272.021C180.959 272.021 180.686 272.468 180.686 273.014C180.686 273.56 180.239 274.007 179.693 274.007C179.147 274.007 178.7 273.709 178.7 273.345C178.7 272.981 178.368 272.683 177.961 272.683C177.539 272.683 177.376 273.272 177.582 274.059C177.842 275.052 177.685 275.336 177.018 275.08C176.51 274.885 175.265 275.158 174.253 275.686C171.866 276.931 169.775 276.908 167.801 275.614C166.569 274.807 165.908 274.738 164.846 275.307C164.093 275.709 163.478 276.326 163.478 276.677C163.478 277.029 162.864 277.316 162.115 277.316C161.365 277.316 160.917 277.049 161.118 276.724C161.32 276.398 161.055 275.966 160.529 275.765C159.954 275.544 159.412 275.91 159.165 276.688C158.583 278.52 157.306 278.293 157.664 276.421C157.961 274.868 157.954 274.867 154.944 275.773C153.285 276.272 151.536 276.531 151.059 276.348C150.581 276.165 150.041 276.405 149.858 276.881C149.63 277.474 147.921 277.789 144.44 277.879C140.895 277.97 139.564 277.8 140.047 277.317H140.047ZM56.9193 256.799C56.9193 256.435 56.6039 256.137 56.2184 256.137C55.8329 256.137 55.7015 256.435 55.9265 256.799C56.1515 257.163 56.4669 257.46 56.6274 257.46C56.7879 257.46 56.9193 257.163 56.9193 256.799ZM134.356 192.268C134.634 184.488 134.846 183.037 135.68 183.219C136.226 183.339 139.204 184.64 142.298 186.109C145.392 187.579 151.349 190.404 155.535 192.387C159.721 194.369 165.466 197.164 168.3 198.597C171.134 200.03 173.99 201.203 174.645 201.203C175.883 201.203 176.428 200.236 182.854 186.642C184.66 182.82 188.654 174.481 191.729 168.11C197.413 156.335 198.333 153.805 197.415 152.471C196.943 151.784 193.185 149.919 168.49 138.115C151.407 129.948 149.843 128.947 152.667 127.988C156.755 126.6 158.845 125.38 158.845 124.383C158.845 123.227 157.534 120.092 153.052 110.529C149.332 102.594 140.756 83.7252 138.987 79.5877C137.38 75.8276 136.493 75.4341 133.251 77.0427C132.221 77.5541 130.037 78.5654 128.399 79.2902C126.761 80.0151 123.783 81.361 121.781 82.2812C118.271 83.8942 112.346 86.5607 108.213 88.387C107.121 88.8695 103.249 90.6366 99.6087 92.3139C95.9686 93.9911 91.881 95.8719 90.5254 96.4933C87.7141 97.782 87.5274 98.6445 89.2689 102.297C90.5482 104.981 92.6948 109.697 95.2752 115.493C97.1385 119.679 98.5756 122.823 101.478 129.061C110.752 148.997 110.428 147.777 106.393 147.564C104.846 147.482 98.2933 147.455 91.832 147.504L80.0841 147.593V174.288C80.0841 188.97 80.3066 201.205 80.5786 201.477C80.8505 201.749 92.9873 201.873 107.549 201.753L134.025 201.534L134.356 192.268ZM134.356 153.55V147.593H123.766C115.263 147.593 113.177 147.415 113.177 146.69C113.177 146.194 114.591 145.25 116.321 144.592C118.992 143.577 126.276 140.321 134.025 136.679C146.802 130.674 148.917 129.817 148.917 130.644C148.917 130.786 146.877 135.179 144.385 140.406C141.893 145.633 138.857 152.069 137.64 154.708C136.423 157.347 135.186 159.506 134.891 159.506C134.597 159.506 134.356 156.826 134.356 153.55ZM242.059 41.9587C241.839 41.7387 241.268 41.7152 240.79 41.9064C240.262 42.1177 240.419 42.2745 241.19 42.3063C241.888 42.335 242.279 42.1786 242.059 41.9587ZM86.492 275.736C86.2449 275.092 86.5202 274.918 87.414 275.152C88.8795 275.535 89.1418 276.654 87.7662 276.654C87.2591 276.654 86.6858 276.241 86.492 275.736ZM138.379 274.283C138.411 273.512 138.568 273.355 138.779 273.883C138.97 274.36 138.947 274.931 138.727 275.151C138.507 275.371 138.351 274.98 138.379 274.283H138.379ZM102.587 272.975C102.587 272.407 102.885 272.127 103.249 272.352C103.613 272.577 103.911 273.041 103.911 273.384C103.911 273.727 103.613 274.007 103.249 274.007C102.885 274.007 102.587 273.542 102.587 272.975ZM57.5811 261.432C57.5811 261.068 57.879 260.77 58.243 260.77C58.607 260.77 58.9048 261.068 58.9048 261.432C58.9048 261.796 58.607 262.093 58.243 262.093C57.879 262.093 57.5811 261.796 57.5811 261.432ZM223.044 252.807C223.044 252.454 223.491 252.166 224.037 252.166C224.583 252.166 225.03 252.283 225.03 252.426C225.03 252.569 224.583 252.857 224.037 253.067C223.491 253.276 223.044 253.159 223.044 252.807ZM37.7256 243.562C37.7256 243.198 38.0234 242.9 38.3874 242.9C38.7514 242.9 39.0493 243.198 39.0493 243.562C39.0493 243.926 38.7514 244.223 38.3874 244.223C38.0234 244.223 37.7256 243.926 37.7256 243.562ZM236.3 240.94C235.765 240.601 235.499 240.152 235.71 239.941C235.92 239.731 236.469 240.012 236.93 240.567C237.885 241.718 237.702 241.826 236.3 240.94ZM242.238 233.634C242.238 233.27 242.536 232.972 242.9 232.972C243.264 232.972 243.562 233.27 243.562 233.634C243.562 233.998 243.264 234.296 242.9 234.296C242.536 234.296 242.238 233.998 242.238 233.634ZM245.599 231.924C245.631 231.153 245.788 230.996 245.999 231.524C246.19 232.002 246.167 232.573 245.947 232.793C245.727 233.013 245.571 232.622 245.599 231.924H245.599ZM244.885 229.663C244.885 229.299 245.183 229.001 245.547 229.001C245.911 229.001 246.209 229.299 246.209 229.663C246.209 230.027 245.911 230.325 245.547 230.325C245.183 230.325 244.885 230.027 244.885 229.663ZM250.842 225.361C250.842 224.815 251.13 224.368 251.483 224.368C251.836 224.368 251.953 224.815 251.743 225.361C251.534 225.907 251.245 226.353 251.102 226.353C250.959 226.353 250.842 225.907 250.842 225.361ZM22.503 225.156C22.503 224.8 22.9746 224.329 23.5511 224.107C24.1956 223.86 24.4982 224.008 24.337 224.492C24.0072 225.481 22.503 226.026 22.503 225.156ZM13.8989 211.793C13.8989 211.429 14.1967 211.131 14.5607 211.131C14.9248 211.131 15.2226 211.429 15.2226 211.793C15.2226 212.157 14.9248 212.455 14.5607 212.455C14.1967 212.455 13.8989 212.157 13.8989 211.793ZM264.079 206.459C264.079 206.073 264.377 205.942 264.741 206.167C265.105 206.392 265.403 206.707 265.403 206.868C265.403 207.028 265.105 207.16 264.741 207.16C264.377 207.16 264.079 206.844 264.079 206.459ZM264.079 203.189C264.079 202.825 264.377 202.527 264.741 202.527C265.105 202.527 265.403 202.825 265.403 203.189C265.403 203.553 265.105 203.85 264.741 203.85C264.377 203.85 264.079 203.553 264.079 203.189ZM269.374 188.005C269.374 187.299 269.646 186.552 269.979 186.346C270.705 185.898 271.288 187.299 270.86 188.462C270.387 189.748 269.374 189.436 269.374 188.005ZM272.683 181.623C272.683 181.047 273.037 180.693 273.469 180.837C274.696 181.246 274.9 182.671 273.731 182.671C273.155 182.671 272.683 182.2 272.683 181.623ZM272.849 173.077C271.702 171.775 271.809 171.42 273.345 171.42C274.227 171.42 274.669 171.861 274.669 172.743C274.669 174.284 274.017 174.404 272.849 173.077ZM275.772 145.166C275.01 144.405 275.29 143.622 276.323 143.622C276.869 143.622 277.316 144.069 277.316 144.615C277.316 145.648 276.533 145.928 275.772 145.166ZM275.992 127.076C275.992 126.712 276.308 126.414 276.693 126.414C277.079 126.414 277.21 126.712 276.985 127.076C276.76 127.44 276.445 127.737 276.284 127.737C276.124 127.737 275.992 127.44 275.992 127.076ZM275.992 119.133C275.992 118.769 276.29 118.472 276.654 118.472C277.018 118.472 277.316 118.769 277.316 119.133C277.316 119.497 277.018 119.795 276.654 119.795C276.29 119.795 275.992 119.497 275.992 119.133ZM2.69966 112.129C2.73142 111.358 2.88825 111.201 3.09953 111.729C3.29072 112.207 3.26721 112.778 3.04728 112.997C2.82735 113.217 2.67092 112.826 2.69966 112.129ZM1.98556 105.896C1.98556 105.532 2.28339 105.234 2.64741 105.234C3.01143 105.234 3.30926 105.532 3.30926 105.896C3.30926 106.26 3.01143 106.558 2.64741 106.558C2.28339 106.558 1.98556 106.26 1.98556 105.896ZM3.97112 104.242C3.97112 103.696 4.26895 103.249 4.63297 103.249C4.99698 103.249 5.29482 103.696 5.29482 104.242C5.29482 104.788 4.99698 105.234 4.63297 105.234C4.26895 105.234 3.97112 104.788 3.97112 104.242ZM5.44649 91.8733C5.85557 90.6461 7.28038 90.4426 7.28038 91.6114C7.28038 92.1877 6.80881 92.6593 6.23244 92.6593C5.65608 92.6593 5.3024 92.3056 5.44649 91.8733ZM267.388 79.4222C267.388 79.0582 267.686 78.7604 268.05 78.7604C268.414 78.7604 268.712 79.0582 268.712 79.4222C268.712 79.7863 268.414 80.0841 268.05 80.0841C267.686 80.0841 267.388 79.7863 267.388 79.4222ZM265.734 78.0985C265.509 77.7345 265.64 77.4367 266.026 77.4367C266.411 77.4367 266.726 77.7345 266.726 78.0985C266.726 78.4626 266.595 78.7604 266.435 78.7604C266.274 78.7604 265.959 78.4626 265.734 78.0985ZM27.1359 53.5663C27.1359 52.6903 28.2606 52.2515 29.3927 52.6859C30.9923 53.2997 30.6503 54.1064 28.7906 54.1064C27.8805 54.1064 27.1359 53.8634 27.1359 53.5663ZM33.0926 46.9915C32.5677 46.6671 32.3579 46.1819 32.6264 45.9134C32.895 45.6448 33.4621 45.7726 33.8868 46.1973C34.8868 47.1973 34.3287 47.7554 33.0926 46.9915ZM38.0848 41.0806C37.8753 40.7417 37.9755 40.2967 38.3073 40.0916C38.6391 39.8865 39.0814 40.1638 39.2901 40.7077C39.7016 41.78 38.7071 42.0876 38.0848 41.0806ZM240.933 39.737C240.398 39.3983 240.132 38.9491 240.342 38.7388C240.864 38.2174 242.9 39.0479 242.9 39.7819C242.9 40.5363 242.171 40.5196 240.933 39.737ZM42.3585 34.4163C42.3585 34.0523 42.6564 33.7545 43.0204 33.7545C43.3844 33.7545 43.6822 34.0523 43.6822 34.4163C43.6822 34.7803 43.3844 35.0782 43.0204 35.0782C42.6564 35.0782 42.3585 34.7803 42.3585 34.4163ZM48.9771 28.4596C48.9771 28.0956 49.2925 27.7978 49.678 27.7978C50.0635 27.7978 50.1948 28.0956 49.9698 28.4596C49.7449 28.8237 49.4295 29.1215 49.2689 29.1215C49.1084 29.1215 48.9771 28.8237 48.9771 28.4596ZM59.5667 21.8411C59.5667 21.4771 59.8645 21.1793 60.2285 21.1793C60.5926 21.1793 60.8904 21.4771 60.8904 21.8411C60.8904 22.2051 60.5926 22.503 60.2285 22.503C59.8645 22.503 59.5667 22.2051 59.5667 21.8411ZM210.036 17.5105C209.5 16.1138 210.394 15.3597 211.157 16.5655C211.967 17.8466 211.951 18.5319 211.11 18.5319C210.735 18.5319 210.251 18.0723 210.036 17.5105H210.036ZM215.112 18.0355C215.13 17.1296 216.347 15.5855 216.736 15.9743C217.258 16.4957 216.427 18.5319 215.693 18.5319C215.368 18.5319 215.107 18.3085 215.112 18.0355ZM212.792 16.5355C213.021 16.1656 213.485 16.0342 213.824 16.2436C214.742 16.811 214.571 17.2082 213.408 17.2082C212.841 17.2082 212.563 16.9055 212.792 16.5355ZM206.167 15.8844C205.942 15.5204 206.073 15.2226 206.459 15.2226C206.844 15.2226 207.16 15.5204 207.16 15.8844C207.16 16.2485 207.028 16.5463 206.868 16.5463C206.707 16.5463 206.392 16.2485 206.167 15.8844ZM76.7748 11.2515C76.7748 10.8875 77.0727 10.5896 77.4367 10.5896C77.8007 10.5896 78.0986 10.8875 78.0986 11.2515C78.0986 11.6155 77.8007 11.9133 77.4367 11.9133C77.0727 11.9133 76.7748 11.6155 76.7748 11.2515ZM163.147 4.63296C163.372 4.26895 163.687 3.97111 163.847 3.97111C164.008 3.97111 164.139 4.26895 164.139 4.63296C164.139 4.99698 163.824 5.29482 163.438 5.29482C163.053 5.29482 162.922 4.99698 163.147 4.63296ZM174.463 4.80798C173.666 4.01127 174.101 3.30926 175.391 3.30926C176.119 3.30926 176.715 3.57523 176.715 3.9003C176.715 4.64425 174.993 5.3382 174.463 4.80798ZM88.6882 3.93205C88.6882 3.54655 88.986 3.41521 89.35 3.64019C89.7141 3.86516 90.0119 4.18057 90.0119 4.3411C90.0119 4.50163 89.7141 4.63296 89.35 4.63296C88.986 4.63296 88.6882 4.31755 88.6882 3.93205ZM168.772 3.93205C168.772 3.54655 169.07 3.41521 169.434 3.64019C169.798 3.86516 170.096 4.18057 170.096 4.3411C170.096 4.50163 169.798 4.63296 169.434 4.63296C169.07 4.63296 168.772 4.31755 168.772 3.93205ZM187.966 3.02686C187.966 2.41291 188.532 1.98556 189.345 1.98556C190.958 1.98556 190.73 3.53215 189.069 3.85418C188.416 3.98084 187.966 3.64321 187.966 3.02686ZM138.989 1.3237C138.989 0.595667 139.287 0 139.651 0C140.015 0 140.313 0.595667 140.313 1.3237C140.313 2.05174 140.015 2.64741 139.651 2.64741C139.287 2.64741 138.989 2.05174 138.989 1.3237Z" fill="black"/>
</svg>
