<svg width="278" height="278" viewBox="0 0 278 278" fill="none" xmlns="http://www.w3.org/2000/svg">
<path d="M7.84255e-06 277.316C7.84255e-06 276.952 0.315417 276.654 0.700919 276.654C1.08642 276.654 1.21776 276.952 0.992786 277.316C0.76781 277.68 0.452399 277.978 0.291872 277.978C0.131347 277.978 7.84255e-06 277.68 7.84255e-06 277.316ZM135.349 277.316C135.574 276.952 136.038 276.654 136.381 276.654C136.723 276.654 137.003 276.952 137.003 277.316C137.003 277.68 136.539 277.978 135.972 277.978C135.404 277.978 135.124 277.68 135.349 277.316ZM138.989 277.355C138.989 277.013 139.237 276.579 139.54 276.391C139.844 276.204 139.959 275.144 139.796 274.036C139.587 272.607 139.137 272.021 138.252 272.021C137.565 272.021 137.003 272.462 137.003 273.001C137.003 273.54 136.333 274.12 135.514 274.289C132.082 274.998 129.296 275.116 127.58 274.623C126.506 274.316 125.752 274.357 125.752 274.723C125.752 275.389 122.544 275.088 116.321 273.837C114.227 273.416 112.515 272.738 112.515 272.33C112.515 271.887 111.736 271.703 110.576 271.873C109.178 272.078 108.745 272.436 109.021 273.157C109.337 273.979 109.007 274.07 107.154 273.672C104.093 273.015 103.794 272.77 104.26 271.3C104.536 270.432 104.283 269.886 103.46 269.577C102.798 269.328 101.908 268.66 101.483 268.092C101.058 267.524 100.561 267.208 100.379 267.39C99.8757 267.893 101.407 274.007 102.037 274.007C102.339 274.007 102.587 274.305 102.587 274.669C102.587 276.412 89.5811 274.221 88.4898 272.294C87.7708 271.024 85.9735 271.076 86.4633 272.352C86.9892 273.723 86.2899 273.594 84.7289 272.033C83.6777 270.982 83.0837 270.848 81.7387 271.359C79.7407 272.119 78.3672 271.017 76.5564 267.201C75.9143 265.848 74.9563 264.741 74.4273 264.741C73.8984 264.741 73.4656 264.49 73.4656 264.183C73.4656 263.877 72.4765 263.093 71.2676 262.442C69.5247 261.503 68.7809 261.413 67.6753 262.004C66.0496 262.874 64.1997 262.356 64.1997 261.03C64.1997 259.742 65.3244 259.879 66.1322 261.266C66.5568 261.995 66.8143 262.1 66.8269 261.55C66.851 260.506 65.2451 258.784 64.2469 258.784C63.8569 258.784 63.5378 259.212 63.5378 259.736C63.5378 260.261 62.9772 260.645 62.2868 260.593C61.5559 260.538 61.1726 260.143 61.3649 259.642C61.5458 259.17 61.3466 258.784 60.9221 258.784C60.4977 258.784 60.3345 258.486 60.5595 258.122C60.8041 257.727 59.9552 257.452 58.4475 257.439C55.7504 257.417 54.1243 256.513 53.4243 254.648C53.1853 254.011 52.5336 253.489 51.9762 253.489C51.4187 253.489 50.9626 253.237 50.9626 252.929C50.9626 251.853 48.482 249.518 47.3395 249.518C46.6239 249.518 46.3228 249.167 46.544 248.591C46.7587 248.031 46.3693 247.524 45.5627 247.313C44.5501 247.049 44.333 246.625 44.6685 245.568C45.0651 244.318 44.9153 244.215 43.2387 244.582C41.8045 244.896 41.5983 244.827 42.3585 244.287C43.1885 243.698 43.1204 243.58 41.9432 243.572C40.2846 243.56 38.7604 241.96 39.2334 240.727C39.4321 240.209 39.0416 239.822 38.2618 239.763C36.5924 239.637 34.9351 238.271 35.2997 237.32C35.4547 236.916 34.6928 235.847 33.6065 234.944C32.5202 234.042 30.7042 232.409 29.5709 231.317C28.4376 230.225 27.288 229.403 27.0161 229.489C26.7442 229.576 26.683 229.227 26.88 228.713C27.0771 228.2 26.601 227.142 25.8221 226.363C25.0431 225.584 24.5227 224.596 24.6655 224.168C24.8084 223.739 24.2314 222.843 23.3832 222.176C22.5351 221.508 21.8411 220.488 21.8411 219.908C21.8411 219.328 21.3871 218.381 20.8321 217.805C19.1378 216.045 16.5463 211.791 16.5463 210.771C16.5463 210.241 16.2958 209.807 15.9897 209.807C15.6835 209.807 14.5938 207.722 13.568 205.174C12.5422 202.626 11.4786 200.541 11.2044 200.541C10.9303 200.541 10.4946 199.29 10.2362 197.76C9.97777 196.231 9.19519 193.647 8.49711 192.018C7.79903 190.39 7.37926 188.663 7.56428 188.181C7.74931 187.699 7.55263 187.304 7.12724 187.304C6.5385 187.304 6.53796 187.12 7.12499 186.533C7.71201 185.946 7.62507 185.541 6.76097 184.837C5.90267 184.137 5.8342 183.825 6.48029 183.558C7.11352 183.296 7.00855 182.921 6.07495 182.111C5.38202 181.509 4.62519 179.9 4.3931 178.535C4.16101 177.17 3.78962 175.01 3.56778 173.736C3.34595 172.462 2.91745 171.42 2.61556 171.42C2.31367 171.42 1.86193 170.005 1.6117 168.276C1.36147 166.547 0.910799 164.821 0.610216 164.441C-0.103025 163.539 0.353545 158.672 1.321 156.864C1.89075 155.799 1.88704 155.221 1.30597 154.521C0.428619 153.464 -0.392796 141.977 0.446139 142.497C0.746791 142.683 0.887088 141.338 0.75791 139.507C0.596353 137.217 0.748923 136.317 1.24672 136.625C1.69893 136.904 1.82309 136.688 1.5777 136.049C1.36171 135.486 0.918374 135.19 0.5925 135.392C0.266624 135.593 0 135.303 0 134.747C0 134.12 0.377307 133.88 0.992778 134.117C1.62143 134.358 1.98556 134.108 1.98556 133.434C1.98556 132.849 1.53881 132.37 0.992778 132.37C0.230644 132.37 0 131.525 0 128.73C0 126.728 0.22552 125.09 0.501156 125.09C0.776795 125.09 0.89706 123.767 0.768413 122.149C0.521435 119.044 1.66805 114.5 2.69874 114.5C3.03452 114.5 3.30926 113.309 3.30926 111.853C3.30926 109.37 4.20195 108.243 4.78464 109.992C4.92873 110.424 5.04662 108.819 5.04662 106.425C5.04662 103.414 5.39943 101.533 6.191 100.325C6.82041 99.3645 7.16369 98.3008 6.95385 97.9612C6.744 97.6217 7.32973 95.0249 8.25545 92.1905C9.25473 89.131 9.66749 86.9468 9.27134 86.8147C8.90434 86.6924 8.60224 86.0959 8.6 85.4892C8.59775 84.8825 8.16867 83.5671 7.64647 82.566C6.6266 80.611 6.98799 80.0931 8.20794 81.7615C8.81407 82.5904 8.94909 82.3926 8.94276 80.6851C8.93812 79.432 9.38669 78.3045 10.0615 77.8729C11.5068 76.9487 12.1993 77.6376 11.3958 79.2001C11.0522 79.8683 10.6086 81.7553 10.41 83.3934C10.2113 85.0315 10.1924 85.8505 10.3678 85.2135C10.5432 84.5764 10.915 84.0552 11.1941 84.0552C11.4731 84.0552 12.1017 82.8424 12.5909 81.3601C13.0801 79.8778 14.0194 78.2875 14.6782 77.826C15.337 77.3646 15.6794 76.7904 15.439 76.55C15.1986 76.3097 15.3233 76.113 15.716 76.113C16.1087 76.113 16.6414 74.8472 16.8998 73.3001C17.4253 70.1537 19.461 66.8471 20.8726 66.8471C21.3825 66.8471 21.6507 66.459 21.4687 65.9848C20.8613 64.4021 23.0291 60.5991 26.7561 56.7087C28.7851 54.5908 30.4452 52.5519 30.4452 52.1779C30.4452 51.1143 32.6471 47.6534 33.3238 47.6534C34.587 47.6534 37.0521 44.0265 36.65 42.7597C36.3406 41.7846 36.4964 41.5913 37.3333 41.9125C38.3213 42.2916 41.0348 40.3707 41.0348 39.2922C41.0348 38.7052 49.1591 31.1071 49.7868 31.1071C50.0695 31.1071 50.3008 30.6603 50.3008 30.1143C50.3008 29.5682 50.673 29.1167 51.1281 29.1109C51.5831 29.1051 52.9637 28.2116 54.1961 27.1254C55.4285 26.0391 56.6198 25.149 56.8435 25.1473C57.0672 25.1458 58.1437 24.3266 59.2358 23.3272C60.3278 22.3279 62.7037 20.7116 64.5154 19.7355C67.4083 18.177 69.3141 16.3241 67.7364 16.604C66.2554 16.8667 64.8251 16.4788 65.1768 15.9097C65.4203 15.5158 66.1712 15.5017 67.1471 15.8727C68.9844 16.5713 71.48 16.4969 71.48 15.7436C71.48 15.4571 71.9403 15.2226 72.5029 15.2226C73.0655 15.2226 74.2703 14.478 75.1804 13.568C77.0211 11.7273 77.8435 11.508 78.2837 12.7407C78.7363 14.008 79.5877 12.8377 79.5877 10.9481C79.5877 10.0229 79.8659 9.26593 80.2059 9.26593C80.5459 9.26593 80.6087 9.61438 80.3455 10.0403C80.0192 10.5682 80.2346 10.6735 81.0224 10.3712C81.658 10.1273 82.591 9.92778 83.0958 9.92778C83.6006 9.92778 83.9229 9.55549 83.812 9.10047C83.7011 8.64544 83.7352 8.49653 83.8879 8.76954C84.3565 9.60743 86.7026 9.31911 86.7026 8.42363C86.7026 7.96037 88.0429 7.27038 89.681 6.89032C91.319 6.51027 92.6593 6.41467 92.6593 6.67788C92.6593 6.94109 93.255 7.00068 93.983 6.81029C94.711 6.61991 95.3067 6.18346 95.3067 5.84042C95.3067 5.49737 95.0089 5.40077 94.6448 5.62574C94.2808 5.85072 93.983 5.68751 93.983 5.26307C93.983 4.83862 94.3553 4.63125 94.8103 4.80226C98.1634 6.06239 98.616 6.04756 98.616 4.67757C98.616 3.18146 99.6478 2.81328 100.132 4.13658C100.34 4.70481 100.884 4.49755 101.868 3.47472C103.903 1.35899 107.494 1.44021 108.932 3.6345C110.184 5.54589 111.432 5.18933 110.844 3.0881C110.575 2.12844 110.64 1.93844 111.041 2.51327C111.521 3.20273 111.806 3.17013 112.489 2.34781C112.956 1.78455 113.972 1.32826 114.747 1.33384C115.899 1.34213 115.974 1.46079 115.162 1.98556C114.307 2.53847 114.324 2.62854 115.289 2.63727C115.904 2.64285 116.592 2.34958 116.817 1.98556C117.645 0.646246 118.611 1.33998 118.2 2.97833C117.96 3.93249 118.07 4.63296 118.459 4.63296C118.83 4.63296 119.133 4.37044 119.133 4.04957C119.133 3.7287 120.542 3.00248 122.263 2.43575C124.639 1.65349 125.514 1.59474 125.893 2.19183C126.237 2.73269 126.397 2.74657 126.404 2.23629C126.409 1.82816 127.977 1.25693 129.888 0.966885C136.919 -0.100192 136.382 -0.278658 136.06 3.01776C135.812 5.54638 135.944 5.95667 137.005 5.95667C137.683 5.95667 138.427 5.361 138.658 4.63296C139.001 3.55372 139.712 3.28989 142.508 3.20439C147.169 3.0619 148.546 3.23385 148.806 3.99062C149.149 4.98922 150.24 4.74633 150.24 3.67137C150.24 2.90168 150.934 2.78978 153.715 3.11067C155.626 3.33116 157.339 3.73654 157.522 4.01152C157.705 4.28649 158.971 4.72087 160.335 4.9768C161.699 5.23273 162.816 5.65524 162.816 5.9157C162.816 6.17616 163.76 6.25066 164.914 6.08126C166.754 5.81129 166.876 5.67342 165.907 4.96468C164.164 3.68991 164.617 3.29166 166.621 4.33721C167.622 4.85941 168.943 5.2885 169.556 5.29074C170.27 5.29334 170.745 5.93238 170.879 7.07066C171.033 8.37531 171.682 9.08745 173.325 9.75458C175.347 10.5761 175.521 10.5587 175.142 9.57188C173.938 6.43591 173.942 5.30161 175.155 4.85287C175.831 4.60302 176.596 4.07903 176.856 3.68846C177.385 2.89464 184.656 2.69538 184.657 3.47472C184.657 3.74774 184.136 4.00234 183.499 4.04051C182.862 4.07868 183.383 4.45097 184.657 4.86783C185.931 5.28468 187.32 5.85097 187.744 6.12626C188.168 6.40154 188.667 6.25262 188.852 5.79533C189.113 5.15129 189.334 5.17167 189.833 5.88576C190.225 6.44612 191.668 6.80762 193.514 6.80762C196.269 6.80762 196.675 7.01767 197.884 9.06739C198.618 10.3103 199.218 11.7352 199.218 12.234C199.218 13.4049 206.08 16.665 207.444 16.1418C208.174 15.8615 208.483 16.1347 208.483 17.0602C208.483 18.5779 211.141 19.5867 211.901 18.3574C212.251 17.7898 212.941 17.9809 214.379 19.0441C215.475 19.8544 217.129 20.5174 218.054 20.5174C219.322 20.5174 219.735 20.8598 219.735 21.9119C219.735 22.8434 220.046 23.1869 220.673 22.9465C221.189 22.7485 221.775 23.0145 221.976 23.5375C222.177 24.0606 222.722 24.4904 223.189 24.4927C223.655 24.495 224.544 25.3885 225.164 26.4783C225.791 27.5799 226.846 28.4596 227.54 28.4596C228.229 28.4596 229.126 29.2007 229.542 30.1143C229.957 31.0243 230.824 31.7784 231.469 31.79C232.528 31.809 232.513 31.9093 231.317 32.8264C230.055 33.7949 230.082 33.82 231.912 33.3706C233.279 33.0351 233.696 33.1177 233.363 33.6579C233.105 34.075 233.206 34.4163 233.587 34.4163C234.626 34.4163 236.943 36.5746 236.943 37.5417C236.943 38.0069 237.399 38.3874 237.957 38.3874C238.514 38.3874 239.142 38.8342 239.351 39.3802C239.561 39.9262 240.316 40.373 241.03 40.373C241.993 40.373 242.227 40.6897 241.937 41.6034C241.326 43.5284 242.175 44.887 244.279 45.3492C245.551 45.6284 246.341 46.2957 246.594 47.3026C246.805 48.1438 247.847 49.6649 248.91 50.683C249.973 51.701 250.842 53.0915 250.842 53.7729C250.842 54.4543 251.14 54.8278 251.504 54.6028C251.868 54.3778 252.166 54.5673 252.166 55.0239C252.166 55.4805 252.985 56.7355 253.986 57.8127C254.987 58.89 255.403 59.5398 254.91 59.2566C254.302 58.9072 254.373 59.2902 255.132 60.4489C255.748 61.3877 256.059 62.4668 255.824 62.8468C255.589 63.2269 255.861 63.5378 256.429 63.5378C256.996 63.5378 257.461 63.8675 257.461 64.2705C257.461 64.6734 257.858 64.8507 258.343 64.6645C258.828 64.4782 259.225 64.7383 259.225 65.2423C259.225 67.0757 260.999 71.8358 262.043 72.8037C262.632 73.3498 263.517 75.1368 264.009 76.7748C266.45 84.9038 267.001 86.4103 267.84 87.2485C268.426 87.8348 268.636 89.0683 268.435 90.7382C268.264 92.1588 268.405 93.3212 268.749 93.3212C269.093 93.3212 269.374 94.0657 269.374 94.9758C269.374 95.8858 269.672 96.6304 270.036 96.6304C270.4 96.6304 270.698 97.648 270.698 98.8917C270.698 100.135 270.991 101.252 271.35 101.374C272.001 101.594 273.043 105.723 273.784 111.012C274 112.552 274.436 113.652 274.753 113.455C275.071 113.259 275.331 113.712 275.331 114.461C275.331 115.211 275.084 115.824 274.783 115.824C274.482 115.824 274.354 116.643 274.498 117.644C274.642 118.645 274.493 120.18 274.166 121.056C273.792 122.056 273.836 123.408 274.285 124.696C275.177 127.253 276.975 129.844 277.496 129.322C277.712 129.107 277.725 129.555 277.525 130.319C277.325 131.083 276.675 131.732 276.081 131.761C275.394 131.794 275.302 131.935 275.827 132.147C277.063 132.646 276.872 135.68 275.605 135.68C274.776 135.68 274.602 136.272 274.777 138.493C274.936 140.504 274.76 141.257 274.159 141.135C273.582 141.019 273.443 141.464 273.716 142.552C273.935 143.425 273.787 144.341 273.388 144.588C272.988 144.835 272.836 145.319 273.049 145.664C273.262 146.009 273.716 146.118 274.058 145.907C274.399 145.696 275.164 146.008 275.756 146.6C276.623 147.467 276.685 147.96 276.076 149.124C275.659 149.92 275.06 153.177 274.745 156.361C274.43 159.545 273.863 162.523 273.486 162.979C273.109 163.435 272.854 164.925 272.919 166.29C273.047 168.988 272.443 169.359 270.618 167.707C269.501 166.697 269.475 166.768 270.117 169.091C270.489 170.438 270.621 171.987 270.412 172.534C270.168 173.168 270.51 173.653 271.357 173.875C272.086 174.065 272.683 174.609 272.683 175.082C272.683 175.555 273.055 176.075 273.51 176.238C273.992 176.41 274.092 176.779 273.751 177.12C273.409 177.462 273.04 177.361 272.868 176.88C272.706 176.425 272.176 176.053 271.69 176.053C271.205 176.053 270.658 175.68 270.474 175.225C270.29 174.77 270.117 175.051 270.088 175.848C270.059 176.646 269.78 177.456 269.468 177.649C269.156 177.842 268.723 179.572 268.505 181.494C268.288 183.415 267.361 186.477 266.446 188.297C264.542 192.084 264.415 192.699 265.568 192.55C267.262 192.33 267.771 192.633 267.868 193.923C267.925 194.679 267.56 195.246 267.016 195.246C265.863 195.246 265.789 196.03 266.843 197.084C267.44 197.681 267.339 198.175 266.41 199.202C265.743 199.939 264.797 200.541 264.307 200.541C263.274 200.541 263.105 198.827 264.079 198.225C264.443 198 264.717 196.865 264.689 195.704L264.636 193.592L263.927 195.547C263.536 196.623 262.959 197.814 262.643 198.195C262.327 198.575 261.517 199.559 260.841 200.38C260.166 201.202 259.426 203.049 259.196 204.486C258.966 205.922 258.035 207.9 257.127 208.88C255.484 210.653 254.874 212.242 256.137 211.462C256.501 211.237 256.799 211.388 256.799 211.798C256.799 212.208 256.277 212.379 255.64 212.177C254.769 211.9 254.459 212.205 254.39 213.406C254.339 214.284 253.52 215.841 252.57 216.865C251.62 217.89 250.842 219.03 250.842 219.397C250.842 219.765 249.779 220.914 248.48 221.951C247.029 223.108 246.26 224.207 246.487 224.798C246.693 225.336 246.567 225.582 246.202 225.356C245.842 225.134 245.547 225.28 245.547 225.68C245.547 226.445 245.258 226.863 242.668 229.838C241.555 231.116 240.718 231.532 239.893 231.215C239.042 230.888 238.856 230.995 239.229 231.599C239.536 232.096 239.163 233.226 238.308 234.382C237.404 235.605 237.022 236.811 237.282 237.628C237.508 238.344 237.401 238.929 237.043 238.929C236.685 238.929 236.28 238.594 236.144 238.185C235.912 237.489 228.279 244.876 227.778 246.282C227.651 246.638 228.247 246.81 229.102 246.665C229.956 246.52 230.271 246.532 229.801 246.69C229.292 246.862 229.109 247.492 229.349 248.248C229.598 249.032 229.439 249.518 228.935 249.518C228.486 249.518 228.303 249.334 228.528 249.109C228.754 248.883 228.528 248.288 228.026 247.787C227.098 246.859 225.03 247.189 225.03 248.265C225.03 248.59 224.692 248.856 224.28 248.856C223.868 248.856 223.049 249.408 222.46 250.082C221.871 250.756 220.424 251.805 219.245 252.412C218.065 253.02 216.616 254.255 216.025 255.158C215.434 256.06 214.527 256.799 214.01 256.799C213.247 256.799 210.756 258.075 209.165 259.282C208.993 259.412 209.291 259.801 209.826 260.146C210.609 260.65 210.54 260.751 209.476 260.657C207.678 260.497 203.851 261.479 203.851 262.099C203.851 262.375 203.193 262.773 202.39 262.983C201.587 263.193 201.136 263.571 201.387 263.822C202.019 264.454 198.516 266.191 197.441 265.778C196.331 265.353 196.291 266.488 197.397 266.996C197.853 267.205 197.573 267.216 196.777 267.02C195.375 266.675 192.84 267.689 191.721 269.043C191.368 269.47 191.052 269.402 190.83 268.85C190.574 268.217 190.202 268.319 189.391 269.244C188.789 269.93 187.552 270.649 186.642 270.841C185.732 271.032 184.418 271.427 183.721 271.718C182.754 272.121 182.584 272.036 183.002 271.359C183.408 270.703 183.25 270.588 182.395 270.916C181.759 271.16 180.966 271.359 180.632 271.359C180.297 271.359 180.024 271.806 180.024 272.352C180.024 272.898 179.577 273.345 179.031 273.345C178.485 273.345 178.038 273.047 178.038 272.683C178.038 272.319 177.706 272.021 177.299 272.021C176.877 272.021 176.714 272.611 176.92 273.397C177.18 274.39 177.023 274.675 176.356 274.419C175.848 274.224 174.604 274.496 173.591 275.024C171.204 276.269 169.113 276.246 167.139 274.953C165.907 274.145 165.246 274.077 164.184 274.645C163.431 275.048 162.816 275.664 162.816 276.016C162.816 276.367 162.202 276.654 161.453 276.654C160.703 276.654 160.255 276.388 160.456 276.062C160.658 275.736 160.381 275.3 159.84 275.092C159.183 274.84 158.722 275.256 158.449 276.347C157.88 278.612 156.647 278.401 156.985 276.096L157.261 274.215L154.263 275.117C152.614 275.613 150.858 275.863 150.361 275.672C149.829 275.468 149.313 275.872 149.109 276.651C148.711 278.174 148.189 278.31 147.064 277.184C146.446 276.566 146.093 276.566 145.475 277.184C144.541 278.118 138.989 278.264 138.989 277.355H138.989ZM56.2574 256.137C56.2574 255.773 55.942 255.475 55.5565 255.475C55.171 255.475 55.0397 255.773 55.2647 256.137C55.4896 256.501 55.805 256.799 55.9656 256.799C56.1261 256.799 56.2574 256.501 56.2574 256.137ZM180.494 227.449C193.857 224.462 207.472 211.548 212 197.563C215.708 186.114 215.103 171.389 210.495 160.889C209.376 158.339 208.167 154.712 207.81 152.829C207.014 148.63 205.397 145.929 201.559 142.392C199.655 140.637 198.366 138.758 197.914 137.078C197.256 134.635 191.62 127.076 190.457 127.076C189.17 127.076 184.657 130.667 184.657 131.691C184.657 134.196 186.687 139.32 188.645 141.757C190.182 143.669 190.87 145.386 191.29 148.356C191.887 152.583 193.27 155.157 197.687 160.26C199.553 162.416 200.796 164.887 202.143 169.117C203.83 174.411 203.98 175.637 203.681 181.641C203.248 190.331 200.973 197.472 196.512 204.142C194.683 206.876 192.839 209.328 192.414 209.59C191.99 209.853 192.316 209.041 193.139 207.786C198.345 199.852 200.541 192.476 200.541 182.925C200.541 170.532 195.792 159.736 186.726 151.518C182.077 147.304 173.908 142.825 168.772 141.674C164.697 140.761 152.826 140.804 149.088 141.746C134.371 145.451 121.874 159.025 118.75 174.698C116.138 187.803 120.184 202.612 128.962 212.082L131.378 214.688L127.84 211.802C117.494 203.364 112.159 188.493 114.811 175.49C116.468 167.368 117.802 164.011 122.913 155.103C125.688 150.266 128.381 144.462 129.669 140.542C130.847 136.958 132.644 132.972 133.662 131.686C136.577 128.001 139.077 122.541 139.287 119.397C139.393 117.812 139.965 115.774 140.558 114.869C142.148 112.443 141.899 111.562 139.274 110.31C136.482 108.978 135.93 109.205 135.332 111.93C135.063 113.156 134.169 114.387 133.107 114.997C130.734 116.359 126.477 123.074 125.401 127.152C124.891 129.083 123.596 131.477 122.259 132.957C116.84 138.955 112.779 146.088 108.839 156.528C105.392 165.663 104.635 169.197 104.157 178.369C103.616 188.755 104.779 195.051 108.811 203.562C111.372 208.969 112.607 210.661 117.613 215.621C124.531 222.475 130.353 225.829 138.456 227.628C145.76 229.25 172.957 229.134 180.494 227.449ZM154.873 215.944C152.507 214.986 150.389 213.933 150.166 213.603C149.944 213.273 149.57 213.032 149.335 213.067C149.101 213.103 147.163 212.25 145.028 211.173C138.03 207.64 132.111 199.734 129.348 190.228C126.924 181.89 129.515 171.152 135.917 163.003C141.46 155.948 152.927 150.928 161.492 151.808C165.08 152.176 171.436 154.008 172.082 154.859C172.264 155.099 173.821 155.969 175.542 156.791C181.822 159.793 188.429 169.574 190.024 178.233C192.387 191.057 184.47 205.826 171.42 212.937C167.711 214.957 159.735 218.083 159.221 217.717C159.196 217.699 157.24 216.901 154.873 215.944ZM97.145 148.548C99.2247 147.092 99.0164 144.666 96.2995 138.704C95.0254 135.908 93.983 133.241 93.983 132.776C93.983 132.312 95.4536 130.979 97.251 129.814C103.583 125.711 105.395 119.864 102.297 113.532L100.514 109.888L104.772 104.417C110.555 96.9868 113.136 92.2065 113.634 87.9997C113.98 85.0818 113.849 84.3759 112.823 83.6259C111.137 82.3927 49.0145 82.297 47.7857 83.5257C45.0748 86.2367 48.557 95.1471 55.9904 104.52C59.6301 109.109 60.2751 110.278 59.6443 111.139C56.3274 115.665 56.0924 122.021 59.0963 125.959C60.0561 127.217 62.1922 129.1 63.8431 130.143C65.494 131.186 66.842 132.337 66.8388 132.701C66.8354 133.065 65.6479 135.895 64.1997 138.989C61.153 145.498 61.0361 146.399 63.0008 148.229C64.3736 149.508 65.2647 149.579 80.0616 149.579C93.1209 149.579 95.9146 149.41 97.145 148.548ZM227.707 129.564C230.221 126.956 230.962 125.744 230.694 124.677C230.198 122.699 224.798 117.176 220.066 113.808C217.882 112.253 215.626 110.507 215.054 109.928C214.482 109.348 212.174 107.254 209.925 105.273C207.676 103.292 205.836 101.282 205.836 100.805C205.836 100.329 205.549 99.9397 205.199 99.9397C204.477 99.9397 199.758 93.2146 197.246 88.6055C188.811 73.1312 184.659 68.2357 167.937 54.0502C165.506 51.988 163.338 50.3008 163.119 50.3008C162.9 50.3008 162.274 49.854 161.728 49.308C161.182 48.762 160.334 48.3152 159.843 48.3152C158.066 48.3152 159.483 57.3324 161.451 58.5487C161.838 58.7875 162.154 59.6781 162.154 60.5277C162.154 61.3773 162.601 62.2439 163.147 62.4534C163.693 62.663 164.139 63.4394 164.139 64.1789C164.139 64.9327 164.575 65.5234 165.132 65.5234C165.678 65.5234 166.125 66.0872 166.125 66.7763C166.125 67.4653 166.572 68.2006 167.118 68.4101C168.207 68.8282 168.498 70.8182 167.469 70.8182C167.117 70.8182 167.006 71.282 167.224 71.849C167.443 72.4191 168.052 72.714 168.586 72.5087C170.037 71.9519 170.953 72.7643 170.071 73.8264C169.219 74.8535 169.801 76.2378 170.973 75.9715C172.556 75.6121 179.555 80.2618 183.532 84.3141C188.028 88.8952 188.36 89.3216 194.922 98.9469C197.404 102.587 200.186 106.384 201.105 107.386C202.023 108.387 202.495 109.204 202.154 109.201C200.666 109.191 197.024 105.982 186.639 95.5339C180.546 89.4026 175.15 84.0883 174.648 83.7243C170.856 80.9722 144.428 68.1708 142.538 68.1708C141.957 68.1708 142.383 70.3862 143.308 72.1748C143.887 73.294 144.028 74.1274 143.639 74.1274C143.266 74.1274 142.96 74.5742 142.96 75.1202C142.96 75.6662 143.416 76.113 143.974 76.113C144.531 76.113 145.154 76.5484 145.358 77.0806C145.563 77.6128 146.298 78.2285 146.992 78.4489C147.779 78.6985 148.255 79.4569 148.255 80.4596C148.255 81.6284 148.618 82.0697 149.579 82.0697C150.461 82.0697 150.902 82.5109 150.902 83.3934C150.902 84.2758 151.344 84.7171 152.226 84.7171C152.954 84.7171 153.55 85.1438 153.55 85.6652C153.55 86.1867 154.145 86.8025 154.873 87.0336C155.601 87.2646 156.197 88.0293 156.197 88.7328C156.197 89.5706 156.654 90.0119 157.521 90.0119C158.393 90.0119 158.844 90.4531 158.844 91.3056C158.844 92.2878 159.442 92.6961 161.326 93.0014C168.784 94.2097 177.112 98.5983 183.995 104.947C187.303 107.999 190.538 110.913 193.621 113.62C195.094 114.913 200.902 118.341 206.528 121.238C221.248 128.818 223.602 130.308 223.213 131.797C222.652 133.943 224.252 133.148 227.707 129.564ZM241.397 41.2968C241.177 41.0769 240.606 41.0534 240.128 41.2446C239.6 41.4558 239.757 41.6127 240.528 41.6444C241.226 41.6732 241.617 41.5167 241.397 41.2968ZM85.8302 275.074C85.5831 274.431 85.8583 274.256 86.7522 274.49C88.2176 274.873 88.48 275.992 87.1044 275.992C86.5973 275.992 86.0239 275.579 85.8302 275.074ZM137.717 273.621C137.749 272.85 137.906 272.693 138.117 273.221C138.309 273.699 138.285 274.269 138.065 274.489C137.845 274.709 137.689 274.318 137.718 273.621H137.717ZM101.925 272.313C101.925 271.746 102.223 271.465 102.587 271.69C102.951 271.915 103.249 272.38 103.249 272.722C103.249 273.065 102.951 273.345 102.587 273.345C102.223 273.345 101.925 272.881 101.925 272.313ZM56.9193 260.77C56.9193 260.406 57.2171 260.108 57.5811 260.108C57.9452 260.108 58.243 260.406 58.243 260.77C58.243 261.134 57.9452 261.432 57.5811 261.432C57.2171 261.432 56.9193 261.134 56.9193 260.77ZM222.382 252.145C222.382 251.792 222.829 251.504 223.375 251.504C223.921 251.504 224.368 251.621 224.368 251.764C224.368 251.907 223.921 252.196 223.375 252.405C222.829 252.615 222.382 252.497 222.382 252.145ZM37.0637 242.9C37.0637 242.536 37.3616 242.238 37.7256 242.238C38.0896 242.238 38.3874 242.536 38.3874 242.9C38.3874 243.264 38.0896 243.562 37.7256 243.562C37.3616 243.562 37.0637 243.264 37.0637 242.9ZM235.639 240.278C235.103 239.94 234.837 239.49 235.048 239.28C235.258 239.069 235.807 239.351 236.268 239.905C237.223 241.056 237.04 241.164 235.639 240.278ZM241.576 232.972C241.576 232.608 241.874 232.31 242.238 232.31C242.602 232.31 242.9 232.608 242.9 232.972C242.9 233.336 242.602 233.634 242.238 233.634C241.874 233.634 241.576 233.336 241.576 232.972ZM244.938 231.262C244.969 230.491 245.126 230.334 245.337 230.862C245.529 231.34 245.505 231.911 245.285 232.131C245.065 232.351 244.909 231.96 244.938 231.262H244.938ZM244.223 229.001C244.223 228.637 244.521 228.339 244.885 228.339C245.249 228.339 245.547 228.637 245.547 229.001C245.547 229.365 245.249 229.663 244.885 229.663C244.521 229.663 244.223 229.365 244.223 229.001ZM250.18 224.699C250.18 224.153 250.469 223.706 250.821 223.706C251.174 223.706 251.291 224.153 251.081 224.699C250.872 225.245 250.583 225.692 250.44 225.692C250.297 225.692 250.18 225.245 250.18 224.699ZM21.8411 224.494C21.8411 224.138 22.3128 223.667 22.8892 223.445C23.5338 223.198 23.8364 223.346 23.6752 223.83C23.3454 224.819 21.8411 225.364 21.8411 224.494ZM13.237 211.131C13.237 210.767 13.5349 210.469 13.8989 210.469C14.2629 210.469 14.5608 210.767 14.5608 211.131C14.5608 211.495 14.2629 211.793 13.8989 211.793C13.5349 211.793 13.237 211.495 13.237 211.131ZM263.417 205.797C263.417 205.411 263.715 205.28 264.079 205.505C264.443 205.73 264.741 206.046 264.741 206.206C264.741 206.367 264.443 206.498 264.079 206.498C263.715 206.498 263.417 206.182 263.417 205.797ZM263.417 202.527C263.417 202.163 263.715 201.865 264.079 201.865C264.443 201.865 264.741 202.163 264.741 202.527C264.741 202.891 264.443 203.189 264.079 203.189C263.715 203.189 263.417 202.891 263.417 202.527ZM268.712 187.343C268.712 186.637 268.984 185.89 269.317 185.684C270.043 185.236 270.626 186.637 270.198 187.801C269.725 189.086 268.712 188.774 268.712 187.343ZM272.021 180.961C272.021 179.793 273.446 179.996 273.855 181.223C273.999 181.656 273.646 182.009 273.069 182.009C272.493 182.009 272.021 181.538 272.021 180.961ZM272.187 172.415C271.04 171.113 271.147 170.758 272.683 170.758C273.566 170.758 274.007 171.199 274.007 172.082C274.007 173.622 273.355 173.742 272.187 172.415ZM275.11 144.504C274.348 143.743 274.628 142.96 275.661 142.96C276.207 142.96 276.654 143.407 276.654 143.953C276.654 144.986 275.871 145.266 275.11 144.504ZM275.33 126.414C275.33 126.05 275.646 125.752 276.031 125.752C276.417 125.752 276.548 126.05 276.323 126.414C276.098 126.778 275.783 127.076 275.622 127.076C275.462 127.076 275.33 126.778 275.33 126.414ZM275.33 118.472C275.33 118.108 275.628 117.81 275.992 117.81C276.356 117.81 276.654 118.108 276.654 118.472C276.654 118.836 276.356 119.133 275.992 119.133C275.628 119.133 275.33 118.836 275.33 118.472ZM2.03781 111.467C2.06957 110.696 2.2264 110.539 2.43768 111.067C2.62887 111.545 2.60536 112.116 2.38543 112.336C2.16551 112.556 2.00908 112.165 2.03781 111.467ZM1.32371 105.234C1.32371 104.87 1.62155 104.573 1.98556 104.573C2.34958 104.573 2.64741 104.87 2.64741 105.234C2.64741 105.599 2.34958 105.896 1.98556 105.896C1.62155 105.896 1.32371 105.599 1.32371 105.234ZM3.30927 103.58C3.30927 103.034 3.6071 102.587 3.97112 102.587C4.33514 102.587 4.63297 103.034 4.63297 103.58C4.63297 104.126 4.33514 104.573 3.97112 104.573C3.6071 104.573 3.30927 104.126 3.30927 103.58ZM4.78465 91.2115C5.19372 89.9843 6.61853 89.7807 6.61853 90.9495C6.61853 91.5259 6.14696 91.9974 5.5706 91.9974C4.99423 91.9974 4.64056 91.6438 4.78465 91.2115ZM266.726 78.7604C266.726 78.3964 267.024 78.0985 267.388 78.0985C267.752 78.0985 268.05 78.3964 268.05 78.7604C268.05 79.1244 267.752 79.4222 267.388 79.4222C267.024 79.4222 266.726 79.1244 266.726 78.7604ZM265.072 77.4367C264.847 77.0727 264.978 76.7748 265.364 76.7748C265.749 76.7748 266.065 77.0727 266.065 77.4367C266.065 77.8007 265.933 78.0985 265.773 78.0985C265.612 78.0985 265.297 77.8007 265.072 77.4367ZM26.4741 52.9045C26.4741 52.0284 27.5988 51.5896 28.7308 52.0241C30.3304 52.6379 29.9885 53.4446 28.1287 53.4446C27.2187 53.4446 26.4741 53.2015 26.4741 52.9045ZM32.4308 46.3297C31.9058 46.0052 31.696 45.5201 31.9646 45.2515C32.2331 44.983 32.8003 45.1107 33.225 45.5354C34.225 46.5354 33.6668 47.0936 32.4308 46.3297ZM37.4229 40.4187C37.2135 40.0798 37.3136 39.6348 37.6454 39.4297C37.9772 39.2247 38.4195 39.5019 38.6282 40.0459C39.0397 41.1181 38.0453 41.4258 37.4229 40.4187ZM240.271 39.0751C239.736 38.7365 239.47 38.2873 239.68 38.0769C240.202 37.5555 242.238 38.386 242.238 39.1201C242.238 39.8745 241.509 39.8578 240.271 39.0751ZM41.6967 33.7545C41.6967 33.3904 41.9945 33.0926 42.3585 33.0926C42.7226 33.0926 43.0204 33.3904 43.0204 33.7545C43.0204 34.1185 42.7226 34.4163 42.3585 34.4163C41.9945 34.4163 41.6967 34.1185 41.6967 33.7545ZM48.3152 27.7978C48.3152 27.4338 48.6306 27.1359 49.0161 27.1359C49.4016 27.1359 49.533 27.4338 49.308 27.7978C49.083 28.1618 48.7676 28.4596 48.6071 28.4596C48.4465 28.4596 48.3152 28.1618 48.3152 27.7978ZM58.9048 21.1793C58.9048 20.8152 59.2027 20.5174 59.5667 20.5174C59.9307 20.5174 60.2285 20.8152 60.2285 21.1793C60.2285 21.5433 59.9307 21.8411 59.5667 21.8411C59.2027 21.8411 58.9048 21.5433 58.9048 21.1793ZM209.374 16.8487C208.838 15.452 209.732 14.6979 210.495 15.9036C211.305 17.1848 211.289 17.87 210.448 17.87C210.073 17.87 209.589 17.4104 209.374 16.8487H209.374ZM214.45 17.3736C214.469 16.4678 215.685 14.9236 216.074 15.3125C216.596 15.8339 215.765 17.87 215.031 17.87C214.706 17.87 214.445 17.6466 214.45 17.3736ZM212.13 15.8737C212.359 15.5037 212.823 15.3724 213.162 15.5818C214.08 16.1492 213.909 16.5463 212.746 16.5463C212.179 16.5463 211.902 16.2436 212.13 15.8737ZM205.505 15.2226C205.28 14.8586 205.411 14.5607 205.797 14.5607C206.182 14.5607 206.498 14.8586 206.498 15.2226C206.498 15.5866 206.367 15.8845 206.206 15.8845C206.045 15.8845 205.73 15.5866 205.505 15.2226ZM76.113 10.5896C76.113 10.2256 76.4108 9.92778 76.7748 9.92778C77.1389 9.92778 77.4367 10.2256 77.4367 10.5896C77.4367 10.9537 77.1389 11.2515 76.7748 11.2515C76.4108 11.2515 76.113 10.9537 76.113 10.5896ZM162.485 3.97111C162.71 3.6071 163.025 3.30926 163.186 3.30926C163.346 3.30926 163.477 3.6071 163.477 3.97111C163.477 4.33513 163.162 4.63296 162.777 4.63296C162.391 4.63296 162.26 4.33513 162.485 3.97111ZM173.801 4.14613C173.004 3.34942 173.439 2.64741 174.729 2.64741C175.457 2.64741 176.053 2.91338 176.053 3.23845C176.053 3.9824 174.331 4.67635 173.801 4.14613ZM88.0263 3.2702C88.0263 2.8847 88.3242 2.75336 88.6882 2.97833C89.0522 3.20331 89.35 3.51872 89.35 3.67925C89.35 3.83977 89.0522 3.97111 88.6882 3.97111C88.3242 3.97111 88.0263 3.6557 88.0263 3.2702ZM168.11 3.2702C168.11 2.8847 168.408 2.75336 168.772 2.97833C169.136 3.20331 169.434 3.51872 169.434 3.67925C169.434 3.83977 169.136 3.97111 168.772 3.97111C168.408 3.97111 168.11 3.6557 168.11 3.2702ZM187.304 2.36501C187.304 1.75105 187.87 1.3237 188.683 1.3237C190.296 1.3237 190.068 2.8703 188.408 3.19233C187.754 3.31899 187.304 2.98135 187.304 2.36501ZM138.327 0.992778C138.327 0.44675 138.625 0 138.989 0C139.353 0 139.651 0.44675 139.651 0.992778C139.651 1.53881 139.353 1.98556 138.989 1.98556C138.625 1.98556 138.327 1.53881 138.327 0.992778Z" fill="black"/>
</svg>
