<?xml version="1.0" encoding="UTF-8" standalone="no"?>
<svg
   xmlns:dc="http://purl.org/dc/elements/1.1/"
   xmlns:cc="http://creativecommons.org/ns#"
   xmlns:rdf="http://www.w3.org/1999/02/22-rdf-syntax-ns#"
   xmlns:svg="http://www.w3.org/2000/svg"
   xmlns="http://www.w3.org/2000/svg"
   xmlns:sodipodi="http://sodipodi.sourceforge.net/DTD/sodipodi-0.dtd"
   xmlns:inkscape="http://www.inkscape.org/namespaces/inkscape"
   version="1.1"
   id="svg2"
   width="730.96448"
   height="1218.274"
   viewBox="0 0 730.96448 1218.274"
   sodipodi:docname="bg.svg"
   inkscape:version="1.0.2-2 (e86c870879, 2021-01-15)">
  <metadata
     id="metadata8">
    <rdf:RDF>
      <cc:Work
         rdf:about="">
        <dc:format>image/svg+xml</dc:format>
        <dc:type
           rdf:resource="http://purl.org/dc/dcmitype/StillImage" />
        <dc:title></dc:title>
      </cc:Work>
    </rdf:RDF>
  </metadata>
  <defs
     id="defs6" />
  <sodipodi:namedview
     pagecolor="#ffffff"
     bordercolor="#666666"
     borderopacity="1"
     objecttolerance="10"
     gridtolerance="10"
     guidetolerance="10"
     inkscape:pageopacity="0"
     inkscape:pageshadow="2"
     inkscape:window-width="1920"
     inkscape:window-height="1017"
     id="namedview4"
     showgrid="false"
     inkscape:zoom="0.69770837"
     inkscape:cx="365.48224"
     inkscape:cy="207.82322"
     inkscape:window-x="-8"
     inkscape:window-y="-8"
     inkscape:window-maximized="1"
     inkscape:current-layer="g10" />
  <g
     inkscape:groupmode="layer"
     inkscape:label="Image"
     id="g10">
    <path
       style="fill:#000000;stroke-width:2.43655"
       d="m 33.971525,1196.3064 c -1.37011,-3.5704 2.27327,-7.7237 6.84845,-7.807 1.89323,-0.034 171.156855,-29.2214 218.457415,-37.6697 26.46852,-4.7275 31.67513,-4.737 31.67513,-0.057 0,2.0522 -1.37056,4.23 -3.04568,4.8396 -1.67513,0.6096 -57.3198,10.464 -123.65483,21.8986 -66.335019,11.4347 -122.457105,21.1966 -124.715735,21.6932 -2.25863,0.4965 -4.76277,-0.8071 -5.56475,-2.8971 z m -4.59055,-24.291 c -8.31802,-44.6566 -8.28588,-41.0379 -0.37673,-42.4079 3.91154,-0.6776 5.09399,0.8146 6.09137,7.6871 0.68859,4.7448 2.58874,8.4199 4.2833,8.2843 11.23786,-0.8991 11.02837,-0.6606 9.41968,-10.7208 -1.45222,-9.0817 -1.16229,-9.7462 4.2521,-9.7462 5.39033,0 6.09733,1.5672 9.77499,21.669 5.03271,27.5083 5.06426,27.0619 -1.9128,27.0619 -4.95794,0 -6.13475,-1.5244 -7.52381,-9.7462 -1.61002,-9.5295 -4.0806,-11.2998 -11.6932,-8.3786 -2.76124,1.0596 -3.11416,3.3614 -1.5671,10.2208 2.31034,10.2438 1.3261,12.7771 -4.96402,12.7771 -3.0211,0 -4.95247,-2.2374 -5.78378,-6.7005 z m 46.15363,-10.5423 c -8.80717,-10.4667 -8.96856,-29.049 -0.32735,-37.6902 17.165336,-17.1654 42.335075,5.6904 35.104555,31.8772 -2.67822,9.6996 -8.10223,13.3096 -19.997739,13.3096 -6.468556,0 -9.962926,-1.7724 -14.779466,-7.4966 z m 20.006746,-5.1734 c 3.88939,-3.8894 3.72452,-16.9787 -0.28287,-22.4592 -1.77806,-2.4316 -5.30606,-3.9648 -7.91879,-3.4412 -3.902356,0.7819 -4.683676,2.9536 -4.546966,12.6385 0.19719,13.9689 6.002566,20.008 12.748626,13.2619 z m 362.544419,2.6692 c -5.5948,-4.4009 -7.48788,-4.7263 -13.35501,-2.2961 -13.558,5.6159 -27.07773,-3.1136 -27.07773,-17.4838 0,-3.7221 -1.14627,-6.7675 -2.54729,-6.7675 -1.40101,0 -5.23858,-2.6913 -8.52792,-5.9806 -6.45349,-6.4535 -7.97138,-17.856 -3.03418,-22.7932 2.30422,-2.3042 1.73962,-3.7918 -2.59034,-6.8246 -11.73116,-8.2168 -11.25352,-26.1408 0.86948,-32.6288 5.36506,-2.8713 5.563,-3.5711 2.31998,-8.2012 -10.90348,-15.5669 5.83178,-35.4312 24.02315,-28.5148 3.6673,1.3943 7.30265,4.1894 8.07855,6.2113 1.11301,2.9005 2.84854,2.137 8.22476,-3.6182 9.331,-9.9889 21.54077,-10.1199 29.78719,-0.3196 l 5.86906,6.975 5.12764,-5.7567 c 5.46884,-6.1398 16.84194,-7.6802 24.89266,-3.3716 5.17642,2.7704 10.26593,15.6047 8.26051,20.8308 -0.75687,1.9724 -0.16228,3.5861 1.32109,3.5861 10.6321,0 16.61814,23.0236 8.35887,32.15 -3.1313,3.4601 -3.41562,5.1823 -1.21827,7.3797 4.88662,4.8866 3.37766,17.6176 -2.77299,23.3959 -3.1016,2.9138 -7.48739,5.2978 -9.74619,5.2978 -2.95846,0 -4.10692,2.0889 -4.10692,7.4698 0,10.3383 -3.3918,15.6909 -12.27429,19.3701 -4.1731,1.7286 -10.70933,6.2648 -14.52499,10.0804 -8.24682,8.2468 -16.43089,8.8309 -25.35682,1.8098 z m -14.11802,-14.8519 c 4.2673,-4.2673 3.58197,-8.7353 -1.78002,-11.6049 -6.68818,-3.5794 -13.40425,3.1367 -9.82484,9.8248 2.86964,5.362 7.33757,6.0474 11.60486,1.7801 z m -19.40104,-21.1454 c 4.88579,-3.0969 2.56925,-13.6973 -2.9933,-13.6973 -6.6843,0 -10.56163,7.1164 -6.52644,11.9785 3.64038,4.3864 4.94084,4.6212 9.51974,1.7188 z m 35.37018,-18.5219 c 1.9036,-4.9608 -4.38912,-12.051 -9.09337,-10.2458 -6.25774,2.4013 -7.799,9.2313 -2.89269,12.8189 4.77324,3.4902 10.09795,2.3472 11.98606,-2.5731 z m -45.93868,-23.1957 c 0,-4.4655 -1.46617,-6.2996 -5.49313,-6.8714 -5.98686,-0.8501 -9.38719,4.3751 -6.96119,10.6971 0.88057,2.2948 3.6663,3.5136 6.96119,3.0457 4.02696,-0.5718 5.49313,-2.4058 5.49313,-6.8714 z m 31.67513,-15.572 c 0,-2.5341 -1.98301,-5.8235 -4.40667,-7.3096 -3.5078,-2.151 -5.08893,-1.7841 -7.75144,1.7987 -4.76204,6.4079 -1.92339,11.7514 5.76887,10.8594 4.38091,-0.508 6.38924,-2.1892 6.38924,-5.3485 z m -24.36549,-20.9762 c 0,-4.4655 -1.46616,-6.2996 -5.49312,-6.8714 -5.98687,-0.8501 -9.38719,4.3751 -6.96119,10.6971 0.88056,2.2948 3.66629,3.5136 6.96119,3.0457 4.02696,-0.5718 5.49312,-2.4059 5.49312,-6.8714 z m 41.42132,-4.8731 c 0,-4.4655 -1.46616,-6.2996 -5.49312,-6.8714 -5.98687,-0.8501 -9.38719,4.3751 -6.96119,10.6971 0.88056,2.2948 3.66629,3.5136 6.96119,3.0457 4.02696,-0.5718 5.49312,-2.4059 5.49312,-6.8714 z m -340.08591,114.7052 c -6.80154,-6.8016 -8.5217,-13.4768 -7.26896,-28.2077 1.12677,-13.2496 23.03754,-20.5406 34.3063,-11.4157 7.29368,5.9061 10.54172,25.7575 5.74294,35.0998 -6.94341,13.5174 -21.744,15.5598 -32.78028,4.5236 z m 21.62924,-14.9953 c 0.97449,-11.6176 -6.70939,-22.0165 -12.63462,-17.099 -8.29277,6.8823 -3.07171,27.9474 6.5861,26.5725 4.16225,-0.5926 5.4762,-2.6505 6.04852,-9.4735 z m 20.23304,-2.8571 c -1.6299,-9.7158 -3.53729,-20.6802 -4.23864,-24.3655 -1.11577,-5.8629 -0.51371,-6.7005 4.81619,-6.7005 4.84189,0 6.4346,1.5627 7.76462,7.6182 l 1.67324,7.6182 5.282,-9.4456 c 3.84587,-6.8774 7.12238,-9.6587 12.05076,-10.2291 l 6.76874,-0.7834 -6.21261,12.26 -6.21261,12.26 9.51892,10.3089 9.51893,10.3089 1.49614,-10.821 c 0.82287,-5.9516 2.30713,-16.8515 3.29836,-24.222 1.70544,-12.6812 2.17459,-13.401 8.73443,-13.401 6.08564,0 8.05122,2.0828 16.09564,17.0558 13.21413,24.5954 13.99994,28.0203 6.4289,28.0203 -3.37397,0 -7.14161,-1.7996 -8.37254,-3.9992 -3.12676,-5.5872 -15.05994,-2.5205 -15.05994,3.8703 0,3.8121 -2.42408,4.9542 -13.43528,6.33 -12.54434,1.5673 -13.76788,1.2558 -18.45095,-4.6978 -6.75839,-8.5919 -8.74908,-8.0254 -7.56098,2.1515 0.89846,7.696 0.41339,8.528 -4.97214,8.528 -5.51134,0 -6.19435,-1.351 -8.93118,-17.665 z m 60.62287,-13.401 c -0.0205,-1.0051 -1.10018,-3.4721 -2.39924,-5.4823 -1.90995,-2.9554 -2.36907,-2.6057 -2.39924,1.8274 -0.0205,3.0153 1.05914,5.4823 2.39924,5.4823 1.3401,0 2.41976,-0.8224 2.39924,-1.8274 z m 25.81962,11.1226 c -8.25303,-39.0535 -8.27296,-43.4069 -0.19855,-43.4069 5.14382,0 6.09137,1.1371 6.09137,7.3097 0,6.5436 0.78839,7.3096 7.52381,7.3096 7.42785,0 7.50282,-0.1243 5.8772,-9.7462 -1.53573,-9.0899 -1.25813,-9.7462 4.12208,-9.7462 5.36591,0 6.07151,1.6344 10.106,23.4077 2.3855,12.8742 3.99764,23.7344 3.58253,24.1338 -0.41512,0.3994 -2.91735,1.1045 -5.56052,1.567 -3.91142,0.6843 -5.22742,-1.1083 -7.07164,-9.6329 -1.63439,-7.5545 -3.23662,-10.1011 -5.74887,-9.137 -1.91564,0.7351 -4.58402,1.3365 -5.92975,1.3365 -1.38262,0 -2.09073,4.5038 -1.62813,10.3554 0.72207,9.1335 0.18201,10.4458 -4.57744,11.1226 -3.99046,0.5674 -5.70662,-0.702 -6.58809,-4.8731 z M 19.146185,1115.1534 c -2.80037,-4.5311 1.74126,-6.245 28.15152,-10.6237 14.07106,-2.3328 36.54822,-6.2938 49.949236,-8.8021 13.401009,-2.5082 56.710659,-10.1225 96.243649,-16.9206 39.533,-6.7981 74.22004,-12.8556 77.08235,-13.4611 3.69758,-0.7823 5.57207,0.3059 6.47505,3.7589 1.49312,5.7097 3.57403,5.091 -44.57263,13.253 -19.43147,3.2941 -73.11805,12.6167 -119.3035,20.7169 -46.185445,8.1001 -85.866935,14.7275 -88.181075,14.7275 -2.31413,0 -4.9442,-1.1919 -5.8446,-2.6488 z m 415.241135,-88.8692 c -2.16734,-2.1674 -7.64153,-4.1173 -12.16486,-4.3331 -5.31896,-0.2539 -9.26968,-2.114 -11.18358,-5.2656 -5.60896,-9.2361 -3.38686,-10.7608 7.22329,-4.9563 5.69543,3.1158 12.68923,6.3596 15.54177,7.2084 5.15883,1.5351 5.15559,1.4824 -0.60914,-9.9044 -3.18757,-6.2962 -5.79558,-14.26162 -5.79558,-17.70102 v -6.2532 l 5.17755,7.288 c 6.04276,8.50582 15.96531,16.48302 19.1022,15.35712 2.93387,-1.053 -5.48428,-24.39152 -12.19968,-33.8224 -5.62177,-7.89505 -3.80547,-14.05961 3.3351,-11.31952 3.53419,1.35621 16.25996,35.6018 16.25996,43.75632 0,10.3935 6.99735,0.5068 13.37063,-18.89162 1.52092,-4.6292 1.77357,-4.5682 5.04853,1.2183 1.89612,3.3503 5.1832,11.84512 7.30463,18.87732 3.45322,11.447 4.34953,12.5225 8.55859,10.2699 2.58581,-1.3839 7.98072,-8.234 11.9887,-15.2225 7.96454,-13.88742 8.66648,-13.07282 4.69454,5.4477 -2.50089,11.6613 -3.04429,12.3027 -10.42233,12.3027 -4.28111,0 -10.23243,1.7151 -13.22512,3.8112 -5.02492,3.5196 -5.93049,3.4264 -11.83522,-1.2183 -9.88649,-7.7767 -26.55377,-5.8198 -33.77494,3.9656 -2.04566,2.7721 -3.1107,2.6697 -6.39504,-0.6146 z m 79.91547,-0.2586 c -2.85834,-2.8584 -1.77344,-5.0272 4.60556,-9.2069 l 6.22994,-4.0819 -3.85596,7.4565 c -4.14091,8.0077 -4.50223,8.3096 -6.97954,5.8323 z m -385.78784,-5.789 c -7.59451,-2.33 -20.30355,-14.8176 -20.30355,-19.9499 0,-1.44312 4.36231,-6.65112 9.69401,-11.57332 9.67804,-8.9347 17.10802,-22.54855 17.10802,-31.34673 0,-2.55915 1.70785,-6.07039 3.79523,-7.80275 3.14945,-2.61383 3.58955,-7.54553 2.5865,-28.98391 -1.25708,-26.86762 -4.15317,-39.12292 -9.24528,-39.12292 -2.22451,0 -2.2808,-0.70336 -0.22114,-2.76302 2.05966,-2.05966 4.59193,-0.76062 9.94758,5.10306 3.95151,4.32636 7.76858,6.92113 8.48237,5.76616 0.7138,-1.15495 0.56836,-14.6899 -0.32321,-30.07767 l -1.62103,-27.97776 -21.73544,-1.21828 c -14.30628,-0.80187 -22.07917,-2.25929 -22.74111,-4.26396 -0.75835,-2.29661 4.88696,-3.05487 22.95371,-3.08299 14.32126,-0.0219 22.62943,-0.88 20.65325,-2.13217 -2.1801,-1.38138 -2.79636,-4.48064 -1.8094,-9.09975 1.04165,-4.87502 0.0144,-9.2274 -3.37831,-14.31453 -2.68128,-4.0203 -4.88228,-9.77664 -4.89111,-12.79187 -0.0152,-5.1994 0.92673,-5.48224 18.25805,-5.48224 17.32927,0 18.27364,0.28345 18.26501,5.48224 -0.005,3.01523 -2.20798,9.08876 -4.8955,13.49672 -3.28085,5.38116 -4.37038,10.07045 -3.31593,14.27169 1.03095,4.10763 0.41087,6.99155 -1.80502,8.39488 -2.07022,1.31108 5.8893,2.15216 20.58393,2.17503 18.06675,0.028 23.71205,0.78638 22.95371,3.08299 -0.66194,2.00467 -8.43484,3.46209 -22.74112,4.26396 l -21.73543,1.21828 -1.62103,27.97776 c -0.89157,15.38777 -1.03701,28.92272 -0.32322,30.07767 0.7138,1.15497 4.53087,-1.4398 8.48238,-5.76616 5.35565,-5.86368 7.88791,-7.16272 9.94758,-5.10306 1.7643,1.7643 1.84753,2.76302 0.23028,2.76302 -5.10899,0 -8.50582,13.67045 -9.69099,39.00117 -1.00841,21.5529 -0.57062,26.49019 2.5808,29.10566 2.08736,1.73236 3.79521,5.31679 3.79521,7.96541 0,8.62711 7.89567,22.41787 18.06381,31.55067 9.69638,8.7091 9.86101,9.1167 6.30168,15.60082 -7.36803,13.4226 -14.99812,16.6548 -40.87911,17.3171 -13.02918,0.3334 -27.16196,-0.4591 -31.40618,-1.7613 z m 91.91358,-28.99892 c -7.86938,-7.8694 -8.52952,-19.9368 -2.62294,-47.94736 7.29733,-34.6058 6.42343,-63.42402 -2.20165,-72.60287 -7.16029,-7.62001 -13.0411,-7.8901 -25.80425,-1.18511 l -9.71011,5.10111 5.12467,-5.28499 c 7.5368,-7.77262 22.47829,-9.10721 30.56716,-2.73033 13.06563,10.30036 14.39077,33.69347 4.61111,81.4012 -4.80495,23.43974 -3.56395,36.98995 3.88669,42.43805 6.21097,4.5415 8.01484,3.9848 16.60703,-5.1256 11.98505,-12.70782 26.78538,-64.85994 18.40672,-64.85994 -2.3699,0 -2.40377,-0.77721 -0.15204,-3.49031 1.59319,-1.91968 3.85345,-10.25886 5.02278,-18.53153 1.16932,-8.27266 2.74119,-15.65633 3.49301,-16.40815 3.32806,-3.32806 3.91602,2.54383 1.80843,18.06006 -1.28962,9.49432 -1.34909,17.06597 -0.13767,17.52728 3.38639,1.28959 2.47334,5.2792 -1.20818,5.2792 -2.18147,0 -3.91758,4.34707 -5.00253,12.52588 -2.72231,20.52177 -11.38031,43.41311 -19.79388,52.33411 -8.7913,9.3214 -15.97422,10.4193 -22.89428,3.4993 z m 362.90978,-41.97545 c -13.43544,-5.04341 -30.05397,-25.65517 -39.01525,-48.39014 -20.54919,-52.13364 -2.26735,-97.38456 39.34436,-97.38456 7.68512,0 16.81818,1.08176 20.29567,2.4039 5.64026,2.14441 6.59213,1.68419 8.81877,-4.26396 1.37284,-3.66732 6.40476,-14.61709 11.18207,-24.33283 9.16003,-18.62906 11.8416,-20.29881 23.82827,-14.83731 7.92005,3.6086 7.80346,5.44922 -0.73016,11.5257 -6.27767,4.47007 -27.1755,29.39963 -27.1755,32.41832 0,0.68499 5.73205,-0.24146 12.73788,-2.05873 52.44702,-13.60459 79.11877,42.82342 49.69389,105.13475 -16.7694,35.51152 -27.22499,42.17061 -66.12107,42.11186 -14.72216,-0.0222 -29.50867,-1.06938 -32.85893,-2.327 z M 266.39689,864.04596 c -1.53897,-2.87561 -2.30156,-10.39616 -1.69467,-16.71235 0.70597,-7.3471 -0.0724,-13.09209 -2.16068,-15.94799 -4.49697,-6.14997 -4.12354,-9.09252 2.16897,-17.09217 2.98823,-3.79889 5.12082,-9.29038 4.73911,-12.20328 -1.31564,-10.0396 12.75703,-17.57065 19.01545,-10.17624 10.30426,12.17463 12.23365,15.43911 12.23365,20.69916 0,3.26885 -2.1929,8.7312 -4.8731,12.13852 -2.6802,3.40731 -4.8731,8.09228 -4.8731,10.41105 0,2.31876 -2.02916,6.83079 -4.50924,10.02673 -2.48009,3.19595 -4.0273,7.19969 -3.43822,8.89718 1.04058,2.99864 -8.57104,15.06113 -12.06834,15.14566 -0.95793,0.0244 -3.00083,-2.31066 -4.53983,-5.18627 z m 330.59662,-72.79065 c -10.28689,-3.14269 -20.66863,-14.16726 -23.60294,-25.06448 -3.41358,-12.67704 -1.62094,-16.30925 8.04387,-16.29824 16.951,0.0195 31.83019,15.04361 32.16551,32.47919 0.21661,11.2701 -3.05884,13.02237 -16.60644,8.88353 z M 315.30224,735.57029 c -11.252,-3.6919 -20.63503,-9.57288 -28.34091,-17.76319 -13.36634,-14.20663 -16.37699,-22.84488 -17.48096,-50.15712 -0.55522,-13.73604 -1.47192,-24.97461 -2.03713,-24.97461 -0.5652,0 -3.68196,1.73918 -6.92615,3.86485 -6.05124,3.96492 -11.03494,2.96969 -10.92261,-2.18125 0.0348,-1.59603 16.45413,-12.14232 36.48738,-23.43618 29.42242,-16.58704 35.89362,-21.17353 33.66435,-23.8596 -4.22575,-5.09175 0.98354,-9.17906 7.3537,-5.76985 3.66964,1.96394 6.66661,1.91204 11.29216,-0.19541 4.95647,-2.25834 6.93091,-2.19589 9.2763,0.29336 2.34993,2.49405 2.33597,3.39833 -0.066,4.27907 -1.67512,0.61423 -3.04568,2.01429 -3.04568,3.11128 0,1.09698 16.39607,11.46412 36.4357,23.03807 26.29825,15.18864 36.05553,22.03431 35.06926,24.60448 -1.66879,4.3488 -2.83765,4.33844 -10.59126,-0.0938 -3.35025,-1.91517 -6.9137,-3.521 -7.91878,-3.56847 -1.00507,-0.0475 -1.82741,10.3651 -1.82741,23.13912 0,33.65589 -8.46795,50.40589 -31.94154,63.18181 -13.26839,7.22156 -36.69069,10.35594 -48.48032,6.48765 z m 2.52426,-15.05984 c 2.25237,-4.2086 1.68295,-5.79177 -3.5691,-9.92303 -6.48697,-5.10265 -8.03379,-11.54863 -3.78973,-15.79268 1.65468,-1.65469 0.0826,-5.60063 -4.80532,-12.06092 -13.19473,-17.43942 -12.18342,-18.12952 26.56769,-18.12952 18.68233,0 34.5464,0.93605 35.25346,2.08013 0.70709,1.14405 -1.9427,7.17061 -5.88838,13.39231 -5.31572,8.38202 -6.81139,13.12518 -5.77415,18.31134 1.05059,5.25306 0.0663,8.24153 -3.94558,11.97915 -3.72597,3.47127 -4.85643,6.52064 -3.73135,10.06538 2.15712,6.79655 3.96112,6.47086 16.32465,-2.94718 17.40324,-13.25706 22.48101,-25.2268 23.46669,-55.31768 l 0.83805,-25.58375 -26.59244,-15.22843 c -14.62584,-8.37563 -27.75499,-15.22842 -29.17584,-15.22842 -1.42087,0 -14.2051,6.66839 -28.4094,14.81864 l -25.82597,14.81865 v 25.08684 c 0,26.28024 2.41849,35.86489 12.18113,48.27455 4.0359,5.13018 18.79059,15.28013 23.67224,16.28447 0.28788,0.0592 1.72939,-2.14569 3.20335,-4.89985 z m -9.3491,-71.13458 c 0.7456,-10.30499 0.79957,-10.35896 11.10456,-11.10456 l 10.35533,-0.74924 v 11.10456 11.10457 h -11.10456 -11.10457 z m 26.33299,-0.74924 v -11.10456 l 10.35533,0.74924 c 10.30499,0.7456 10.35896,0.79957 11.10457,11.10456 l 0.74924,10.35533 h -11.10457 -11.10457 z m 117.92613,41.96747 c -13.42657,-11.54904 -5.47952,-30.8629 12.69912,-30.8629 17.20067,0 24.92543,21.00409 11.58423,31.49828 -8.38051,6.59211 -16.11621,6.3897 -24.28335,-0.63538 z m 20.83603,-8.70771 c 1.88798,-3.52773 1.4321,-5.94946 -1.89293,-10.0557 -7.73268,-9.54947 -20.74965,-0.83572 -14.94735,10.00595 3.25418,6.0805 13.59638,6.11105 16.84028,0.0497 z m 22.59218,10.60006 c -4.57566,-3.20492 -5.41525,-6.06589 -5.41525,-18.45278 0,-12.64579 0.58579,-14.54853 4.26396,-13.85007 3.25364,0.61786 4.44292,3.69115 5.01929,12.97052 0.87116,14.02604 3.46901,17.96184 8.8876,13.4648 2.44647,-2.03037 3.75808,-7.26673 3.75808,-15.00331 0,-8.93955 0.90564,-11.88441 3.65483,-11.88441 5.7658,0 5.09628,27.17879 -0.80099,32.51576 -5.58472,5.05408 -12.37384,5.13805 -19.36752,0.23951 z m 35.26209,2.08744 c -6.62007,-1.71606 -3.32276,-6.88968 4.05576,-6.36368 7.67674,0.5473 8.87912,-5.44576 1.55873,-7.76918 -6.67197,-2.1176 -9.61859,-8.55082 -7.04272,-15.37608 1.75739,-4.65661 3.61328,-5.49965 10.72744,-4.87309 9.91539,0.87325 11.61817,5.25992 2.48499,6.40168 -8.28711,1.03602 -7.7858,4.27941 1.14252,7.39186 5.94343,2.07187 7.30965,3.92201 7.30965,9.89882 0,10.13976 -7.35982,14.02752 -20.23637,10.68967 z M 100.08958,692.2185 c -0.893409,-0.89338 -1.624369,-7.47206 -1.624369,-14.61929 0,-9.09644 -0.91371,-12.81217 -3.04568,-12.38578 -1.67513,0.33503 -3.04569,-1.03553 -3.04569,-3.04568 0,-2.63154 3.24038,-3.86276 11.573599,-4.39746 9.16299,-0.58796 11.57361,0.0465 11.57361,3.04569 0,2.08356 -1.64467,3.78832 -3.65483,3.78832 -2.84264,0 -3.65482,3.24872 -3.65482,14.61929 0,10.55836 -0.90242,14.61928 -3.24873,14.61928 -1.7868,0 -3.9797,-0.73096 -4.87309,-1.62437 z m 15.43147,0.6229 c 0,-2.54604 10.86267,-29.80802 12.99185,-32.60556 4.4646,-5.86607 9.37857,-1.77608 15.26,12.70114 3.2229,7.93323 5.85982,15.88246 5.85982,17.66497 0,4.44 -7.1302,4.10709 -8.86507,-0.4139 -0.77137,-2.01015 -4.06071,-3.65482 -7.30965,-3.65482 -3.24893,0 -6.53827,1.64467 -7.30964,3.65482 -1.20232,3.13321 -10.62731,5.48638 -10.62731,2.65335 z m 19.67512,-14.28786 c -0.1005,-0.97158 -0.18274,-3.47589 -0.18274,-5.56513 0,-2.08924 -1.09644,-3.12097 -2.43655,-2.29274 -3.28907,2.03276 -3.12254,11.59921 0.18275,10.49745 1.4406,-0.48019 2.53705,-1.66801 2.43654,-2.63958 z m 20.31982,11.97083 c -0.70038,-1.8252 -0.94008,-9.77443 -0.53266,-17.66497 0.70011,-13.55913 1.10188,-14.38814 7.32078,-15.10582 3.619,-0.41765 8.94396,0.5058 11.83323,2.05208 4.16025,2.2265 4.95841,4.28553 3.83624,9.89641 -0.78935,3.94672 -0.36472,7.08497 0.95864,7.08497 4.4021,0 2.47939,11.95575 -2.33729,14.53357 -6.73034,3.60197 -19.5774,3.11668 -21.07894,-0.79624 z m 16.7835,-7.61258 c 0.26425,-1.32176 -1.43834,-2.77272 -3.78352,-3.22436 -2.66705,-0.51362 -4.26396,0.68143 -4.26396,3.19098 0,4.23908 7.20072,4.26893 8.04748,0.0334 z m -2.8089,-14.65267 c 0,-1.2731 -1.17868,-2.70761 -2.61929,-3.18781 -1.44061,-0.48022 -2.61929,0.9543 -2.61929,3.18781 0,2.23351 1.17868,3.66803 2.61929,3.18781 1.44061,-0.4802 2.61929,-1.91471 2.61929,-3.18781 z m 20.62482,9.23773 c 7.51489,-19.96524 7.65777,-20.2022 12.18098,-20.2022 3.28073,0 12.00362,16.31247 16.61215,31.06599 1.37545,4.40331 0.77241,5.48223 -3.06414,5.48223 -2.62713,0 -5.40772,-1.64467 -6.17909,-3.65482 -0.77137,-2.01015 -4.21243,-3.65482 -7.6468,-3.65482 -3.43437,0 -6.87543,1.64467 -7.6468,3.65482 -0.77137,2.01015 -3.42893,3.65482 -5.90571,3.65482 -4.21602,0 -4.11083,-1.04247 1.64941,-16.34602 z m 15.52061,1.1176 c -0.0205,-1.67513 -0.96485,-4.50893 -2.0985,-6.29733 -1.57482,-2.48438 -2.36591,-2.08647 -3.35251,1.68631 -0.71022,2.7159 -0.6796,5.5497 0.068,6.29735 2.3998,2.39978 5.42143,1.45321 5.38296,-1.68633 z m 19.5297,-3.04569 c 0,-16.44894 0.49948,-18.53024 4.26396,-17.7676 2.60069,0.52688 4.18849,2.97269 4.07049,6.27005 -0.25482,7.12088 2.7893,6.85096 7.72717,-0.68519 2.19517,-3.35025 6.05802,-6.09137 8.58409,-6.09137 6.03055,0 5.80274,1.51354 -1.5417,10.24189 l -6.13456,7.29051 7.35283,8.37442 c 8.80518,10.02851 8.91333,10.6434 1.87061,10.63439 -3.37476,-0.005 -7.35555,-2.81158 -10.35533,-7.30263 -6.02828,-9.0251 -7.52857,-9.16205 -7.40569,-0.67604 0.064,4.41716 -1.32862,6.91916 -4.16791,7.48829 -3.76368,0.75443 -4.26396,-1.33126 -4.26396,-17.77672 z m 182.74112,1.21828 c 0,-15.43146 0.46411,-17.05584 4.8731,-17.05584 3.79019,0 4.87309,1.62438 4.87309,7.30965 0,6.17258 0.94755,7.30964 6.09137,7.30964 5.14382,0 6.09137,-1.13706 6.09137,-7.30964 0,-5.68527 1.0829,-7.30965 4.8731,-7.30965 4.40898,0 4.8731,1.62438 4.8731,17.05584 0,15.43146 -0.46412,17.05583 -4.8731,17.05583 -3.7902,0 -4.8731,-1.62437 -4.8731,-7.30964 0,-6.17258 -0.94755,-7.30964 -6.09137,-7.30964 -5.14382,0 -6.09137,1.13706 -6.09137,7.30964 0,5.68527 -1.0829,7.30964 -4.87309,7.30964 -4.40899,0 -4.8731,-1.62437 -4.8731,-17.05583 z m 151.06599,0 V 659.7312 h 9.74619 c 10.42609,0 14.28449,6.25969 4.77659,7.74932 -6.92024,1.08422 -7.17422,5.48452 -0.37221,6.44869 6.8697,0.97377 5.75554,6.21634 -1.54955,7.29125 -7.31225,1.07595 -6.67429,5.31277 0.8,5.31277 3.79019,0 6.09137,1.38072 6.09137,3.65482 0,2.63959 -2.70728,3.65482 -9.7462,3.65482 h -9.74619 z M 449.37187,594.54977 c -17.87011,-8.97313 -21.91061,-37.59046 -7.36159,-52.13948 7.85329,-7.85331 15.77621,-8.86382 22.41203,-2.85848 5.97261,5.40514 7.90409,2.89784 12.65134,-16.42297 6.16317,-25.08345 5.25858,-46.69237 -2.55563,-61.04963 -7.29989,-13.41232 -6.50726,-16.26357 3.3824,-12.16715 15.06118,6.23856 32.86891,28.84727 44.3577,56.31662 3.08265,7.37056 5.92398,13.75597 6.31404,14.18982 0.39007,0.43383 4.25244,-1.04348 8.58304,-3.28291 15.76534,-8.15259 28.1088,6.07173 26.11651,30.09612 -0.96405,11.62519 -2.28829,14.48231 -9.97908,21.53039 -13.9288,12.76478 -33.63911,10.14644 -45.13321,-5.99554 -13.03273,-18.30277 -7.7595,-39.48205 9.83028,-39.48205 6.84872,0 7.27668,-0.49895 5.74709,-6.7005 -3.48122,-14.11429 -22.21048,-45.61762 -30.40255,-51.13825 -11.22678,-7.56572 -15.33393,-7.31856 -12.27065,0.7385 4.98035,13.09929 1.50927,54.63349 -6.24826,74.76523 -1.34812,3.49854 -0.28412,4.26396 5.92727,4.26396 11.77226,0 18.22346,7.96951 16.28155,20.1135 -2.04996,12.81973 -9.28242,22.6937 -21.00209,28.67262 -11.58998,5.91277 -15.79753,5.99963 -26.65019,0.5502 z m 34.25538,-12.60068 c 4.10042,-4.10042 7.12223,-9.72514 7.12223,-13.25721 0,-8.33914 -3.99726,-10.24393 -5.86667,-2.79563 -0.83235,3.31641 -4.90046,9.88752 -9.04023,14.60246 -5.85439,6.66778 -6.61703,8.5726 -3.43219,8.5726 2.25205,0 7.29965,-3.20499 11.21686,-7.12222 z m 72.82332,-26.82927 c 3.98348,-7.44324 3.01712,-20.886 -1.81584,-25.25977 -4.12079,-3.72926 -4.3344,-3.07741 -4.26396,13.01075 0.076,17.36377 1.64776,20.53036 6.0798,12.24902 z M 66.853615,583.45156 c -16.9824,-5.83475 -17.63769,-18.40649 -3.29805,-63.27306 9.51849,-29.7819 18.19313,-41.12364 34.892276,-45.62027 16.352269,-4.40321 27.956439,0.28008 45.850789,18.50483 19.48568,19.84544 28.49536,38.24583 26.35896,53.8326 -2.94153,21.46078 -16.60646,32.06765 -47.84157,37.13521 -20.57474,3.33802 -45.305895,3.08199 -55.962405,-0.57931 z m 35.366605,-11.59819 c 2.37047,-3.83549 -0.25897,-5.37566 -6.043319,-3.53977 -2.80065,0.8889 -4.46324,2.63367 -3.69464,3.87731 1.89394,3.06444 7.761099,2.86109 9.737959,-0.33754 z m 33.90743,-2.10608 c 2.62226,-4.24291 -4.00031,-5.63615 -7.96152,-1.67493 -3.63313,3.63311 -3.53028,3.94311 1.30829,3.94311 2.88828,0 5.88223,-1.02069 6.65323,-2.26818 z m -60.149745,-4.58461 c 0.53046,-1.59138 -0.77157,-2.8934 -2.8934,-2.8934 -2.12183,0 -3.85787,1.73604 -3.85787,3.85786 0,4.30277 5.2453,3.55344 6.75127,-0.96446 z m 78.208435,-6.16327 c 1.49256,-1.79842 2.00181,-3.98181 1.13166,-4.85195 -1.82862,-1.82863 -8.12183,2.80778 -8.12183,5.9836 0,3.20792 3.91461,2.57417 6.99017,-1.13165 z m -34.38914,-3.43064 c 1.44371,-4.38378 -5.52759,-3.75469 -9.34346,0.84315 -2.81781,3.39525 -2.49333,3.78181 2.55649,3.04568 3.18117,-0.46372 6.2353,-2.2137 6.78697,-3.88883 z m -21.862419,-7.54233 c 0.69825,-2.09697 -0.47331,-2.97502 -3.25101,-2.43655 -2.38847,0.463 -4.83391,2.31711 -5.43432,4.12021 -0.69826,2.09696 0.4733,2.97502 3.25101,2.43654 2.38846,-0.46299 4.83391,-2.31711 5.43432,-4.1202 z m 38.097649,-1.85541 c 4.89731,-1.87926 5.05129,-8.26723 0.19928,-8.26723 -2.01016,0 -3.65483,0.45856 -3.65483,1.01899 0,0.56046 -0.66553,2.75335 -1.47895,4.8731 -1.62047,4.22288 -0.84868,4.59435 4.9345,2.37514 z M 76.105805,539.5293 c 0.46629,-2.40429 -0.77668,-4.06205 -3.04569,-4.06205 -2.26023,0 -3.83348,2.08325 -3.83348,5.07614 0,5.93799 5.69366,5.09864 6.87917,-1.01409 z m 83.273115,-5.42413 c 0,-1.93106 -1.09645,-3.51101 -2.43655,-3.51101 -1.3401,0 -2.43655,2.25761 -2.43655,5.0169 0,2.75929 1.09645,4.33925 2.43655,3.51102 1.3401,-0.82824 2.43655,-3.08584 2.43655,-5.01691 z m -42.83888,2.31967 c 4.89731,-1.87926 5.05129,-8.26723 0.19928,-8.26723 -2.01015,0 -3.65482,0.45856 -3.65482,1.01899 0,0.56045 -0.66553,2.75335 -1.47896,4.87309 -1.62047,4.22288 -0.84868,4.59436 4.9345,2.37515 z m -21.352169,-9.59059 c 0.79354,-2.06795 0.78563,-4.41707 -0.0175,-5.22031 -1.73543,-1.73538 -8.88786,3.77071 -8.88786,6.842 0,3.67697 7.38841,2.33153 8.9054,-1.62169 z M 141.1048,515.97487 c 2.21244,-3.5798 -0.8444,-7.30017 -4.76273,-5.79657 -5.60941,2.15254 -6.6404,8.23312 -1.39596,8.23312 2.55905,0 5.33046,-1.09645 6.15869,-2.43655 z m -23.74415,-6.70051 c 1.44371,-4.38379 -5.52759,-3.75469 -9.34346,0.84315 -2.81781,3.39525 -2.49333,3.78181 2.55649,3.04568 3.18117,-0.46372 6.23531,-2.2137 6.78697,-3.88883 z m -31.454619,-4.13733 c 0.53846,-2.77771 -0.33959,-3.94928 -2.436546,-3.25101 -1.80311,0.60041 -3.65721,3.04585 -4.12022,5.4343 -0.53846,2.77772 0.33959,3.94928 2.43655,3.25102 1.80311,-0.60042 3.657206,-3.04586 4.120216,-5.43431 z m 16.901839,-15.58774 c 0.69826,-2.09697 -0.4733,-2.97503 -3.250999,-2.43655 -2.38847,0.46299 -4.83391,2.31711 -5.43432,4.1202 -0.69826,2.09697 0.4733,2.97503 3.251,2.43655 2.38847,-0.46299 4.833909,-2.31711 5.434319,-4.1202 z m 22.45937,0.84183 c 0,-2.01016 -1.57996,-3.65483 -3.51102,-3.65483 -4.07061,0 -6.81846,3.47764 -4.54457,5.75152 2.91206,2.91207 8.05559,1.57331 8.05559,-2.09669 z m 45.60316,27.29679 c -0.66694,-1.73801 -7.99294,-11.69236 -16.28001,-22.12074 -14.19931,-17.86835 -14.97451,-19.51044 -13.45533,-28.50232 0.88662,-5.24786 2.51972,-10.10256 3.62911,-10.78821 1.6764,-1.03607 7.10255,11.13415 11.249,25.23021 0.6044,2.05467 2.57042,2.66561 5.21369,1.62014 2.33389,-0.92311 7.80688,-2.27679 12.16221,-3.00817 9.47592,-1.59126 10.20485,1.61982 3.03658,13.37687 -2.6752,4.38771 -4.86399,8.47712 -4.86399,9.08755 0,0.6104 4.18502,3.24489 9.30005,5.85439 5.11503,2.60949 10.73152,6.46933 12.48109,8.57743 2.82135,3.39952 1.79929,3.83291 -9.03937,3.83291 -7.7645,0 -12.66256,-1.15225 -13.43303,-3.16006 z m 352.13396,-39.88473 c -1.69128,-0.68131 -6.28888,-5.90987 -10.21686,-11.619 -3.92799,-5.70912 -10.65359,-12.08104 -14.94581,-14.15983 l -7.80402,-3.77959 7.05641,-3.608 c 22.01953,-11.2587 35.12874,-7.50768 58.59104,16.76509 l 17.42296,18.0248 -23.51433,-0.19224 c -12.93288,-0.10575 -24.89811,-0.7498 -26.58939,-1.43111 z m -239.66152,-34.9335 c -8.56817,-8.31513 -9.83946,-10.81659 -8.61325,-16.9477 1.10313,-5.51561 0.6492,-6.88983 -1.94685,-5.89364 -1.89758,0.72816 -4.59326,-0.95776 -6.13371,-3.8361 -2.83549,-5.29816 -2.20698,-28.78563 0.905,-33.82095 0.96643,-1.5637 0.59601,-2.84311 -0.82319,-2.84311 -4.36127,0 -2.85546,-13.61504 1.99088,-18.00095 2.5142,-2.27529 5.19821,-8.00035 5.96448,-12.72233 0.92501,-5.70014 4.71221,-11.8064 11.26911,-18.16966 10.71238,-10.39599 8.64733,-12.53404 -4.41464,-4.5707 -9.64678,5.88125 -11.96257,4.71 -7.97809,-4.03497 2.52222,-5.53566 4.10659,-6.23607 12.33201,-5.45165 l 9.43797,0.90003 -7.25353,-8.56877 c -3.98944,-4.71285 -11.27952,-12.11596 -16.20017,-16.45133 l -8.94664,-7.88255 7.53154,-0.0363 c 6.63794,-0.0319 18.33227,2.87569 33.88978,8.42624 2.6802,0.95623 1.04676,-0.83076 -3.62985,-3.97108 -4.67661,-3.14032 -9.36977,-5.70969 -10.42921,-5.70969 -1.05946,0 -6.55292,-4.96727 -12.20771,-11.03836 -5.65479,-6.0711 -13.5708,-13.54901 -17.5911,-16.6176 l -7.30965,-5.57923 11.93692,1.39236 c 15.0118,1.75103 17.56452,3.91963 19.22995,16.3364 2.19891,16.39414 5.69894,15.68376 4.66626,-0.94704 -0.71087,-11.44793 0.37196,-18.72399 4.36768,-29.34859 6.06103,-16.11637 7.31035,-15.93721 19.11153,2.74062 10.32697,16.34457 13.62603,34.22177 8.62282,46.72601 -2.14265,5.35505 -4.95272,9.73645 -6.24458,9.73645 -1.29186,0 -0.0763,2.88899 2.70111,6.41996 2.77747,3.53097 5.13651,8.19087 5.2423,10.35533 0.12914,2.64046 0.60529,2.90751 1.44734,0.81161 0.69025,-1.71808 -0.51635,-5.82717 -2.68132,-9.13135 -3.68631,-5.62601 -3.60115,-6.66569 1.34075,-16.36863 12.12071,-23.79782 25.45287,-33.60619 45.43547,-33.42654 l 9.08774,0.0816 -9.7462,7.80646 c -5.3604,4.29354 -15.12828,12.864 -21.70638,19.04542 -11.8177,11.10511 -11.87279,11.22615 -4.62432,10.16231 8.87917,-1.30319 28.45379,8.03598 37.29517,17.79372 5.31635,5.86738 5.47134,6.48689 1.21827,4.86912 -2.6802,-1.01945 -12.28692,-3.03642 -21.34828,-4.48212 -15.50115,-2.47315 -16.92041,-2.29938 -24.00611,2.9393 -5.79755,4.2863 -10.8902,5.5995 -22.12569,5.70532 -13.66633,0.12865 -14.15418,0.32521 -7.66899,3.0885 l 6.92572,2.95102 -6.09137,1.43213 c -3.35025,0.78767 -8.1934,1.74893 -10.76255,2.13615 -2.56917,0.38719 -5.16302,2.18103 -5.76417,3.98629 -0.8745,2.62626 -0.0526,2.7255 4.11241,0.49645 2.86297,-1.5322 6.23457,-2.14975 7.49246,-1.37234 2.67777,1.65495 12.09529,-3.25852 16.22748,-8.46647 2.49274,-3.14168 5.00467,-2.56364 18.89076,4.34724 15.49001,7.70912 20.97113,13.18061 20.97113,20.93426 0,2.03735 2.74111,6.44538 6.09137,9.79563 4.54155,4.54156 6.09137,8.66558 6.09137,16.20899 0,8.06073 -0.75448,9.82811 -3.71121,8.69351 -3.05962,-1.17408 -3.24312,-0.54947 -1.04511,3.55753 2.07031,3.86841 1.76806,6.35225 -1.35248,11.1148 -3.84609,5.86989 -4.21956,5.95124 -8.70108,1.89551 -7.37231,-6.67171 -5.52604,-20.53803 2.73464,-20.53803 3.75696,0 4.25684,-1.43897 3.17426,-9.13705 -0.91371,-6.49711 -3.95995,-11.60102 -10.54324,-17.66498 -5.09207,-4.69035 -9.97194,-10.90328 -10.84415,-13.8065 -0.88532,-2.94674 -4.9316,-6.44491 -9.15954,-7.91878 -9.38612,-3.27202 -12.44326,-3.34575 -10.53245,-0.25401 1.23316,1.99531 -1.90265,10.73918 -5.1972,14.49178 -0.50237,0.57223 -2.51187,-1.07244 -4.46556,-3.65482 -3.38829,-4.47862 -3.55573,-4.38333 -3.62966,2.06558 -0.10599,9.24683 -11.51205,14.15062 -17.10325,7.35316 -3.57583,-4.34728 -3.8171,-4.34599 -8.15189,0.0431 -2.45686,2.48767 -3.80915,5.18093 -3.00509,5.98499 0.80406,0.80406 2.70808,0.21588 4.23114,-1.30728 4.70571,-4.7057 11.76887,1.01295 11.76887,9.52858 0,4.42526 2.48828,10.43847 6.09137,14.72051 7.8299,9.3053 7.67191,12.71766 -0.87038,18.8003 l -6.96178,4.95723 -5.28985,-5.63079 c -5.64119,-6.00477 -5.13395,-11.16901 1.91876,-19.53478 3.67575,-4.36008 3.60775,-4.4687 -1.21535,-1.94144 -5.52667,2.89596 -10.72861,-0.0666 -10.72861,-6.11006 0,-1.74213 -1.09644,-3.16751 -2.43655,-3.16751 -4.004,0 -2.75444,9.10285 1.47219,10.72476 2.92259,1.12149 3.67478,3.95357 2.98131,11.22515 -0.62312,6.53397 0.0478,9.72522 2.04446,9.72522 3.22999,0 10.55788,9.27201 10.55788,13.35891 0,1.39066 -2.54244,5.27035 -5.64987,8.62158 -5.18707,5.59402 -5.38608,6.73963 -2.42958,13.98524 4.10846,10.06867 5.67546,10.05849 4.0976,-0.0265 -0.76342,-4.87961 0.11866,-9.73911 2.29817,-12.66174 3.43907,-4.61151 3.74649,-4.53357 11.09275,2.81272 6.82819,6.82816 7.3075,8.26767 4.97797,14.95017 -1.70444,4.8893 -3.76206,6.94002 -6.07346,6.05305 -2.44189,-0.93705 -3.04155,-0.15789 -1.98915,2.58466 2.62458,6.83954 -3.53546,4.26272 -13.93411,-5.82883 z m -7.00961,-38.85914 c 0,-1.11764 -1.52057,-2.61556 -3.37905,-3.32871 -2.36574,-0.90783 -3.01333,0.10185 -2.15951,3.36672 1.14832,4.39122 5.53856,4.36108 5.53856,-0.038 z m 31.67513,45.15855 c 0,-4.93484 2.64621,-11.16376 4.74267,-11.16376 1.57883,0 7.44007,10.64755 7.44007,13.51566 0,0.60699 -2.74112,1.10363 -6.09137,1.10363 -3.63406,0 -6.09137,-1.394 -6.09137,-3.45553 z m 21.92893,0.94253 c 0,-1.29805 -1.6061,-2.36009 -3.5691,-2.36009 -4.11972,0 -8.61364,-7.32203 -8.61364,-14.03437 0,-4.80517 9.43149,-15.20421 13.78955,-15.20421 4.17105,0 10.57594,8.56683 10.57594,14.14584 0,2.91168 -2.73661,7.0273 -6.16742,9.27526 -7.63388,5.00189 -6.58353,6.77701 1.69757,2.86896 3.37679,-1.5936 8.60591,-7.18272 11.62029,-12.42033 6.03667,-10.48895 11.85817,-9.57695 7.75509,1.21491 -2.98713,7.8568 -27.08828,22.54974 -27.08828,16.51403 z m -27.56445,-28.68631 c -7.873,-8.21765 -8.02757,-10.1194 -1.49728,-18.42133 6.30722,-8.01834 12.92474,-8.15917 20.64456,-0.43933 7.48037,7.48035 7.45393,8.95039 -0.32733,18.19789 -7.77702,9.24246 -10.50793,9.33863 -18.81995,0.66277 z m 38.90656,-0.0585 c -4.63019,-5.11631 -5.12391,-10.88101 -1.51019,-17.6333 3.99786,-7.47004 11.84486,-5.86572 15.68028,3.20587 l 3.34799,7.91878 2.76565,-7.2271 c 2.19969,-5.74813 3.22799,-6.49605 5.02497,-3.65482 3.27041,5.17084 2.84303,10.50157 -1.27456,15.89845 -3.13041,4.10303 -3.9436,4.24542 -6.13767,1.07484 -2.21421,-3.19973 -2.93609,-3.12388 -5.79715,0.60913 -4.15941,5.42705 -7.05586,5.38112 -12.09932,-0.19175 z m -16.82434,-22.60956 c -10.0523,-5.19964 -11.02104,-8.14538 -5.34408,-16.25038 4.90194,-6.9985 13.45189,-6.90345 20.14779,0.22392 6.66094,7.09025 6.6346,9.3253 -0.18444,15.65984 -5.4675,5.07903 -5.50682,5.08003 -14.61929,0.36653 z m -20.89508,-19.99526 c -6.61489,-7.04123 -6.67061,-11.45073 -0.24787,-19.61589 6.20645,-7.89023 9.62293,-8.05231 16.45428,-0.7807 7.00975,7.46154 6.6824,11.61488 -1.53603,19.48863 -8.27561,7.92856 -8.0859,7.91681 -14.67038,0.90796 z m 294.31485,3.5451 c -4.73587,-1.01238 -9.94399,-2.66473 -11.5736,-3.67187 -4.48152,-2.76975 -3.55551,-9.99823 1.91503,-14.94901 4.8673,-4.40484 4.86596,-4.42036 -0.60914,-7.09737 -7.1799,-3.5106 -13.82738,-17.39593 -15.63504,-32.65861 -2.08076,-17.56885 -0.13644,-22.34531 15.26749,-37.50581 l 13.76886,-13.55127 -4.276,-11.19653 c -3.6997,-9.68757 -3.84041,-12.24811 -1.04396,-18.99931 2.43794,-5.8857 2.52453,-8.03862 0.35245,-8.76265 -1.58376,-0.52792 -8.94489,-7.27435 -16.35804,-14.99207 -15.15116,-15.77365 -25.97701,-20.54295 -38.67321,-17.03736 -10.01969,2.76657 -14.47575,7.55663 -21.22623,22.81723 -6.98154,15.78293 -5.64134,38.76332 3.35878,57.59311 8.18783,17.13027 13.16155,22.57878 29.70559,32.54107 15.30888,9.21854 14.54722,14.03661 -0.91431,5.78371 -13.05963,-6.97084 -27.81357,-20.89937 -33.23216,-31.37297 -25.25065,-48.80711 3.37004,-108.21476 43.5679,-90.43334 11.34235,5.01726 35.25593,21.3442 39.78829,27.16535 2.30522,2.96073 3.49847,3.09271 5.96514,0.65979 2.48545,-2.45143 2.27863,-5.28687 -1.06628,-14.61929 -5.16244,-14.40333 -5.19901,-19.92578 -0.17958,-27.09222 5.81504,-8.30214 1.51037,-15.64037 -11.59439,-19.76507 -22.72059,-7.15126 -24.10138,-12.41249 -4.49226,-17.11665 9.19838,-2.20666 12.02466,-4.02641 12.60748,-8.11757 0.67497,-4.7373 2.23729,-5.27329 15.37062,-5.27329 13.22037,0 14.57295,0.47272 14.13493,4.94019 -0.39228,4.0009 1.92407,5.62587 12.18274,8.54651 16.23577,4.62231 16.3808,9.3376 0.48436,15.75012 -6.7005,2.70295 -13.55329,5.79259 -15.22842,6.86586 -4.24208,2.71796 -3.79873,9.703 1.16484,18.35149 4.04949,7.05584 4.00824,7.81515 -1.07844,19.85499 -2.90892,6.88522 -4.68634,14.08894 -3.94984,16.00826 1.92843,5.0254 7.5264,4.29231 10.56395,-1.38342 3.86814,-7.22768 12.18274,-6.39622 12.18274,1.21827 0,3.54955 -1.4006,6.09137 -3.35649,6.09137 -1.84606,0 -4.72143,1.64467 -6.38971,3.65483 -2.40616,2.89926 -2.41193,4.40344 -0.0278,7.27608 2.89013,3.48242 2.51598,10.93563 -1.32237,26.34012 -1.47194,5.90741 -0.38327,7.93946 8.1813,15.27038 5.43355,4.65093 12.31636,12.39966 15.29514,17.21942 5.08676,8.23054 5.23755,9.7315 2.48075,24.69318 -3.51955,19.10124 -8.21441,28.91875 -14.83405,31.01974 -6.16968,1.95818 -6.1758,4.18984 -0.0268,9.75467 10.97402,9.93134 2.98007,15.30191 -25.2837,16.98629 -9.54574,0.56889 -21.23069,0.20589 -25.96659,-0.80635 z m -8.80208,-47.16779 c -4.58755,-17.68549 -4.11043,-28.50208 1.69623,-38.45377 l 4.9759,-8.52792 -8.94089,9.42978 c -8.65233,9.12546 -8.89038,9.85964 -7.37561,22.74793 1.57511,13.40167 7.17954,27.51772 10.92522,27.51772 1.10938,0 0.53302,-5.72119 -1.28085,-12.71374 z M 336.6378,375.7298 c -6.99703,-3.82918 -8.51415,-10.18898 -4.30623,-18.0516 2.01195,-3.75938 1.62081,-4.27149 -2.44951,-3.20706 -9.92448,2.59531 -15.51943,-8.35763 -8.89616,-17.41547 4.56044,-6.23681 13.63624,-2.9357 15.33924,5.57928 0.75572,3.77855 4.24871,8.25668 8.21656,10.53393 9.66973,5.54968 12.59644,11.83431 8.93304,19.18236 -3.62054,7.26208 -8.09865,8.16068 -16.83694,3.37856 z m -60.73925,-65.98079 c -6.19875,-2.12825 -11.40857,-2.37568 -16.89446,-0.80236 -4.36252,1.25115 -8.32491,1.8818 -8.80527,1.40141 -1.7454,-1.74537 14.43998,-13.66253 18.55585,-13.66253 4.02583,0 19.33081,13.705 17.14713,15.35457 -0.57237,0.43236 -5.07382,-0.59864 -10.00325,-2.29109 z m 387.32889,-18.26919 c -0.59498,-1.78494 0.84848,-6.55197 3.2077,-10.59343 2.35921,-4.04143 7.26593,-16.11964 10.90384,-26.84045 9.70148,-28.59003 30.24753,-70.43199 33.15648,-67.52305 2.91715,2.91716 -10.77571,40.72288 -26.22121,72.39615 -13.22994,27.12993 -19.58161,36.95639 -21.04681,32.56078 z M 326.65461,271.19295 c -0.87472,-2.27949 -1.59041,-6.01591 -1.59041,-8.30317 0,-2.28724 -2.1929,-8.45984 -4.8731,-13.71692 -6.50597,-12.76107 -6.27301,-14.27519 3.73603,-24.28426 10.34834,-10.34833 15.15738,-10.88339 17.15467,-1.90863 0.82014,3.68528 1.99426,8.56538 2.60915,10.84467 1.59438,5.91012 -2.99062,21.07557 -9.70043,32.08536 -4.62586,7.59029 -6.05543,8.61982 -7.33591,5.28295 z M 286.2648,243.59356 c -0.10185,-3.06861 -2.46128,-10.04045 -5.24294,-15.49296 -2.78166,-5.45251 -4.15222,-9.48533 -3.04569,-8.9618 17.15428,8.11597 17.01366,7.85876 11.75808,21.50615 -2.65862,6.90375 -3.31938,7.46531 -3.46945,2.94861 z m 22.75775,-13.85871 c -1.18611,-4.72591 -0.0624,-10.10352 3.75182,-17.95431 l 5.4451,-11.20766 3.33603,6.02588 c 4.81125,8.6906 4.17894,12.32015 -3.7645,21.60913 l -7.07515,8.2736 z M 60.698715,167.21168 c -9.38071,-4.13304 -22.38943,-8.81268 -28.90828,-10.39921 l -11.85244,-2.88458 13.59169,-12.42204 c 31.30049,-28.60689 62.788956,-32.66149 79.379705,-10.22131 7.24639,9.80127 4.1227,12.50583 -3.78294,3.27535 -3.55529,-4.15109 -5.61116,-5.4039 -4.84175,-2.95047 1.03209,3.29103 -0.0718,4.26396 -4.837869,4.26396 -3.39629,0 -8.43533,-1.20965 -11.19786,-2.68811 -3.16356,-1.69308 -5.584506,-1.81826 -6.540326,-0.33818 -0.83465,1.29246 -6.72566,3.11752 -13.09115,4.05568 -6.36548,0.93816 -11.5736,2.63236 -11.5736,3.76489 0,1.13253 2.37783,1.43733 5.28407,0.67733 4.19153,-1.09611 4.96302,-0.54516 3.73129,2.66466 -1.93497,5.04247 1.54239,5.2855 5.60393,0.39165 3.14757,-3.79259 14.619286,-5.13096 14.619286,-1.70558 0,1.07208 -1.29746,3.2467 -2.883246,4.83248 -1.58579,1.58579 -2.22162,3.54488 -1.41296,4.35354 0.80866,0.80866 3.328666,-1.36596 5.600016,-4.83249 4.21358,-6.43073 9.51723,-7.86328 15.372659,-4.15225 2.70363,1.7135 2.57949,3.51482 -0.71109,10.31802 l -3.986549,8.24212 7.303719,-8.30666 c 6.14009,-6.98324 7.89762,-7.81376 11.03143,-5.21293 3.31216,2.74885 3.16776,3.81066 -1.29534,9.52493 -7.07172,9.05419 -21.609629,17.38034 -30.236919,17.31727 -4.020296,-0.0294 -14.984766,-3.43502 -24.365476,-7.56807 z m 90.946365,2.15175 c -4.92366,-3.00836 -11.21248,-8.36379 -13.97516,-11.90095 -4.50084,-5.76259 -4.62923,-6.75805 -1.2349,-9.5751 3.20249,-2.65782 4.73411,-2.04023 9.90661,3.99466 5.84745,6.82237 6.19646,5.62459 1.61754,-5.55131 -0.69352,-1.69268 1.58547,-3.64429 5.36264,-4.5923 5.36499,-1.34652 7.62201,-0.3606 12.31665,5.38021 3.16137,3.86587 5.78738,5.723 5.83557,4.12696 0.0482,-1.59603 -1.00882,-3.57952 -2.34892,-4.40775 -1.3401,-0.82823 -2.43655,-2.53761 -2.43655,-3.79862 0,-3.31894 13.11816,-2.81926 16.56853,0.63111 2.27411,2.27411 2.92386,2.21096 2.92386,-0.28418 0,-2.00845 1.8222,-2.73152 4.87309,-1.93369 2.68021,0.70088 4.8731,0.40842 4.8731,-0.64992 0,-2.38339 -8.8031,-4.85156 -17.46193,-4.8959 -3.5736,-0.0183 -6.91535,-1.28694 -7.42611,-2.81921 -0.69674,-2.09023 -2.22861,-2.09023 -6.13423,0 -2.86308,1.53227 -7.98438,2.78594 -11.38067,2.78594 -4.77604,0 -5.8662,-0.96605 -4.81173,-4.26396 0.74984,-2.34517 -1.99619,-0.42639 -6.1023,4.26396 -8.7385,9.98189 -10.01339,7.50865 -2.1145,-4.10206 15.68268,-23.05223 47.36809,-19.12561 79.00752,9.79104 l 13.65353,12.47856 -9.47773,1.94791 c -5.21276,1.07135 -18.36741,5.75522 -29.23256,10.40861 -23.09364,9.89068 -30.61497,10.41189 -42.80135,2.96599 z M 112.29596,118.20841 C 98.274041,99.419323 97.324781,86.527613 107.98685,59.687395 c 3.8968,-9.809627 7.89175,-23.214818 8.87765,-29.789311 l 1.79256,-11.953622 8.12762,9.624363 c 11.30473,13.386557 22.24971,34.614892 25.38545,49.236348 3.52682,16.44495 -0.32627,30.542357 -11.36485,41.580937 -10.34156,10.34155 -14.26524,8.19367 -4.39594,-2.40642 4.91262,-5.27638 5.77291,-7.17547 2.76454,-6.1027 -3.86446,1.37804 -4.1783,0.5093 -2.72497,-7.54289 0.90337,-5.005167 2.59462,-10.947007 3.75833,-13.204087 2.72565,-5.28655 2.69016,-9.10302 -0.0445,-4.78759 -1.42039,2.24142 -2.59705,-0.0904 -3.68861,-7.309645 -1.92104,-12.705304 -6.23782,-21.127497 -6.29646,-12.284626 -0.0207,3.123306 -1.1212,4.956148 -2.47386,4.120161 -3.54533,-2.191132 -2.84272,1.694648 1.29576,7.166204 3.49384,4.619256 4.9428,13.544456 2.19888,13.544456 -0.75815,0 -3.77338,-1.24526 -6.70051,-2.76723 l -5.32205,-2.76723 5.48223,5.96995 c 5.61601,6.11562 7.73375,21.493437 2.95996,21.493437 -1.38725,0 -5.49892,-1.77517 -9.13705,-3.94482 -6.04322,-3.60396 -5.93461,-3.29476 1.25687,3.57836 4.85954,4.64442 7.32375,8.95097 6.43982,11.25447 -2.27919,5.93947 -7.49933,4.36479 -13.88174,-4.1875 z m 507.95565,-5.09491 c -0.29144,-7.4715 1.35472,-11.36807 8.16285,-19.321817 9.05331,-10.57675 10.64018,-18.839855 5.70025,-29.681819 -3.4846,-7.647913 -10.2602,-7.997915 -15.30829,-0.790774 -3.77098,5.38382 -3.79298,5.37001 -3.79298,-2.380379 0,-5.660152 1.69596,-8.906857 6.19117,-11.852239 8.42893,-5.522831 17.21456,-1.384439 22.15303,10.43498 5.41869,12.968802 2.53513,23.639111 -10.01388,37.055001 -6.11157,6.533757 -11.036,14.394637 -11.65505,18.605027 -0.94858,6.45121 -1.11407,6.21305 -1.4371,-2.06798 z m -10.02555,0.99113 c -3.99162,-7.45843 -3.0029,-13.39324 3.92777,-23.576507 3.54751,-5.21239 7.89039,-12.76641 9.65082,-16.786714 l 3.2008,-7.309644 0.0953,8.396951 c 0.0599,5.274877 -2.35066,11.926557 -6.48331,17.889987 -4.00296,5.77628 -6.57869,12.743827 -6.57869,17.795947 0,9.61472 -0.39126,9.98311 -3.81275,3.58998 z M 606.7301,78.005363 c -5.38452,-32.650413 -5.31221,-33.192348 5.5796,-41.818829 5.66968,-4.490473 10.01339,-10.018206 10.01339,-12.742898 0,-2.646684 1.09644,-4.134511 2.43654,-3.306283 5.43658,3.35998 2.31,14.543424 -6.62368,23.692342 -8.90451,9.119052 -9.04829,9.570987 -8.3655,26.295623 0.75877,18.585325 -0.66593,22.277895 -3.04035,7.880045 z"
       id="path14" />
  </g>
</svg>
