<svg xmlns="http://www.w3.org/2000/svg" width="520.841" height="466.829" viewBox="0 0 137.806 123.515">
  <path d="M78.106 80.85c.013-.307.075-.37.16-.159.076.191.067.42-.021.507-.088.088-.15-.068-.14-.347zm1.831-14.761c0-.055.208-.264.463-.463.42-.33.43-.32.1.1-.346.44-.563.58-.563.363z" fill="#a3a3a3"/>
  <path d="M64.174 123.279c-7.37-.608-15.651-3.294-22.067-7.158-12.04-7.253-20.637-18.77-23.968-32.108-1.532-6.132-1.55-6.384-1.727-23.454l-.163-15.78-6.18 3.567c-3.4 1.962-6.277 3.468-6.394 3.345-.117-.122-.991-1.56-1.944-3.194L0 45.525l1.113-.65c.612-.357 14.329-8.279 30.482-17.603 16.153-9.324 29.397-17.04 29.433-17.148.035-.107-1.183-.901-2.709-1.766l-2.773-1.57.56-.943c.307-.518 1.15-1.982 1.875-3.253l1.317-2.31 1.097.637c.604.35 2.747 1.587 4.762 2.748l3.665 2.112 4.14-2.385a498.694 498.694 0 004.972-2.89L78.766 0l1.79 3.113a413.42 413.42 0 011.868 3.264c.041.083-1.23.902-2.827 1.82-1.596.918-2.95 1.746-3.007 1.84-.058.092 13.558 8.057 30.257 17.697 16.7 9.64 30.553 17.675 30.785 17.854.373.288.23.653-1.265 3.207-.927 1.584-1.796 2.991-1.93 3.126-.151.15-2.74-1.194-6.697-3.48l-6.452-3.725-.163 15.812c-.176 17.103-.195 17.352-1.726 23.485-2.267 9.078-6.896 17.241-13.58 23.95-8.933 8.969-20.417 14.314-32.95 15.338-3.566.29-4.941.287-8.695-.022zm-8.628-12.821c.724-1.535 1.316-2.886 1.316-3.002 0-.116.187-.585.415-1.042.713-1.43.435-2.118-1.236-3.051-4.838-2.703-7.559-6.449-7.33-10.09.113-1.786 1.376-4.806 2.468-5.898 1.073-1.072.89-2.085-.705-3.916-.748-.86-1.439-1.622-1.534-1.695-.325-.249-3.64-4.628-4.405-5.82-.42-.656-.825-1.251-.9-1.324-.646-.635-2.724-4.991-3.292-6.904-.643-2.166-.549-2.97.477-4.057l.891-.945h53.762l.935.821c.79.694.935.992.932 1.918-.003 1.026-.723 3.77-1.274 4.852l-.85 1.67c-1.348 2.644-5.075 7.846-7.612 10.625-2.31 2.53-2.59 3.363-1.56 4.634 1.593 1.963 2.568 4.497 2.568 6.669 0 3.283-2.749 6.87-7.248 9.458-1.913 1.1-1.993 1.287-1.322 3.07 1.016 2.694 2.953 6.818 3.204 6.818.46 0 3.153-1.137 5.587-2.359 12.316-6.18 21.193-17.825 23.845-31.278.858-4.353 1.065-9.156 1.067-24.703V40.357l-21.974-12.7c-12.085-6.985-22.235-12.8-22.554-12.92-.48-.182-4.464 2.023-23.013 12.737L23.77 40.431l.014 14.503c.014 15.476.235 20.525 1.088 24.776 2.673 13.335 11.524 24.975 23.642 31.092 2.263 1.142 5.06 2.373 5.51 2.424.112.013.796-1.233 1.52-2.768zm-6.357-59.386v-8.995h17.992v17.991H49.19zm20.638 0v-8.995h17.992v17.991H69.827z"/>
</svg>
