<svg xmlns="http://www.w3.org/2000/svg" width="500.333" height="155.61" viewBox="0 0 132.38 41.172"><path d="M64.085 41.093c-2.457-.203-5.217-1.098-7.355-2.386-4.014-2.418-6.88-6.256-7.99-10.703-.51-2.044-.517-2.128-.576-7.818l-.054-5.26-2.06 1.19c-1.133.653-2.092 1.155-2.131 1.114-.04-.04-.33-.52-.648-1.064l-.577-.991.37-.217c.205-.119 4.777-2.76 10.161-5.867 5.385-3.108 9.8-5.68 9.811-5.716.012-.036-.394-.3-.902-.589l-.925-.524.187-.314c.102-.172.383-.66.625-1.084l.439-.77.366.212c.2.117.915.53 1.587.916l1.222.704 1.38-.795c.759-.437 1.504-.87 1.657-.963L68.949 0l.597 1.038c.328.57.608 1.06.622 1.088.014.027-.41.3-.942.606s-.983.582-1.002.614c-.02.03 4.518 2.684 10.082 5.896 5.565 3.213 10.183 5.89 10.262 5.952.129.099.085.21-.418 1.07-.31.53-.6.998-.644 1.043-.05.05-.913-.398-2.232-1.16l-2.15-1.242-.055 5.27c-.059 5.702-.065 5.785-.576 7.83a17.125 17.125 0 01-4.526 7.983c-2.978 2.99-6.806 4.771-10.983 5.112-1.19.097-1.648.096-2.899-.007zm-2.876-4.274c.241-.511.439-.962.439-1 0-.039.062-.195.138-.348.238-.476.145-.706-.412-1.017-1.613-.9-2.52-2.15-2.443-3.363.037-.595.459-1.602.823-1.966.357-.357.296-.695-.235-1.305-.25-.287-.48-.541-.512-.565-.108-.083-1.213-1.543-1.468-1.94a6.266 6.266 0 00-.3-.442c-.216-.211-.908-1.663-1.098-2.301-.214-.722-.182-.99.16-1.352l.297-.315h17.92l.312.273c.263.232.311.33.31.64 0 .342-.24 1.256-.424 1.617l-.284.556c-.449.882-1.691 2.616-2.537 3.542-.77.844-.863 1.121-.52 1.545.531.654.856 1.499.856 2.223 0 1.094-.916 2.29-2.416 3.153-.638.367-.664.429-.44 1.023.338.898.984 2.273 1.067 2.273.154 0 1.051-.38 1.863-.787 4.105-2.06 7.064-5.941 7.948-10.426.286-1.45.355-3.05.356-8.234v-4.851l-7.325-4.233c-4.029-2.328-7.412-4.266-7.518-4.307-.16-.06-1.495.679-7.67 4.246l-7.478 4.319.004 4.834c.005 5.159.079 6.842.363 8.259.891 4.445 3.841 8.325 7.88 10.364.755.38 1.687.79 1.837.808.038.004.266-.41.507-.923zM59.09 17.024v-2.998h5.998v5.997H59.09zm6.88 0v-2.998h5.997v5.997h-5.998zm34.969 12.604c-1.308-.111-2.282-.556-3.187-1.455-.987-.98-1.444-2.094-1.444-3.52 0-1.426.457-2.54 1.444-3.52 1.024-1.018 2.176-1.469 3.753-1.47 1.646-.003 2.862.47 3.902 1.516.943.949 1.396 2.077 1.396 3.474 0 1.397-.453 2.525-1.396 3.473-1.153 1.16-2.633 1.657-4.468 1.502zm1.771-2.59c1.667-.748 2.073-2.945.782-4.236-1.047-1.046-2.826-1.046-3.872 0-1.011 1.012-1.017 2.685-.012 3.69.822.822 2.017 1.032 3.102.546zm8.283 2.432c-1.356-.395-1.985-1.052-2.335-2.441-.16-.636-.176-.995-.177-3.897l-.001-3.197h2.359l.037 3.163.037 3.163.221.43c.301.585.73.825 1.473.827.318 0 .662-.054.805-.128.346-.179.688-.607.796-.998.055-.196.092-1.557.092-3.393v-3.064h2.487l-.041 3.329c-.044 3.527-.081 3.865-.517 4.718-.386.758-1.224 1.33-2.275 1.556-.702.15-2.338.113-2.961-.068zm9.304.029c-.267-.065-.813-.284-1.214-.487l-.728-.37.3-.54c.164-.296.403-.746.53-1l.232-.462.393.3c1.1.84 2.53.89 2.903.102.126-.267.136-.376.054-.625-.127-.383-.392-.54-1.72-1.025-.947-.346-1.11-.438-1.549-.871-.6-.593-.741-1.01-.682-2.006.083-1.405.884-2.404 2.208-2.756.67-.179 2.168-.07 2.988.215 1.09.379 1.066.32.524 1.337-.256.48-.478.886-.493.902-.015.017-.2-.07-.41-.193-1.024-.6-2.277-.376-2.277.405 0 .53.274.742 1.455 1.126 1.666.541 2.399 1.255 2.57 2.501.067.49-.1 1.476-.327 1.919-.383.751-1.097 1.287-2.054 1.542-.567.15-2.054.143-2.703-.014zm-34.131-4.846v-4.718H88.547v3.615h3.704v-3.615H94.632v9.436h-2.38v-3.88h-3.705v3.88H86.166zm40.834 0v-4.718h5.38v2.028h-2.911v1.676h2.734v2.028h-2.734v1.676h2.911v2.028H127zm-124.972.573v-3.704H0v-2.028h6.526v2.028H4.498v7.408h-2.47zm4.417 3.462c.047-.134.849-2.247 1.782-4.697l1.696-4.453 1.367-.025 1.367-.024 1.754 4.61a4788.29 4788.29 0 011.796 4.723c.033.09-.233.108-1.26.089l-1.3-.025-.274-.772-.272-.771H9.47l-.254.794-.253.793H6.359zm5.97-3.307c-.023-.061-.27-.775-.551-1.588-.281-.812-.535-1.477-.565-1.477-.03 0-.3.715-.602 1.588l-.548 1.587h1.153c.884 0 1.143-.026 1.112-.11zm5.048-1.17v-4.717h2.194c2.48 0 2.867.067 3.406.59.458.445.598.782.643 1.549.055.926-.091 1.414-.567 1.89-.207.207-.348.39-.314.406.034.017.23.084.437.15.866.272 1.388 1.054 1.385 2.073-.003 1.402-.783 2.406-2.083 2.685-.245.052-1.458.093-2.769.093h-2.332zm3.975 2.779c.475-.132.743-.465.743-.924 0-.704-.501-1.016-1.629-1.016h-.708v2.028h.64c.35 0 .78-.04.954-.089zm-.431-3.919c.33-.138.512-.44.512-.853 0-.579-.4-.872-1.186-.872h-.49v1.852h.431c.237 0 .566-.057.733-.127zm4.217 5.806c0-.032.8-2.158 1.777-4.723l1.778-4.665 1.366.024 1.365.025 1.009 2.645a4003.98 4003.98 0 011.785 4.697l.778 2.05H32.47l-.257-.771-.257-.772-1.815-.024-1.815-.024-.257.774-.258.773-1.294.025c-.711.013-1.293-.002-1.293-.034zm5.997-3.49c0-.058-.203-.682-.45-1.386-.586-1.667-.606-1.717-.656-1.667-.052.051-1.098 2.996-1.099 3.09 0 .037.496.067 1.102.067.79 0 1.103-.03 1.103-.105zm5.027-1.175v-4.718h2.466l.024 1.93.023 1.93 1.483-1.93 1.483-1.93h1.508c1.427 0 1.5.008 1.374.154-.073.085-.86 1.027-1.749 2.094-.888 1.068-1.669 2.004-1.734 2.082-.105.124.092.398 1.58 2.205a963.292 963.292 0 012.042 2.482l.34.42h-3.166l-1.58-2.039-1.58-2.037-.024 2.037-.024 2.038h-2.466z"/></svg>